<?xml version="1.0" encoding="utf-8" standalone="no"?>
<!DOCTYPE svg PUBLIC "-//W3C//DTD SVG 1.1//EN"
  "http://www.w3.org/Graphics/SVG/1.1/DTD/svg11.dtd">
<svg xmlns:xlink="http://www.w3.org/1999/xlink" width="237.46pt" height="176.575pt" viewBox="0 0 237.46 176.575" xmlns="http://www.w3.org/2000/svg" version="1.1">
 <metadata>
  <rdf:RDF xmlns:dc="http://purl.org/dc/elements/1.1/" xmlns:cc="http://creativecommons.org/ns#" xmlns:rdf="http://www.w3.org/1999/02/22-rdf-syntax-ns#">
   <cc:Work>
    <dc:type rdf:resource="http://purl.org/dc/dcmitype/StillImage"/>
    <dc:date>2025-12-17T16:41:06.278375</dc:date>
    <dc:format>image/svg+xml</dc:format>
    <dc:creator>
     <cc:Agent>
      <dc:title>Matplotlib v3.7.1, https://matplotlib.org/</dc:title>
     </cc:Agent>
    </dc:creator>
   </cc:Work>
  </rdf:RDF>
 </metadata>
 <defs>
  <style type="text/css">*{stroke-linejoin: round; stroke-linecap: butt}</style>
 </defs>
 <g id="figure_1">
  <g id="patch_1">
   <path d="M 0 176.575 
L 237.46 176.575 
L 237.46 0 
L 0 0 
z
" style="fill: #ffffff"/>
  </g>
  <g id="axes_1">
   <g id="patch_2">
    <path d="M 28.38 151.02 
L 204.36 151.02 
L 204.36 3.6 
L 28.38 3.6 
z
" style="fill: #ffffff"/>
   </g>
   <g id="line2d_1">
    <path d="M 31.218387 151.02 
L 31.218387 3.6 
" clip-path="url(#p077ef21699)" style="fill: none; stroke-dasharray: 1.125,2.1; stroke-dashoffset: 0; stroke: #333333; stroke-opacity: 0.3; stroke-width: 0.75"/>
   </g>
   <g id="line2d_2">
    <path d="M 53.925484 151.02 
L 53.925484 3.6 
" clip-path="url(#p077ef21699)" style="fill: none; stroke-dasharray: 1.125,2.1; stroke-dashoffset: 0; stroke: #333333; stroke-opacity: 0.3; stroke-width: 0.75"/>
   </g>
   <g id="line2d_3">
    <path d="M 59.602258 151.02 
L 59.602258 3.6 
" clip-path="url(#p077ef21699)" style="fill: none; stroke-dasharray: 1.125,2.1; stroke-dashoffset: 0; stroke: #333333; stroke-opacity: 0.3; stroke-width: 0.75"/>
   </g>
   <g id="line2d_4">
    <path d="M 87.986129 151.02 
L 87.986129 3.6 
" clip-path="url(#p077ef21699)" style="fill: none; stroke-dasharray: 1.125,2.1; stroke-dashoffset: 0; stroke: #333333; stroke-opacity: 0.3; stroke-width: 0.75"/>
   </g>
   <g id="line2d_5">
    <path d="M 116.37 151.02 
L 116.37 3.6 
" clip-path="url(#p077ef21699)" style="fill: none; stroke-dasharray: 1.125,2.1; stroke-dashoffset: 0; stroke: #333333; stroke-opacity: 0.3; stroke-width: 0.75"/>
   </g>
   <g id="line2d_6">
    <path d="M 144.753871 151.02 
L 144.753871 3.6 
" clip-path="url(#p077ef21699)" style="fill: none; stroke-dasharray: 1.125,2.1; stroke-dashoffset: 0; stroke: #333333; stroke-opacity: 0.3; stroke-width: 0.75"/>
   </g>
   <g id="line2d_7">
    <path d="M 173.137742 151.02 
L 173.137742 3.6 
" clip-path="url(#p077ef21699)" style="fill: none; stroke-dasharray: 1.125,2.1; stroke-dashoffset: 0; stroke: #333333; stroke-opacity: 0.3; stroke-width: 0.75"/>
   </g>
   <g id="line2d_8">
    <path d="M 201.521613 151.02 
L 201.521613 3.6 
" clip-path="url(#p077ef21699)" style="fill: none; stroke-dasharray: 1.125,2.1; stroke-dashoffset: 0; stroke: #333333; stroke-opacity: 0.3; stroke-width: 0.75"/>
   </g>
   <g id="line2d_9">
    <path d="M 31.218387 106.94628 
L 32.938622 106.507923 
L 34.658856 106.03252 
L 36.379091 105.516644 
L 38.099326 104.956636 
L 39.81956 104.348604 
L 41.539795 103.688443 
L 43.260029 102.971851 
L 44.980264 102.19436 
L 46.700499 101.351368 
L 48.420733 100.438192 
L 50.140968 99.450125 
L 51.861202 98.38251 
L 53.581437 97.230833 
L 55.301672 95.990833 
L 57.021906 94.658626 
L 58.742141 93.230862 
L 60.462375 91.704897 
L 62.18261 90.078988 
L 63.902845 88.352517 
L 65.623079 86.526233 
L 67.343314 84.60251 
L 69.063548 82.585625 
L 70.783783 80.482032 
L 72.504018 78.300636 
L 74.224252 76.053049 
L 75.944487 73.753804 
L 77.664721 71.420517 
L 79.384956 69.073973 
L 81.105191 66.738111 
L 82.825425 64.439882 
L 84.54566 62.208974 
L 86.265894 60.077373 
L 87.986129 58.078761 
L 89.706364 56.247759 
L 91.426598 54.619015 
L 93.146833 53.226185 
L 94.867067 52.100832 
L 96.587302 51.271309 
L 98.307537 50.761679 
L 100.027771 50.590748 
L 101.748006 50.771269 
L 103.46824 51.309369 
L 105.188475 52.204257 
L 106.90871 53.448212 
L 108.628944 55.026871 
L 110.349179 56.919794 
L 112.069413 59.10126 
L 113.789648 61.541237 
L 115.509883 64.206478 
L 117.230117 67.061661 
L 118.950352 70.070506 
L 120.670587 73.196831 
L 122.390821 76.405485 
L 124.111056 79.663131 
L 125.83129 82.938871 
L 127.551525 86.204698 
L 129.27176 89.435779 
L 130.991994 92.610603 
L 132.712229 95.710989 
L 134.432463 98.721996 
L 136.152698 101.631747 
L 137.872933 104.431197 
L 139.593167 107.113865 
L 141.313402 109.67554 
L 143.033636 112.11399 
L 144.753871 114.428668 
L 146.474106 116.620441 
L 148.19434 118.69133 
L 149.914575 120.644284 
L 151.634809 122.482971 
L 153.355044 124.2116 
L 155.075279 125.834762 
L 156.795513 127.357302 
L 158.515748 128.784209 
L 160.235982 130.120524 
L 161.956217 131.371266 
L 163.676452 132.541378 
L 165.396686 133.635678 
L 167.116921 134.658829 
L 168.837155 135.615311 
L 170.55739 136.509406 
L 172.277625 137.345188 
L 173.997859 138.126516 
L 175.718094 138.857036 
L 177.438328 139.540177 
L 179.158563 140.179162 
L 180.878798 140.77701 
L 182.599032 141.336545 
L 184.319267 141.860405 
L 186.039501 142.35105 
L 187.759736 142.81077 
L 189.479971 143.241698 
L 191.200205 143.645818 
L 192.92044 144.024974 
L 194.640674 144.380876 
L 196.360909 144.715116 
L 198.081144 145.029168 
L 199.801378 145.324404 
L 201.521613 145.602093 
" clip-path="url(#p077ef21699)" style="fill: none; stroke-dasharray: 3.7,1.6; stroke-dashoffset: 0; stroke: #000000; stroke-opacity: 0.7"/>
   </g>
   <g id="matplotlib.axis_1">
    <g id="xtick_1">
     <g id="line2d_10">
      <defs>
       <path id="m5e6f34627b" d="M 0 0 
L 0 -3 
" style="stroke: #000000; stroke-width: 0.5"/>
      </defs>
      <g>
       <use xlink:href="#m5e6f34627b" x="31.218387" y="151.02" style="stroke: #000000; stroke-width: 0.5"/>
      </g>
     </g>
     <g id="line2d_11">
      <defs>
       <path id="mf1597da61e" d="M 0 0 
L 0 3 
" style="stroke: #000000; stroke-width: 0.5"/>
      </defs>
      <g>
       <use xlink:href="#mf1597da61e" x="31.218387" y="3.6" style="stroke: #000000; stroke-width: 0.5"/>
      </g>
     </g>
     <g id="text_1">
      <!-- 1.0 -->
      <g transform="translate(26.218387 160.005) scale(0.08 -0.08)">
       <defs>
        <path id="Times-Roman-31" d="M 1894 4294 
Q 1906 4278 1907 4270 
Q 1909 4263 1909 4234 
L 1909 472 
Q 1909 231 2037 165 
Q 2166 100 2516 88 
L 2516 0 
L 753 0 
L 753 94 
Q 1131 113 1247 197 
Q 1363 281 1363 563 
L 1363 3456 
Q 1363 3606 1325 3684 
Q 1288 3763 1163 3763 
Q 1081 3763 951 3717 
Q 822 3672 709 3622 
L 709 3709 
L 1856 4294 
L 1894 4294 
z
" transform="scale(0.015625)"/>
        <path id="Times-Roman-2e" d="M 1044 -75 
Q 894 -75 791 29 
Q 688 134 688 281 
Q 688 428 792 531 
Q 897 634 1044 634 
Q 1191 634 1294 531 
Q 1397 428 1397 281 
Q 1397 134 1295 29 
Q 1194 -75 1044 -75 
z
" transform="scale(0.015625)"/>
        <path id="Times-Roman-30" d="M 1531 116 
Q 1991 116 2162 619 
Q 2334 1122 2334 2075 
Q 2334 2834 2231 3288 
Q 2038 4131 1506 4131 
Q 975 4131 778 3263 
Q 675 2800 675 2044 
Q 675 1334 781 909 
Q 981 116 1531 116 
z
M 1522 4300 
Q 2241 4300 2638 3547 
Q 2953 2938 2953 2147 
Q 2953 1525 2759 975 
Q 2394 -59 1494 -59 
Q 878 -59 481 500 
Q 56 1097 56 2122 
Q 56 2928 341 3509 
Q 725 4300 1522 4300 
z
" transform="scale(0.015625)"/>
       </defs>
       <use xlink:href="#Times-Roman-31"/>
       <use xlink:href="#Times-Roman-2e" x="50"/>
       <use xlink:href="#Times-Roman-30" x="75"/>
      </g>
     </g>
    </g>
    <g id="xtick_2">
     <g id="line2d_12">
      <g>
       <use xlink:href="#m5e6f34627b" x="59.602258" y="151.02" style="stroke: #000000; stroke-width: 0.5"/>
      </g>
     </g>
     <g id="line2d_13">
      <g>
       <use xlink:href="#mf1597da61e" x="59.602258" y="3.6" style="stroke: #000000; stroke-width: 0.5"/>
      </g>
     </g>
     <g id="text_2">
      <!-- 1.5 -->
      <g transform="translate(54.602258 160.005) scale(0.08 -0.08)">
       <defs>
        <path id="Times-Roman-35" d="M 478 572 
Q 656 572 945 370 
Q 1234 169 1391 169 
Q 1750 169 2019 486 
Q 2288 803 2288 1266 
Q 2288 2075 1425 2431 
Q 947 2628 534 2628 
Q 466 2628 448 2633 
Q 431 2638 406 2666 
Q 413 2691 417 2708 
Q 422 2725 428 2741 
L 1109 4234 
L 2450 4234 
Q 2550 4234 2604 4268 
Q 2659 4303 2747 4397 
L 2797 4353 
L 2553 3775 
Q 2541 3747 2484 3739 
Q 2428 3731 2363 3731 
L 1153 3731 
L 888 3184 
Q 1400 3097 1638 3019 
Q 2028 2888 2291 2631 
Q 2516 2409 2631 2132 
Q 2747 1856 2747 1547 
Q 2747 856 2255 393 
Q 1763 -69 1009 -69 
Q 703 -69 516 -9 
Q 203 88 203 338 
Q 203 431 270 501 
Q 338 572 478 572 
z
" transform="scale(0.015625)"/>
       </defs>
       <use xlink:href="#Times-Roman-31"/>
       <use xlink:href="#Times-Roman-2e" x="50"/>
       <use xlink:href="#Times-Roman-35" x="75"/>
      </g>
     </g>
    </g>
    <g id="xtick_3">
     <g id="line2d_14">
      <g>
       <use xlink:href="#m5e6f34627b" x="87.986129" y="151.02" style="stroke: #000000; stroke-width: 0.5"/>
      </g>
     </g>
     <g id="line2d_15">
      <g>
       <use xlink:href="#mf1597da61e" x="87.986129" y="3.6" style="stroke: #000000; stroke-width: 0.5"/>
      </g>
     </g>
     <g id="text_3">
      <!-- 2.0 -->
      <g transform="translate(82.986129 160.005) scale(0.08 -0.08)">
       <defs>
        <path id="Times-Roman-32" d="M 191 72 
Q 1334 1259 1743 1815 
Q 2153 2372 2153 2900 
Q 2153 3363 1903 3605 
Q 1653 3847 1306 3847 
Q 878 3847 613 3534 
Q 466 3363 331 3006 
L 197 3034 
Q 353 3753 726 4033 
Q 1100 4313 1528 4313 
Q 2056 4313 2382 3980 
Q 2709 3647 2709 3166 
Q 2709 2653 2356 2178 
Q 2003 1703 822 488 
L 2256 488 
Q 2556 488 2678 559 
Q 2800 631 2953 909 
L 3034 872 
L 2688 0 
L 191 0 
L 191 72 
z
" transform="scale(0.015625)"/>
       </defs>
       <use xlink:href="#Times-Roman-32"/>
       <use xlink:href="#Times-Roman-2e" x="50"/>
       <use xlink:href="#Times-Roman-30" x="75"/>
      </g>
     </g>
    </g>
    <g id="xtick_4">
     <g id="line2d_16">
      <g>
       <use xlink:href="#m5e6f34627b" x="116.37" y="151.02" style="stroke: #000000; stroke-width: 0.5"/>
      </g>
     </g>
     <g id="line2d_17">
      <g>
       <use xlink:href="#mf1597da61e" x="116.37" y="3.6" style="stroke: #000000; stroke-width: 0.5"/>
      </g>
     </g>
     <g id="text_4">
      <!-- 2.5 -->
      <g transform="translate(111.37 160.005) scale(0.08 -0.08)">
       <use xlink:href="#Times-Roman-32"/>
       <use xlink:href="#Times-Roman-2e" x="50"/>
       <use xlink:href="#Times-Roman-35" x="75"/>
      </g>
     </g>
    </g>
    <g id="xtick_5">
     <g id="line2d_18">
      <g>
       <use xlink:href="#m5e6f34627b" x="144.753871" y="151.02" style="stroke: #000000; stroke-width: 0.5"/>
      </g>
     </g>
     <g id="line2d_19">
      <g>
       <use xlink:href="#mf1597da61e" x="144.753871" y="3.6" style="stroke: #000000; stroke-width: 0.5"/>
      </g>
     </g>
     <g id="text_5">
      <!-- 3.0 -->
      <g transform="translate(139.753871 160.005) scale(0.08 -0.08)">
       <defs>
        <path id="Times-Roman-33" d="M 497 544 
Q 669 544 951 366 
Q 1234 188 1431 188 
Q 1869 188 2081 483 
Q 2294 778 2294 1125 
Q 2294 1459 2122 1713 
Q 1831 2141 1141 2141 
Q 1100 2141 1062 2139 
Q 1025 2138 975 2131 
L 969 2213 
Q 1469 2394 1756 2628 
Q 2044 2863 2044 3247 
Q 2044 3588 1817 3766 
Q 1591 3944 1300 3944 
Q 956 3944 694 3691 
Q 550 3553 384 3266 
L 288 3288 
Q 413 3763 753 4047 
Q 1094 4331 1541 4331 
Q 2019 4331 2280 4068 
Q 2541 3806 2541 3463 
Q 2541 3159 2325 2906 
Q 2203 2763 1947 2584 
Q 2247 2456 2428 2284 
Q 2769 1956 2769 1453 
Q 2769 859 2301 406 
Q 1834 -47 972 -47 
Q 588 -47 433 67 
Q 278 181 278 313 
Q 278 394 329 469 
Q 381 544 497 544 
z
" transform="scale(0.015625)"/>
       </defs>
       <use xlink:href="#Times-Roman-33"/>
       <use xlink:href="#Times-Roman-2e" x="50"/>
       <use xlink:href="#Times-Roman-30" x="75"/>
      </g>
     </g>
    </g>
    <g id="xtick_6">
     <g id="line2d_20">
      <g>
       <use xlink:href="#m5e6f34627b" x="173.137742" y="151.02" style="stroke: #000000; stroke-width: 0.5"/>
      </g>
     </g>
     <g id="line2d_21">
      <g>
       <use xlink:href="#mf1597da61e" x="173.137742" y="3.6" style="stroke: #000000; stroke-width: 0.5"/>
      </g>
     </g>
     <g id="text_6">
      <!-- 3.5 -->
      <g transform="translate(168.137742 160.005) scale(0.08 -0.08)">
       <use xlink:href="#Times-Roman-33"/>
       <use xlink:href="#Times-Roman-2e" x="50"/>
       <use xlink:href="#Times-Roman-35" x="75"/>
      </g>
     </g>
    </g>
    <g id="xtick_7">
     <g id="line2d_22">
      <g>
       <use xlink:href="#m5e6f34627b" x="201.521613" y="151.02" style="stroke: #000000; stroke-width: 0.5"/>
      </g>
     </g>
     <g id="line2d_23">
      <g>
       <use xlink:href="#mf1597da61e" x="201.521613" y="3.6" style="stroke: #000000; stroke-width: 0.5"/>
      </g>
     </g>
     <g id="text_7">
      <!-- 4.0 -->
      <g transform="translate(196.521613 160.005) scale(0.08 -0.08)">
       <defs>
        <path id="Times-Roman-34" d="M 1866 3650 
L 331 1481 
L 1866 1481 
L 1866 3650 
z
M 2072 4294 
L 2369 4294 
L 2369 1481 
L 3022 1481 
L 3022 1066 
L 2369 1066 
L 2369 0 
L 1872 0 
L 1872 1066 
L 72 1066 
L 72 1481 
L 2072 4294 
z
" transform="scale(0.015625)"/>
       </defs>
       <use xlink:href="#Times-Roman-34"/>
       <use xlink:href="#Times-Roman-2e" x="50"/>
       <use xlink:href="#Times-Roman-30" x="75"/>
      </g>
     </g>
    </g>
    <g id="xtick_8">
     <g id="line2d_24">
      <defs>
       <path id="mcf98345e09" d="M 0 0 
L 0 -1.5 
" style="stroke: #000000; stroke-width: 0.5"/>
      </defs>
      <g>
       <use xlink:href="#mcf98345e09" x="36.895161" y="151.02" style="stroke: #000000; stroke-width: 0.5"/>
      </g>
     </g>
     <g id="line2d_25">
      <defs>
       <path id="m07fcdcd8c0" d="M 0 0 
L 0 1.5 
" style="stroke: #000000; stroke-width: 0.5"/>
      </defs>
      <g>
       <use xlink:href="#m07fcdcd8c0" x="36.895161" y="3.6" style="stroke: #000000; stroke-width: 0.5"/>
      </g>
     </g>
    </g>
    <g id="xtick_9">
     <g id="line2d_26">
      <g>
       <use xlink:href="#mcf98345e09" x="42.571935" y="151.02" style="stroke: #000000; stroke-width: 0.5"/>
      </g>
     </g>
     <g id="line2d_27">
      <g>
       <use xlink:href="#m07fcdcd8c0" x="42.571935" y="3.6" style="stroke: #000000; stroke-width: 0.5"/>
      </g>
     </g>
    </g>
    <g id="xtick_10">
     <g id="line2d_28">
      <g>
       <use xlink:href="#mcf98345e09" x="48.24871" y="151.02" style="stroke: #000000; stroke-width: 0.5"/>
      </g>
     </g>
     <g id="line2d_29">
      <g>
       <use xlink:href="#m07fcdcd8c0" x="48.24871" y="3.6" style="stroke: #000000; stroke-width: 0.5"/>
      </g>
     </g>
    </g>
    <g id="xtick_11">
     <g id="line2d_30">
      <g>
       <use xlink:href="#mcf98345e09" x="53.925484" y="151.02" style="stroke: #000000; stroke-width: 0.5"/>
      </g>
     </g>
     <g id="line2d_31">
      <g>
       <use xlink:href="#m07fcdcd8c0" x="53.925484" y="3.6" style="stroke: #000000; stroke-width: 0.5"/>
      </g>
     </g>
    </g>
    <g id="xtick_12">
     <g id="line2d_32">
      <g>
       <use xlink:href="#mcf98345e09" x="65.279032" y="151.02" style="stroke: #000000; stroke-width: 0.5"/>
      </g>
     </g>
     <g id="line2d_33">
      <g>
       <use xlink:href="#m07fcdcd8c0" x="65.279032" y="3.6" style="stroke: #000000; stroke-width: 0.5"/>
      </g>
     </g>
    </g>
    <g id="xtick_13">
     <g id="line2d_34">
      <g>
       <use xlink:href="#mcf98345e09" x="70.955806" y="151.02" style="stroke: #000000; stroke-width: 0.5"/>
      </g>
     </g>
     <g id="line2d_35">
      <g>
       <use xlink:href="#m07fcdcd8c0" x="70.955806" y="3.6" style="stroke: #000000; stroke-width: 0.5"/>
      </g>
     </g>
    </g>
    <g id="xtick_14">
     <g id="line2d_36">
      <g>
       <use xlink:href="#mcf98345e09" x="76.632581" y="151.02" style="stroke: #000000; stroke-width: 0.5"/>
      </g>
     </g>
     <g id="line2d_37">
      <g>
       <use xlink:href="#m07fcdcd8c0" x="76.632581" y="3.6" style="stroke: #000000; stroke-width: 0.5"/>
      </g>
     </g>
    </g>
    <g id="xtick_15">
     <g id="line2d_38">
      <g>
       <use xlink:href="#mcf98345e09" x="82.309355" y="151.02" style="stroke: #000000; stroke-width: 0.5"/>
      </g>
     </g>
     <g id="line2d_39">
      <g>
       <use xlink:href="#m07fcdcd8c0" x="82.309355" y="3.6" style="stroke: #000000; stroke-width: 0.5"/>
      </g>
     </g>
    </g>
    <g id="xtick_16">
     <g id="line2d_40">
      <g>
       <use xlink:href="#mcf98345e09" x="93.662903" y="151.02" style="stroke: #000000; stroke-width: 0.5"/>
      </g>
     </g>
     <g id="line2d_41">
      <g>
       <use xlink:href="#m07fcdcd8c0" x="93.662903" y="3.6" style="stroke: #000000; stroke-width: 0.5"/>
      </g>
     </g>
    </g>
    <g id="xtick_17">
     <g id="line2d_42">
      <g>
       <use xlink:href="#mcf98345e09" x="99.339677" y="151.02" style="stroke: #000000; stroke-width: 0.5"/>
      </g>
     </g>
     <g id="line2d_43">
      <g>
       <use xlink:href="#m07fcdcd8c0" x="99.339677" y="3.6" style="stroke: #000000; stroke-width: 0.5"/>
      </g>
     </g>
    </g>
    <g id="xtick_18">
     <g id="line2d_44">
      <g>
       <use xlink:href="#mcf98345e09" x="105.016452" y="151.02" style="stroke: #000000; stroke-width: 0.5"/>
      </g>
     </g>
     <g id="line2d_45">
      <g>
       <use xlink:href="#m07fcdcd8c0" x="105.016452" y="3.6" style="stroke: #000000; stroke-width: 0.5"/>
      </g>
     </g>
    </g>
    <g id="xtick_19">
     <g id="line2d_46">
      <g>
       <use xlink:href="#mcf98345e09" x="110.693226" y="151.02" style="stroke: #000000; stroke-width: 0.5"/>
      </g>
     </g>
     <g id="line2d_47">
      <g>
       <use xlink:href="#m07fcdcd8c0" x="110.693226" y="3.6" style="stroke: #000000; stroke-width: 0.5"/>
      </g>
     </g>
    </g>
    <g id="xtick_20">
     <g id="line2d_48">
      <g>
       <use xlink:href="#mcf98345e09" x="122.046774" y="151.02" style="stroke: #000000; stroke-width: 0.5"/>
      </g>
     </g>
     <g id="line2d_49">
      <g>
       <use xlink:href="#m07fcdcd8c0" x="122.046774" y="3.6" style="stroke: #000000; stroke-width: 0.5"/>
      </g>
     </g>
    </g>
    <g id="xtick_21">
     <g id="line2d_50">
      <g>
       <use xlink:href="#mcf98345e09" x="127.723548" y="151.02" style="stroke: #000000; stroke-width: 0.5"/>
      </g>
     </g>
     <g id="line2d_51">
      <g>
       <use xlink:href="#m07fcdcd8c0" x="127.723548" y="3.6" style="stroke: #000000; stroke-width: 0.5"/>
      </g>
     </g>
    </g>
    <g id="xtick_22">
     <g id="line2d_52">
      <g>
       <use xlink:href="#mcf98345e09" x="133.400323" y="151.02" style="stroke: #000000; stroke-width: 0.5"/>
      </g>
     </g>
     <g id="line2d_53">
      <g>
       <use xlink:href="#m07fcdcd8c0" x="133.400323" y="3.6" style="stroke: #000000; stroke-width: 0.5"/>
      </g>
     </g>
    </g>
    <g id="xtick_23">
     <g id="line2d_54">
      <g>
       <use xlink:href="#mcf98345e09" x="139.077097" y="151.02" style="stroke: #000000; stroke-width: 0.5"/>
      </g>
     </g>
     <g id="line2d_55">
      <g>
       <use xlink:href="#m07fcdcd8c0" x="139.077097" y="3.6" style="stroke: #000000; stroke-width: 0.5"/>
      </g>
     </g>
    </g>
    <g id="xtick_24">
     <g id="line2d_56">
      <g>
       <use xlink:href="#mcf98345e09" x="150.430645" y="151.02" style="stroke: #000000; stroke-width: 0.5"/>
      </g>
     </g>
     <g id="line2d_57">
      <g>
       <use xlink:href="#m07fcdcd8c0" x="150.430645" y="3.6" style="stroke: #000000; stroke-width: 0.5"/>
      </g>
     </g>
    </g>
    <g id="xtick_25">
     <g id="line2d_58">
      <g>
       <use xlink:href="#mcf98345e09" x="156.107419" y="151.02" style="stroke: #000000; stroke-width: 0.5"/>
      </g>
     </g>
     <g id="line2d_59">
      <g>
       <use xlink:href="#m07fcdcd8c0" x="156.107419" y="3.6" style="stroke: #000000; stroke-width: 0.5"/>
      </g>
     </g>
    </g>
    <g id="xtick_26">
     <g id="line2d_60">
      <g>
       <use xlink:href="#mcf98345e09" x="161.784194" y="151.02" style="stroke: #000000; stroke-width: 0.5"/>
      </g>
     </g>
     <g id="line2d_61">
      <g>
       <use xlink:href="#m07fcdcd8c0" x="161.784194" y="3.6" style="stroke: #000000; stroke-width: 0.5"/>
      </g>
     </g>
    </g>
    <g id="xtick_27">
     <g id="line2d_62">
      <g>
       <use xlink:href="#mcf98345e09" x="167.460968" y="151.02" style="stroke: #000000; stroke-width: 0.5"/>
      </g>
     </g>
     <g id="line2d_63">
      <g>
       <use xlink:href="#m07fcdcd8c0" x="167.460968" y="3.6" style="stroke: #000000; stroke-width: 0.5"/>
      </g>
     </g>
    </g>
    <g id="xtick_28">
     <g id="line2d_64">
      <g>
       <use xlink:href="#mcf98345e09" x="178.814516" y="151.02" style="stroke: #000000; stroke-width: 0.5"/>
      </g>
     </g>
     <g id="line2d_65">
      <g>
       <use xlink:href="#m07fcdcd8c0" x="178.814516" y="3.6" style="stroke: #000000; stroke-width: 0.5"/>
      </g>
     </g>
    </g>
    <g id="xtick_29">
     <g id="line2d_66">
      <g>
       <use xlink:href="#mcf98345e09" x="184.49129" y="151.02" style="stroke: #000000; stroke-width: 0.5"/>
      </g>
     </g>
     <g id="line2d_67">
      <g>
       <use xlink:href="#m07fcdcd8c0" x="184.49129" y="3.6" style="stroke: #000000; stroke-width: 0.5"/>
      </g>
     </g>
    </g>
    <g id="xtick_30">
     <g id="line2d_68">
      <g>
       <use xlink:href="#mcf98345e09" x="190.168065" y="151.02" style="stroke: #000000; stroke-width: 0.5"/>
      </g>
     </g>
     <g id="line2d_69">
      <g>
       <use xlink:href="#m07fcdcd8c0" x="190.168065" y="3.6" style="stroke: #000000; stroke-width: 0.5"/>
      </g>
     </g>
    </g>
    <g id="xtick_31">
     <g id="line2d_70">
      <g>
       <use xlink:href="#mcf98345e09" x="195.844839" y="151.02" style="stroke: #000000; stroke-width: 0.5"/>
      </g>
     </g>
     <g id="line2d_71">
      <g>
       <use xlink:href="#m07fcdcd8c0" x="195.844839" y="3.6" style="stroke: #000000; stroke-width: 0.5"/>
      </g>
     </g>
    </g>
    <g id="text_8">
     <!-- Transverse Field $g$ -->
     <g transform="translate(86.69 171.2325) scale(0.08 -0.08)">
      <defs>
       <path id="Times-Roman-54" d="M 125 4234 
L 3741 4234 
L 3775 3147 
L 3622 3147 
Q 3509 3659 3336 3814 
Q 3163 3969 2606 3969 
L 2250 3969 
L 2250 694 
Q 2250 322 2365 233 
Q 2481 144 2872 116 
L 2872 0 
L 1006 0 
L 1006 116 
Q 1413 147 1513 250 
Q 1613 353 1613 769 
L 1613 3969 
L 1256 3969 
Q 725 3969 533 3816 
Q 341 3663 244 3147 
L 88 3147 
L 125 4234 
z
" transform="scale(0.015625)"/>
       <path id="Times-Roman-72" d="M 28 103 
Q 316 128 409 204 
Q 503 281 503 531 
L 503 1941 
Q 503 2250 445 2383 
Q 388 2516 234 2516 
Q 203 2516 151 2508 
Q 100 2500 44 2488 
L 44 2591 
Q 222 2653 409 2718 
Q 597 2784 669 2813 
Q 825 2872 991 2947 
Q 1013 2947 1017 2931 
Q 1022 2916 1022 2866 
L 1022 2353 
Q 1222 2631 1408 2787 
Q 1594 2944 1794 2944 
Q 1953 2944 2053 2848 
Q 2153 2753 2153 2609 
Q 2153 2481 2076 2393 
Q 2000 2306 1884 2306 
Q 1766 2306 1645 2415 
Q 1525 2525 1456 2525 
Q 1347 2525 1187 2348 
Q 1028 2172 1028 1984 
L 1028 575 
Q 1028 306 1153 201 
Q 1278 97 1569 103 
L 1569 0 
L 28 0 
L 28 103 
z
" transform="scale(0.015625)"/>
       <path id="Times-Roman-61" d="M 1834 1731 
Q 1475 1613 1241 1469 
Q 791 1191 791 838 
Q 791 553 978 419 
Q 1100 331 1250 331 
Q 1456 331 1645 447 
Q 1834 563 1834 741 
L 1834 1731 
z
M 234 622 
Q 234 1075 688 1378 
Q 975 1566 1834 1888 
L 1834 2153 
Q 1834 2472 1772 2597 
Q 1666 2806 1331 2806 
Q 1172 2806 1028 2725 
Q 884 2641 884 2494 
Q 884 2456 900 2367 
Q 916 2278 916 2253 
Q 916 2078 800 2009 
Q 734 1969 644 1969 
Q 503 1969 428 2061 
Q 353 2153 353 2266 
Q 353 2484 623 2723 
Q 894 2963 1416 2963 
Q 2022 2963 2238 2569 
Q 2353 2353 2353 1941 
L 2353 688 
Q 2353 506 2378 438 
Q 2419 316 2547 316 
Q 2619 316 2666 337 
Q 2713 359 2828 444 
L 2828 281 
Q 2728 159 2613 81 
Q 2438 -38 2256 -38 
Q 2044 -38 1948 100 
Q 1853 238 1844 428 
Q 1606 222 1438 122 
Q 1153 -47 897 -47 
Q 628 -47 431 142 
Q 234 331 234 622 
z
M 1425 2963 
L 1425 2963 
z
" transform="scale(0.015625)"/>
       <path id="Times-Roman-6e" d="M 116 88 
Q 338 116 427 198 
Q 516 281 516 569 
L 516 2153 
Q 516 2353 478 2434 
Q 419 2553 234 2553 
Q 206 2553 176 2550 
Q 147 2547 103 2541 
L 103 2650 
Q 231 2688 709 2844 
L 1003 2941 
Q 1025 2941 1029 2925 
Q 1034 2909 1034 2881 
L 1034 2422 
Q 1322 2691 1484 2791 
Q 1728 2944 1991 2944 
Q 2203 2944 2378 2822 
Q 2716 2584 2716 1975 
L 2716 516 
Q 2716 291 2806 191 
Q 2897 91 3109 88 
L 3109 0 
L 1775 0 
L 1775 88 
Q 2003 119 2093 214 
Q 2184 309 2184 628 
L 2184 1963 
Q 2184 2231 2084 2407 
Q 1984 2584 1716 2584 
Q 1531 2584 1341 2459 
Q 1234 2388 1066 2222 
L 1066 472 
Q 1066 247 1166 170 
Q 1266 94 1481 88 
L 1481 0 
L 116 0 
L 116 88 
z
M 1603 2944 
L 1603 2944 
z
" transform="scale(0.015625)"/>
       <path id="Times-Roman-73" d="M 331 984 
L 434 984 
Q 506 628 628 438 
Q 847 88 1269 88 
Q 1503 88 1639 217 
Q 1775 347 1775 553 
Q 1775 684 1697 806 
Q 1619 928 1422 1044 
L 1072 1244 
Q 688 1450 506 1659 
Q 325 1869 325 2153 
Q 325 2503 575 2728 
Q 825 2953 1203 2953 
Q 1369 2953 1567 2890 
Q 1766 2828 1791 2828 
Q 1847 2828 1872 2843 
Q 1897 2859 1916 2894 
L 1991 2894 
L 2013 2022 
L 1916 2022 
Q 1853 2325 1747 2494 
Q 1553 2806 1188 2806 
Q 969 2806 844 2672 
Q 719 2538 719 2356 
Q 719 2069 1150 1844 
L 1563 1622 
Q 2228 1259 2228 778 
Q 2228 409 1951 175 
Q 1675 -59 1228 -59 
Q 1041 -59 803 3 
Q 566 66 522 66 
Q 484 66 456 39 
Q 428 13 413 -25 
L 331 -25 
L 331 984 
z
M 1247 2953 
L 1247 2953 
z
" transform="scale(0.015625)"/>
       <path id="Times-Roman-76" d="M 1375 2903 
L 1375 2806 
Q 1213 2788 1145 2756 
Q 1078 2725 1078 2619 
Q 1078 2569 1092 2523 
Q 1106 2478 1141 2391 
L 1791 775 
L 2353 2206 
Q 2394 2309 2430 2421 
Q 2466 2534 2466 2594 
Q 2466 2716 2350 2769 
Q 2281 2797 2163 2806 
L 2163 2903 
L 3050 2903 
L 3050 2806 
Q 2897 2794 2830 2705 
Q 2763 2616 2634 2294 
L 1731 44 
Q 1706 -16 1690 -37 
Q 1675 -59 1647 -59 
Q 1616 -59 1594 -23 
Q 1572 13 1547 66 
L 591 2353 
Q 475 2631 344 2731 
Q 266 2788 116 2806 
L 116 2903 
L 1375 2903 
z
" transform="scale(0.015625)"/>
       <path id="Times-Roman-65" d="M 1466 2931 
Q 1906 2931 2237 2626 
Q 2569 2322 2569 1763 
L 584 1763 
Q 616 1038 912 706 
Q 1209 375 1616 375 
Q 1944 375 2169 547 
Q 2394 719 2584 1034 
L 2694 997 
Q 2566 600 2214 262 
Q 1863 -75 1353 -75 
Q 766 -75 445 369 
Q 125 813 125 1391 
Q 125 2019 497 2475 
Q 869 2931 1466 2931 
z
M 1284 2703 
Q 928 2703 741 2388 
Q 641 2219 597 1963 
L 1916 1963 
Q 1881 2275 1797 2428 
Q 1644 2703 1284 2703 
z
M 1425 2931 
L 1425 2931 
z
" transform="scale(0.015625)"/>
       <path id="Times-Roman-20" transform="scale(0.015625)"/>
       <path id="Times-Roman-46" d="M 72 116 
Q 450 156 542 254 
Q 634 353 634 769 
L 634 3541 
Q 634 3881 531 3986 
Q 428 4091 72 4116 
L 72 4234 
L 3481 4234 
L 3503 3316 
L 3325 3316 
Q 3259 3756 3078 3873 
Q 2897 3991 2363 3991 
L 1488 3991 
Q 1359 3991 1323 3947 
Q 1288 3903 1288 3775 
L 1288 2347 
L 2213 2347 
Q 2622 2347 2734 2469 
Q 2847 2591 2916 2963 
L 3066 2963 
L 3066 1481 
L 2916 1481 
Q 2844 1853 2731 1973 
Q 2619 2094 2213 2094 
L 1288 2094 
L 1288 694 
Q 1288 341 1395 242 
Q 1503 144 1866 116 
L 1866 0 
L 72 0 
L 72 116 
z
" transform="scale(0.015625)"/>
       <path id="Times-Roman-69" d="M 525 4034 
Q 525 4169 619 4266 
Q 713 4363 850 4363 
Q 984 4363 1079 4267 
Q 1175 4172 1175 4034 
Q 1175 3900 1079 3804 
Q 984 3709 850 3709 
Q 713 3709 619 3804 
Q 525 3900 525 4034 
z
M 125 88 
Q 459 119 546 201 
Q 634 284 634 650 
L 634 2141 
Q 634 2344 606 2422 
Q 559 2550 409 2550 
Q 375 2550 342 2544 
Q 309 2538 153 2494 
L 153 2591 
L 288 2634 
Q 834 2813 1050 2903 
Q 1138 2941 1163 2941 
Q 1169 2919 1169 2894 
L 1169 650 
Q 1169 294 1255 203 
Q 1341 113 1644 88 
L 1644 0 
L 125 0 
L 125 88 
z
" transform="scale(0.015625)"/>
       <path id="Times-Roman-6c" d="M 131 88 
Q 422 116 525 205 
Q 628 294 628 553 
L 628 3606 
Q 628 3813 594 3891 
Q 531 4022 341 4022 
Q 297 4022 245 4012 
Q 194 4003 116 3984 
L 116 4088 
Q 538 4200 1131 4388 
Q 1153 4388 1158 4369 
Q 1163 4350 1163 4288 
L 1163 541 
Q 1163 269 1256 189 
Q 1350 109 1644 88 
L 1644 0 
L 131 0 
L 131 88 
z
" transform="scale(0.015625)"/>
       <path id="Times-Roman-64" d="M 1516 2953 
Q 1744 2953 1934 2853 
Q 2059 2788 2175 2672 
L 2175 3666 
Q 2175 3856 2133 3928 
Q 2091 4000 1931 4000 
Q 1894 4000 1866 3997 
Q 1838 3994 1741 3984 
L 1741 4088 
L 1997 4153 
Q 2138 4191 2278 4231 
Q 2419 4272 2525 4309 
Q 2575 4325 2691 4369 
L 2709 4363 
L 2703 4034 
Q 2700 3856 2697 3667 
Q 2694 3478 2694 3294 
L 2688 741 
Q 2688 538 2738 456 
Q 2788 375 3003 375 
Q 3038 375 3072 376 
Q 3106 378 3141 384 
L 3141 281 
Q 3122 275 2688 125 
L 2197 -59 
L 2175 -31 
L 2175 353 
Q 2000 163 1872 81 
Q 1644 -59 1344 -59 
Q 813 -59 483 352 
Q 153 763 153 1303 
Q 153 1981 548 2467 
Q 944 2953 1516 2953 
z
M 1631 278 
Q 1875 278 2025 422 
Q 2175 566 2175 694 
L 2175 2034 
Q 2175 2441 1958 2608 
Q 1741 2775 1534 2775 
Q 1141 2775 922 2426 
Q 703 2078 703 1569 
Q 703 1066 936 672 
Q 1169 278 1631 278 
z
" transform="scale(0.015625)"/>
       <path id="Cmmi10-67" d="M 91 -916 
Q 91 -759 198 -642 
Q 306 -525 459 -525 
Q 563 -525 633 -589 
Q 703 -653 703 -756 
Q 703 -872 637 -964 
Q 572 -1056 469 -1094 
Q 641 -1147 1006 -1147 
Q 1300 -1147 1544 -920 
Q 1788 -694 1863 -397 
L 2047 353 
Q 1700 0 1325 0 
Q 1050 0 854 140 
Q 659 281 556 515 
Q 453 750 453 1013 
Q 453 1306 573 1628 
Q 694 1950 911 2225 
Q 1128 2500 1409 2664 
Q 1691 2828 2003 2828 
Q 2191 2828 2341 2725 
Q 2491 2622 2578 2450 
Q 2641 2700 2853 2700 
Q 2934 2700 2990 2651 
Q 3047 2603 3047 2522 
Q 3047 2503 3045 2493 
Q 3044 2484 3041 2472 
L 2309 -434 
Q 2259 -634 2125 -800 
Q 1991 -966 1809 -1077 
Q 1628 -1188 1412 -1250 
Q 1197 -1313 997 -1313 
Q 631 -1313 361 -1242 
Q 91 -1172 91 -916 
z
M 1338 166 
Q 1747 166 2144 728 
L 2497 2125 
Q 2453 2347 2322 2505 
Q 2191 2663 1991 2663 
Q 1778 2663 1589 2489 
Q 1400 2316 1275 2075 
Q 1156 1844 1045 1411 
Q 934 978 934 728 
Q 934 509 1034 337 
Q 1134 166 1338 166 
z
" transform="scale(0.015625)"/>
      </defs>
      <use xlink:href="#Times-Roman-54" transform="translate(0 0.4375)"/>
      <use xlink:href="#Times-Roman-72" transform="translate(61.083984 0.4375)"/>
      <use xlink:href="#Times-Roman-61" transform="translate(94.384766 0.4375)"/>
      <use xlink:href="#Times-Roman-6e" transform="translate(138.769531 0.4375)"/>
      <use xlink:href="#Times-Roman-73" transform="translate(188.769531 0.4375)"/>
      <use xlink:href="#Times-Roman-76" transform="translate(227.685547 0.4375)"/>
      <use xlink:href="#Times-Roman-65" transform="translate(277.685547 0.4375)"/>
      <use xlink:href="#Times-Roman-72" transform="translate(322.070312 0.4375)"/>
      <use xlink:href="#Times-Roman-73" transform="translate(355.371094 0.4375)"/>
      <use xlink:href="#Times-Roman-65" transform="translate(394.287109 0.4375)"/>
      <use xlink:href="#Times-Roman-20" transform="translate(438.671875 0.4375)"/>
      <use xlink:href="#Times-Roman-46" transform="translate(463.671875 0.4375)"/>
      <use xlink:href="#Times-Roman-69" transform="translate(519.287109 0.4375)"/>
      <use xlink:href="#Times-Roman-65" transform="translate(547.070312 0.4375)"/>
      <use xlink:href="#Times-Roman-6c" transform="translate(591.455078 0.4375)"/>
      <use xlink:href="#Times-Roman-64" transform="translate(619.238281 0.4375)"/>
      <use xlink:href="#Times-Roman-20" transform="translate(669.238281 0.4375)"/>
      <use xlink:href="#Cmmi10-67" transform="translate(694.238281 0.4375)"/>
     </g>
    </g>
   </g>
   <g id="matplotlib.axis_2">
    <g id="ytick_1">
     <g id="line2d_72">
      <defs>
       <path id="m06bafb66c4" d="M 0 0 
L 3 0 
" style="stroke: #000000; stroke-width: 0.5"/>
      </defs>
      <g>
       <use xlink:href="#m06bafb66c4" x="28.38" y="151.02" style="stroke: #000000; stroke-width: 0.5"/>
      </g>
     </g>
     <g id="text_9">
      <!-- 0.0 -->
      <g transform="translate(14.88 153.7625) scale(0.08 -0.08)">
       <use xlink:href="#Times-Roman-30"/>
       <use xlink:href="#Times-Roman-2e" x="50"/>
       <use xlink:href="#Times-Roman-30" x="75"/>
      </g>
     </g>
    </g>
    <g id="ytick_2">
     <g id="line2d_73">
      <g>
       <use xlink:href="#m06bafb66c4" x="28.38" y="123.204906" style="stroke: #000000; stroke-width: 0.5"/>
      </g>
     </g>
     <g id="text_10">
      <!-- 0.1 -->
      <g transform="translate(14.88 125.947406) scale(0.08 -0.08)">
       <use xlink:href="#Times-Roman-30"/>
       <use xlink:href="#Times-Roman-2e" x="50"/>
       <use xlink:href="#Times-Roman-31" x="75"/>
      </g>
     </g>
    </g>
    <g id="ytick_3">
     <g id="line2d_74">
      <g>
       <use xlink:href="#m06bafb66c4" x="28.38" y="95.389811" style="stroke: #000000; stroke-width: 0.5"/>
      </g>
     </g>
     <g id="text_11">
      <!-- 0.2 -->
      <g transform="translate(14.88 98.132311) scale(0.08 -0.08)">
       <use xlink:href="#Times-Roman-30"/>
       <use xlink:href="#Times-Roman-2e" x="50"/>
       <use xlink:href="#Times-Roman-32" x="75"/>
      </g>
     </g>
    </g>
    <g id="ytick_4">
     <g id="line2d_75">
      <g>
       <use xlink:href="#m06bafb66c4" x="28.38" y="67.574717" style="stroke: #000000; stroke-width: 0.5"/>
      </g>
     </g>
     <g id="text_12">
      <!-- 0.3 -->
      <g transform="translate(14.88 70.317217) scale(0.08 -0.08)">
       <use xlink:href="#Times-Roman-30"/>
       <use xlink:href="#Times-Roman-2e" x="50"/>
       <use xlink:href="#Times-Roman-33" x="75"/>
      </g>
     </g>
    </g>
    <g id="ytick_5">
     <g id="line2d_76">
      <g>
       <use xlink:href="#m06bafb66c4" x="28.38" y="39.759623" style="stroke: #000000; stroke-width: 0.5"/>
      </g>
     </g>
     <g id="text_13">
      <!-- 0.4 -->
      <g transform="translate(14.88 42.502123) scale(0.08 -0.08)">
       <use xlink:href="#Times-Roman-30"/>
       <use xlink:href="#Times-Roman-2e" x="50"/>
       <use xlink:href="#Times-Roman-34" x="75"/>
      </g>
     </g>
    </g>
    <g id="ytick_6">
     <g id="line2d_77">
      <g>
       <use xlink:href="#m06bafb66c4" x="28.38" y="11.944528" style="stroke: #000000; stroke-width: 0.5"/>
      </g>
     </g>
     <g id="text_14">
      <!-- 0.5 -->
      <g transform="translate(14.88 14.687028) scale(0.08 -0.08)">
       <use xlink:href="#Times-Roman-30"/>
       <use xlink:href="#Times-Roman-2e" x="50"/>
       <use xlink:href="#Times-Roman-35" x="75"/>
      </g>
     </g>
    </g>
    <g id="ytick_7">
     <g id="line2d_78">
      <defs>
       <path id="m88024938a0" d="M 0 0 
L 1.5 0 
" style="stroke: #000000; stroke-width: 0.5"/>
      </defs>
      <g>
       <use xlink:href="#m88024938a0" x="28.38" y="145.456981" style="stroke: #000000; stroke-width: 0.5"/>
      </g>
     </g>
    </g>
    <g id="ytick_8">
     <g id="line2d_79">
      <g>
       <use xlink:href="#m88024938a0" x="28.38" y="139.893962" style="stroke: #000000; stroke-width: 0.5"/>
      </g>
     </g>
    </g>
    <g id="ytick_9">
     <g id="line2d_80">
      <g>
       <use xlink:href="#m88024938a0" x="28.38" y="134.330943" style="stroke: #000000; stroke-width: 0.5"/>
      </g>
     </g>
    </g>
    <g id="ytick_10">
     <g id="line2d_81">
      <g>
       <use xlink:href="#m88024938a0" x="28.38" y="128.767925" style="stroke: #000000; stroke-width: 0.5"/>
      </g>
     </g>
    </g>
    <g id="ytick_11">
     <g id="line2d_82">
      <g>
       <use xlink:href="#m88024938a0" x="28.38" y="117.641887" style="stroke: #000000; stroke-width: 0.5"/>
      </g>
     </g>
    </g>
    <g id="ytick_12">
     <g id="line2d_83">
      <g>
       <use xlink:href="#m88024938a0" x="28.38" y="112.078868" style="stroke: #000000; stroke-width: 0.5"/>
      </g>
     </g>
    </g>
    <g id="ytick_13">
     <g id="line2d_84">
      <g>
       <use xlink:href="#m88024938a0" x="28.38" y="106.515849" style="stroke: #000000; stroke-width: 0.5"/>
      </g>
     </g>
    </g>
    <g id="ytick_14">
     <g id="line2d_85">
      <g>
       <use xlink:href="#m88024938a0" x="28.38" y="100.95283" style="stroke: #000000; stroke-width: 0.5"/>
      </g>
     </g>
    </g>
    <g id="ytick_15">
     <g id="line2d_86">
      <g>
       <use xlink:href="#m88024938a0" x="28.38" y="89.826792" style="stroke: #000000; stroke-width: 0.5"/>
      </g>
     </g>
    </g>
    <g id="ytick_16">
     <g id="line2d_87">
      <g>
       <use xlink:href="#m88024938a0" x="28.38" y="84.263774" style="stroke: #000000; stroke-width: 0.5"/>
      </g>
     </g>
    </g>
    <g id="ytick_17">
     <g id="line2d_88">
      <g>
       <use xlink:href="#m88024938a0" x="28.38" y="78.700755" style="stroke: #000000; stroke-width: 0.5"/>
      </g>
     </g>
    </g>
    <g id="ytick_18">
     <g id="line2d_89">
      <g>
       <use xlink:href="#m88024938a0" x="28.38" y="73.137736" style="stroke: #000000; stroke-width: 0.5"/>
      </g>
     </g>
    </g>
    <g id="ytick_19">
     <g id="line2d_90">
      <g>
       <use xlink:href="#m88024938a0" x="28.38" y="62.011698" style="stroke: #000000; stroke-width: 0.5"/>
      </g>
     </g>
    </g>
    <g id="ytick_20">
     <g id="line2d_91">
      <g>
       <use xlink:href="#m88024938a0" x="28.38" y="56.448679" style="stroke: #000000; stroke-width: 0.5"/>
      </g>
     </g>
    </g>
    <g id="ytick_21">
     <g id="line2d_92">
      <g>
       <use xlink:href="#m88024938a0" x="28.38" y="50.88566" style="stroke: #000000; stroke-width: 0.5"/>
      </g>
     </g>
    </g>
    <g id="ytick_22">
     <g id="line2d_93">
      <g>
       <use xlink:href="#m88024938a0" x="28.38" y="45.322642" style="stroke: #000000; stroke-width: 0.5"/>
      </g>
     </g>
    </g>
    <g id="ytick_23">
     <g id="line2d_94">
      <g>
       <use xlink:href="#m88024938a0" x="28.38" y="34.196604" style="stroke: #000000; stroke-width: 0.5"/>
      </g>
     </g>
    </g>
    <g id="ytick_24">
     <g id="line2d_95">
      <g>
       <use xlink:href="#m88024938a0" x="28.38" y="28.633585" style="stroke: #000000; stroke-width: 0.5"/>
      </g>
     </g>
    </g>
    <g id="ytick_25">
     <g id="line2d_96">
      <g>
       <use xlink:href="#m88024938a0" x="28.38" y="23.070566" style="stroke: #000000; stroke-width: 0.5"/>
      </g>
     </g>
    </g>
    <g id="ytick_26">
     <g id="line2d_97">
      <g>
       <use xlink:href="#m88024938a0" x="28.38" y="17.507547" style="stroke: #000000; stroke-width: 0.5"/>
      </g>
     </g>
    </g>
    <g id="ytick_27">
     <g id="line2d_98">
      <g>
       <use xlink:href="#m88024938a0" x="28.38" y="6.381509" style="stroke: #000000; stroke-width: 0.5"/>
      </g>
     </g>
    </g>
    <g id="text_15">
     <!-- Fidelity Susceptibility $\chi_\mathrm{F}$ -->
     <g transform="translate(9.12 118.35) rotate(-90) scale(0.08 -0.08)">
      <defs>
       <path id="Times-Roman-74" d="M 1628 2881 
L 1628 2656 
L 991 2656 
L 984 856 
Q 984 619 1025 497 
Q 1100 281 1319 281 
Q 1431 281 1514 334 
Q 1597 388 1703 503 
L 1784 434 
L 1716 341 
Q 1553 122 1372 31 
Q 1191 -59 1022 -59 
Q 653 -59 522 269 
Q 450 447 450 763 
L 450 2656 
L 109 2656 
Q 94 2666 86 2675 
Q 78 2684 78 2700 
Q 78 2731 92 2748 
Q 106 2766 181 2828 
Q 397 3006 492 3117 
Q 588 3228 941 3703 
Q 981 3703 989 3697 
Q 997 3691 997 3650 
L 997 2881 
L 1628 2881 
z
" transform="scale(0.015625)"/>
       <path id="Times-Roman-79" d="M 88 2872 
L 1406 2872 
L 1406 2775 
Q 1250 2772 1175 2747 
Q 1031 2706 1031 2588 
Q 1031 2544 1047 2498 
Q 1063 2453 1103 2363 
L 1834 741 
L 2422 2375 
Q 2431 2400 2451 2487 
Q 2472 2575 2472 2606 
Q 2472 2688 2415 2725 
Q 2359 2763 2272 2769 
L 2175 2775 
L 2175 2872 
L 3034 2872 
L 3034 2775 
Q 2906 2759 2842 2687 
Q 2778 2616 2731 2488 
L 1747 -119 
Q 1491 -794 1256 -1097 
Q 1022 -1400 663 -1400 
Q 488 -1400 334 -1312 
Q 181 -1225 181 -1034 
Q 181 -909 273 -829 
Q 366 -750 506 -750 
Q 588 -750 748 -809 
Q 909 -869 978 -869 
Q 1153 -869 1347 -462 
Q 1541 -56 1541 81 
Q 1541 109 1531 150 
Q 1522 191 1509 222 
L 509 2384 
Q 403 2616 323 2689 
Q 244 2763 88 2784 
L 88 2872 
z
M 1575 2931 
L 1575 2931 
z
" transform="scale(0.015625)"/>
       <path id="Times-Roman-53" d="M 413 1288 
Q 575 856 794 600 
Q 1175 153 1741 153 
Q 2047 153 2270 347 
Q 2494 541 2494 888 
Q 2494 1200 2269 1431 
Q 2122 1578 1650 1872 
L 1103 2213 
Q 856 2369 709 2528 
Q 438 2831 438 3197 
Q 438 3681 759 4003 
Q 1081 4325 1613 4325 
Q 1831 4325 2139 4217 
Q 2447 4109 2491 4109 
Q 2609 4109 2654 4165 
Q 2700 4222 2725 4325 
L 2856 4325 
L 2997 2963 
L 2844 2963 
Q 2688 3578 2342 3822 
Q 1997 4066 1659 4066 
Q 1397 4066 1201 3911 
Q 1006 3756 1006 3481 
Q 1006 3234 1156 3059 
Q 1306 2881 1622 2688 
L 2184 2341 
Q 2713 2016 2928 1744 
Q 3141 1469 3141 1094 
Q 3141 591 2761 253 
Q 2381 -84 1791 -84 
Q 1494 -84 1170 28 
Q 847 141 800 141 
Q 688 141 648 72 
Q 609 3 597 -75 
L 456 -75 
L 266 1288 
L 413 1288 
z
M 1781 4325 
L 1781 4325 
z
" transform="scale(0.015625)"/>
       <path id="Times-Roman-75" d="M 991 2894 
L 991 894 
Q 991 681 1050 553 
Q 1166 316 1475 316 
Q 1688 316 1891 456 
Q 2006 534 2125 672 
L 2125 2384 
Q 2125 2625 2031 2700 
Q 1938 2775 1656 2791 
L 1656 2894 
L 2666 2894 
L 2666 694 
Q 2666 481 2742 401 
Q 2819 322 3066 331 
L 3066 244 
Q 2894 197 2812 173 
Q 2731 150 2541 88 
Q 2459 59 2184 -47 
Q 2169 -47 2166 -33 
Q 2163 -19 2163 0 
L 2163 503 
Q 1950 250 1775 128 
Q 1509 -59 1213 -59 
Q 941 -59 700 134 
Q 456 325 456 775 
L 456 2397 
Q 456 2647 350 2731 
Q 281 2784 56 2806 
L 56 2894 
L 991 2894 
z
M 1603 2931 
L 1603 2931 
z
" transform="scale(0.015625)"/>
       <path id="Times-Roman-63" d="M 1591 2947 
Q 1981 2947 2264 2745 
Q 2547 2544 2547 2303 
Q 2547 2200 2475 2111 
Q 2403 2022 2253 2022 
Q 2144 2022 2061 2097 
Q 1978 2172 1941 2316 
L 1903 2466 
Q 1863 2631 1763 2700 
Q 1659 2766 1491 2766 
Q 1134 2766 889 2455 
Q 644 2144 644 1628 
Q 644 1156 914 781 
Q 1184 406 1644 406 
Q 1969 406 2222 619 
Q 2366 741 2547 1006 
L 2634 953 
Q 2456 578 2259 359 
Q 1881 -59 1384 -59 
Q 897 -59 522 325 
Q 147 709 147 1369 
Q 147 2016 556 2481 
Q 966 2947 1591 2947 
z
M 1453 2947 
L 1453 2947 
z
" transform="scale(0.015625)"/>
       <path id="Times-Roman-70" d="M 1022 575 
Q 1103 363 1264 258 
Q 1425 153 1644 153 
Q 1981 153 2220 489 
Q 2459 825 2459 1425 
Q 2459 2000 2211 2284 
Q 1963 2569 1634 2569 
Q 1403 2569 1212 2426 
Q 1022 2284 1022 2147 
L 1022 575 
z
M 28 -1291 
Q 322 -1272 401 -1165 
Q 481 -1059 481 -831 
L 481 2169 
Q 481 2406 423 2473 
Q 366 2541 206 2541 
Q 172 2541 142 2537 
Q 113 2534 56 2525 
L 56 2628 
L 353 2725 
Q 369 2728 981 2941 
Q 997 2941 1005 2927 
Q 1013 2913 1013 2894 
L 1013 2472 
Q 1219 2678 1375 2778 
Q 1656 2953 1953 2953 
Q 2384 2953 2695 2586 
Q 3006 2219 3006 1581 
Q 3006 956 2632 446 
Q 2259 -63 1694 -63 
Q 1519 -63 1391 -19 
Q 1191 47 1022 222 
L 1022 -800 
Q 1022 -1116 1125 -1187 
Q 1228 -1259 1575 -1284 
L 1575 -1394 
L 28 -1394 
L 28 -1291 
z
" transform="scale(0.015625)"/>
       <path id="Times-Roman-62" d="M 22 3975 
L 22 4081 
Q 378 4163 662 4263 
Q 947 4363 969 4363 
Q 975 4344 975 4325 
L 975 2422 
Q 1056 2572 1219 2706 
Q 1506 2941 1881 2941 
Q 2341 2941 2666 2553 
Q 2991 2166 2991 1547 
Q 2991 884 2569 412 
Q 2147 -59 1459 -59 
Q 1113 -59 778 78 
Q 444 216 444 353 
L 444 3656 
Q 444 3838 394 3914 
Q 344 3991 163 3991 
L 22 3975 
z
M 963 456 
Q 991 294 1206 223 
Q 1422 153 1584 153 
Q 2022 153 2233 481 
Q 2444 809 2444 1275 
Q 2444 1741 2247 2136 
Q 2050 2531 1609 2531 
Q 1388 2531 1175 2395 
Q 963 2259 963 2050 
L 963 456 
z
" transform="scale(0.015625)"/>
       <path id="Cmmi10-c2" d="M 275 -1241 
Q 244 -1241 214 -1214 
Q 184 -1188 184 -1159 
Q 184 -1116 213 -1094 
L 1778 647 
Q 1672 1034 1539 1454 
Q 1406 1875 1220 2269 
Q 1034 2663 891 2663 
Q 766 2663 694 2594 
Q 622 2525 567 2423 
Q 513 2322 494 2316 
L 416 2316 
Q 397 2316 381 2337 
Q 366 2359 366 2381 
Q 366 2484 455 2589 
Q 544 2694 673 2761 
Q 803 2828 916 2828 
Q 1169 2828 1375 2737 
Q 1581 2647 1684 2444 
Q 1775 2250 1859 2026 
Q 1944 1803 2020 1550 
Q 2097 1297 2163 1069 
L 3647 2719 
Q 3678 2759 3725 2759 
Q 3763 2759 3789 2736 
Q 3816 2713 3816 2675 
Q 3816 2634 3788 2613 
L 2222 872 
Q 2297 588 2447 114 
Q 2597 -359 2780 -753 
Q 2963 -1147 3109 -1147 
Q 3228 -1147 3303 -1076 
Q 3378 -1006 3434 -906 
Q 3491 -806 3506 -800 
L 3584 -800 
Q 3634 -800 3634 -863 
Q 3634 -1022 3445 -1167 
Q 3256 -1313 3084 -1313 
Q 2834 -1313 2628 -1222 
Q 2422 -1131 2322 -928 
Q 2084 -422 1838 447 
L 353 -1203 
Q 322 -1241 275 -1241 
z
" transform="scale(0.015625)"/>
       <path id="Cmr10-46" d="M 197 0 
L 197 225 
Q 856 225 856 428 
L 856 3944 
Q 856 4147 197 4147 
L 197 4372 
L 3725 4372 
L 3903 2906 
L 3719 2906 
Q 3675 3309 3601 3542 
Q 3528 3775 3387 3908 
Q 3247 4041 3011 4094 
Q 2775 4147 2363 4147 
L 1778 4147 
Q 1663 4147 1598 4137 
Q 1534 4128 1493 4083 
Q 1453 4038 1453 3944 
L 1453 2297 
L 1906 2297 
Q 2234 2297 2387 2355 
Q 2541 2413 2598 2566 
Q 2656 2719 2656 3047 
L 2841 3047 
L 2841 1325 
L 2656 1325 
Q 2656 1653 2598 1806 
Q 2541 1959 2387 2017 
Q 2234 2075 1906 2075 
L 1453 2075 
L 1453 428 
Q 1453 225 2272 225 
L 2272 0 
L 197 0 
z
" transform="scale(0.015625)"/>
      </defs>
      <use xlink:href="#Times-Roman-46" transform="translate(0 0.4375)"/>
      <use xlink:href="#Times-Roman-69" transform="translate(55.615234 0.4375)"/>
      <use xlink:href="#Times-Roman-64" transform="translate(83.398438 0.4375)"/>
      <use xlink:href="#Times-Roman-65" transform="translate(133.398438 0.4375)"/>
      <use xlink:href="#Times-Roman-6c" transform="translate(177.783203 0.4375)"/>
      <use xlink:href="#Times-Roman-69" transform="translate(205.566406 0.4375)"/>
      <use xlink:href="#Times-Roman-74" transform="translate(233.349609 0.4375)"/>
      <use xlink:href="#Times-Roman-79" transform="translate(261.132812 0.4375)"/>
      <use xlink:href="#Times-Roman-20" transform="translate(311.132812 0.4375)"/>
      <use xlink:href="#Times-Roman-53" transform="translate(336.132812 0.4375)"/>
      <use xlink:href="#Times-Roman-75" transform="translate(391.748047 0.4375)"/>
      <use xlink:href="#Times-Roman-73" transform="translate(441.748047 0.4375)"/>
      <use xlink:href="#Times-Roman-63" transform="translate(480.664062 0.4375)"/>
      <use xlink:href="#Times-Roman-65" transform="translate(525.048828 0.4375)"/>
      <use xlink:href="#Times-Roman-70" transform="translate(569.433594 0.4375)"/>
      <use xlink:href="#Times-Roman-74" transform="translate(619.433594 0.4375)"/>
      <use xlink:href="#Times-Roman-69" transform="translate(647.216797 0.4375)"/>
      <use xlink:href="#Times-Roman-62" transform="translate(675 0.4375)"/>
      <use xlink:href="#Times-Roman-69" transform="translate(725 0.4375)"/>
      <use xlink:href="#Times-Roman-6c" transform="translate(752.783203 0.4375)"/>
      <use xlink:href="#Times-Roman-69" transform="translate(780.566406 0.4375)"/>
      <use xlink:href="#Times-Roman-74" transform="translate(808.349609 0.4375)"/>
      <use xlink:href="#Times-Roman-79" transform="translate(836.132812 0.4375)"/>
      <use xlink:href="#Times-Roman-20" transform="translate(886.132812 0.4375)"/>
      <use xlink:href="#Cmmi10-c2" transform="translate(911.132812 0.4375)"/>
      <use xlink:href="#Cmr10-46" transform="translate(973.632812 -16.56875) scale(0.7)"/>
     </g>
    </g>
   </g>
   <g id="line2d_99">
    <defs>
     <path id="m935601a7c4" d="M -0 2.333452 
L 2.333452 0 
L -0 -2.333452 
L -2.333452 0 
z
" style="stroke: #de8f05; stroke-width: 1.2; stroke-linejoin: miter"/>
    </defs>
    <g clip-path="url(#p077ef21699)">
     <use xlink:href="#m935601a7c4" x="31.218387" y="120.468025" style="fill: #ffffff; stroke: #de8f05; stroke-width: 1.2; stroke-linejoin: miter"/>
     <use xlink:href="#m935601a7c4" x="34.693963" y="117.425184" style="fill: #ffffff; stroke: #de8f05; stroke-width: 1.2; stroke-linejoin: miter"/>
     <use xlink:href="#m935601a7c4" x="38.169539" y="114.194173" style="fill: #ffffff; stroke: #de8f05; stroke-width: 1.2; stroke-linejoin: miter"/>
     <use xlink:href="#m935601a7c4" x="41.645115" y="111.220655" style="fill: #ffffff; stroke: #de8f05; stroke-width: 1.2; stroke-linejoin: miter"/>
     <use xlink:href="#m935601a7c4" x="45.120691" y="107.390579" style="fill: #ffffff; stroke: #de8f05; stroke-width: 1.2; stroke-linejoin: miter"/>
     <use xlink:href="#m935601a7c4" x="48.596267" y="104.016134" style="fill: #ffffff; stroke: #de8f05; stroke-width: 1.2; stroke-linejoin: miter"/>
     <use xlink:href="#m935601a7c4" x="52.071843" y="99.631085" style="fill: #ffffff; stroke: #de8f05; stroke-width: 1.2; stroke-linejoin: miter"/>
     <use xlink:href="#m935601a7c4" x="55.547419" y="95.002971" style="fill: #ffffff; stroke: #de8f05; stroke-width: 1.2; stroke-linejoin: miter"/>
     <use xlink:href="#m935601a7c4" x="59.022995" y="90.713894" style="fill: #ffffff; stroke: #de8f05; stroke-width: 1.2; stroke-linejoin: miter"/>
     <use xlink:href="#m935601a7c4" x="62.498571" y="86.269165" style="fill: #ffffff; stroke: #de8f05; stroke-width: 1.2; stroke-linejoin: miter"/>
     <use xlink:href="#m935601a7c4" x="65.974147" y="81.679796" style="fill: #ffffff; stroke: #de8f05; stroke-width: 1.2; stroke-linejoin: miter"/>
     <use xlink:href="#m935601a7c4" x="69.449724" y="76.710065" style="fill: #ffffff; stroke: #de8f05; stroke-width: 1.2; stroke-linejoin: miter"/>
     <use xlink:href="#m935601a7c4" x="72.9253" y="71.673877" style="fill: #ffffff; stroke: #de8f05; stroke-width: 1.2; stroke-linejoin: miter"/>
     <use xlink:href="#m935601a7c4" x="76.400876" y="67.272692" style="fill: #ffffff; stroke: #de8f05; stroke-width: 1.2; stroke-linejoin: miter"/>
     <use xlink:href="#m935601a7c4" x="79.876452" y="62.612642" style="fill: #ffffff; stroke: #de8f05; stroke-width: 1.2; stroke-linejoin: miter"/>
     <use xlink:href="#m935601a7c4" x="83.352028" y="58.132086" style="fill: #ffffff; stroke: #de8f05; stroke-width: 1.2; stroke-linejoin: miter"/>
     <use xlink:href="#m935601a7c4" x="86.827604" y="55.171956" style="fill: #ffffff; stroke: #de8f05; stroke-width: 1.2; stroke-linejoin: miter"/>
     <use xlink:href="#m935601a7c4" x="90.30318" y="52.755015" style="fill: #ffffff; stroke: #de8f05; stroke-width: 1.2; stroke-linejoin: miter"/>
     <use xlink:href="#m935601a7c4" x="93.778756" y="51.765931" style="fill: #ffffff; stroke: #de8f05; stroke-width: 1.2; stroke-linejoin: miter"/>
     <use xlink:href="#m935601a7c4" x="97.254332" y="50.576995" style="fill: #ffffff; stroke: #de8f05; stroke-width: 1.2; stroke-linejoin: miter"/>
     <use xlink:href="#m935601a7c4" x="100.729908" y="51.476436" style="fill: #ffffff; stroke: #de8f05; stroke-width: 1.2; stroke-linejoin: miter"/>
     <use xlink:href="#m935601a7c4" x="104.205484" y="53.173546" style="fill: #ffffff; stroke: #de8f05; stroke-width: 1.2; stroke-linejoin: miter"/>
     <use xlink:href="#m935601a7c4" x="107.68106" y="55.259021" style="fill: #ffffff; stroke: #de8f05; stroke-width: 1.2; stroke-linejoin: miter"/>
     <use xlink:href="#m935601a7c4" x="111.156636" y="59.123084" style="fill: #ffffff; stroke: #de8f05; stroke-width: 1.2; stroke-linejoin: miter"/>
     <use xlink:href="#m935601a7c4" x="114.632212" y="63.747597" style="fill: #ffffff; stroke: #de8f05; stroke-width: 1.2; stroke-linejoin: miter"/>
     <use xlink:href="#m935601a7c4" x="118.107788" y="69.040943" style="fill: #ffffff; stroke: #de8f05; stroke-width: 1.2; stroke-linejoin: miter"/>
     <use xlink:href="#m935601a7c4" x="121.583364" y="74.885279" style="fill: #ffffff; stroke: #de8f05; stroke-width: 1.2; stroke-linejoin: miter"/>
     <use xlink:href="#m935601a7c4" x="125.05894" y="80.696946" style="fill: #ffffff; stroke: #de8f05; stroke-width: 1.2; stroke-linejoin: miter"/>
     <use xlink:href="#m935601a7c4" x="128.534516" y="86.751451" style="fill: #ffffff; stroke: #de8f05; stroke-width: 1.2; stroke-linejoin: miter"/>
     <use xlink:href="#m935601a7c4" x="132.010092" y="92.73297" style="fill: #ffffff; stroke: #de8f05; stroke-width: 1.2; stroke-linejoin: miter"/>
     <use xlink:href="#m935601a7c4" x="135.485668" y="98.467664" style="fill: #ffffff; stroke: #de8f05; stroke-width: 1.2; stroke-linejoin: miter"/>
     <use xlink:href="#m935601a7c4" x="138.961244" y="103.91743" style="fill: #ffffff; stroke: #de8f05; stroke-width: 1.2; stroke-linejoin: miter"/>
     <use xlink:href="#m935601a7c4" x="142.43682" y="109.215862" style="fill: #ffffff; stroke: #de8f05; stroke-width: 1.2; stroke-linejoin: miter"/>
     <use xlink:href="#m935601a7c4" x="145.912396" y="113.977443" style="fill: #ffffff; stroke: #de8f05; stroke-width: 1.2; stroke-linejoin: miter"/>
     <use xlink:href="#m935601a7c4" x="149.387972" y="118.333393" style="fill: #ffffff; stroke: #de8f05; stroke-width: 1.2; stroke-linejoin: miter"/>
     <use xlink:href="#m935601a7c4" x="152.863548" y="122.292249" style="fill: #ffffff; stroke: #de8f05; stroke-width: 1.2; stroke-linejoin: miter"/>
     <use xlink:href="#m935601a7c4" x="156.339124" y="125.894205" style="fill: #ffffff; stroke: #de8f05; stroke-width: 1.2; stroke-linejoin: miter"/>
     <use xlink:href="#m935601a7c4" x="159.8147" y="129.138723" style="fill: #ffffff; stroke: #de8f05; stroke-width: 1.2; stroke-linejoin: miter"/>
     <use xlink:href="#m935601a7c4" x="163.290276" y="131.965718" style="fill: #ffffff; stroke: #de8f05; stroke-width: 1.2; stroke-linejoin: miter"/>
     <use xlink:href="#m935601a7c4" x="166.765853" y="134.468525" style="fill: #ffffff; stroke: #de8f05; stroke-width: 1.2; stroke-linejoin: miter"/>
     <use xlink:href="#m935601a7c4" x="170.241429" y="136.588838" style="fill: #ffffff; stroke: #de8f05; stroke-width: 1.2; stroke-linejoin: miter"/>
     <use xlink:href="#m935601a7c4" x="173.717005" y="138.418139" style="fill: #ffffff; stroke: #de8f05; stroke-width: 1.2; stroke-linejoin: miter"/>
     <use xlink:href="#m935601a7c4" x="177.192581" y="140.098467" style="fill: #ffffff; stroke: #de8f05; stroke-width: 1.2; stroke-linejoin: miter"/>
     <use xlink:href="#m935601a7c4" x="180.668157" y="141.53832" style="fill: #ffffff; stroke: #de8f05; stroke-width: 1.2; stroke-linejoin: miter"/>
     <use xlink:href="#m935601a7c4" x="184.143733" y="142.794186" style="fill: #ffffff; stroke: #de8f05; stroke-width: 1.2; stroke-linejoin: miter"/>
     <use xlink:href="#m935601a7c4" x="187.619309" y="143.875542" style="fill: #ffffff; stroke: #de8f05; stroke-width: 1.2; stroke-linejoin: miter"/>
     <use xlink:href="#m935601a7c4" x="191.094885" y="144.819214" style="fill: #ffffff; stroke: #de8f05; stroke-width: 1.2; stroke-linejoin: miter"/>
     <use xlink:href="#m935601a7c4" x="194.570461" y="145.605698" style="fill: #ffffff; stroke: #de8f05; stroke-width: 1.2; stroke-linejoin: miter"/>
     <use xlink:href="#m935601a7c4" x="198.046037" y="146.292512" style="fill: #ffffff; stroke: #de8f05; stroke-width: 1.2; stroke-linejoin: miter"/>
     <use xlink:href="#m935601a7c4" x="201.521613" y="146.868155" style="fill: #ffffff; stroke: #de8f05; stroke-width: 1.2; stroke-linejoin: miter"/>
    </g>
   </g>
   <g id="patch_3">
    <path d="M 28.38 151.02 
L 28.38 3.6 
" style="fill: none; stroke: #000000; stroke-width: 0.5; stroke-linejoin: miter; stroke-linecap: square"/>
   </g>
   <g id="patch_4">
    <path d="M 204.36 151.02 
L 204.36 3.6 
" style="fill: none; stroke: #000000; stroke-width: 0.5; stroke-linejoin: miter; stroke-linecap: square"/>
   </g>
   <g id="patch_5">
    <path d="M 28.38 151.02 
L 204.36 151.02 
" style="fill: none; stroke: #000000; stroke-width: 0.5; stroke-linejoin: miter; stroke-linecap: square"/>
   </g>
   <g id="patch_6">
    <path d="M 28.38 3.6 
L 204.36 3.6 
" style="fill: none; stroke: #000000; stroke-width: 0.5; stroke-linejoin: miter; stroke-linecap: square"/>
   </g>
   <g id="legend_1">
    <g id="line2d_100">
     <path d="M 115.8 25.29285 
L 123.8 25.29285 
L 131.8 25.29285 
" style="fill: none; stroke: #0173b2; stroke-linecap: square"/>
     <defs>
      <path id="m39703595a8" d="M 0 2.5 
C 0.663008 2.5 1.29895 2.236584 1.767767 1.767767 
C 2.236584 1.29895 2.5 0.663008 2.5 0 
C 2.5 -0.663008 2.236584 -1.29895 1.767767 -1.767767 
C 1.29895 -2.236584 0.663008 -2.5 0 -2.5 
C -0.663008 -2.5 -1.29895 -2.236584 -1.767767 -1.767767 
C -2.236584 -1.29895 -2.5 -0.663008 -2.5 0 
C -2.5 0.663008 -2.236584 1.29895 -1.767767 1.767767 
C -1.29895 2.236584 -0.663008 2.5 0 2.5 
z
"/>
     </defs>
     <g>
      <use xlink:href="#m39703595a8" x="123.8" y="25.29285" style="fill: #0173b2"/>
     </g>
    </g>
    <g id="text_16">
     <!-- Overlap (Support) -->
     <g transform="translate(138.2 28.09285) scale(0.08 -0.08)">
      <defs>
       <path id="Times-Roman-4f" d="M 916 2116 
Q 916 1106 1312 623 
Q 1709 141 2288 141 
Q 2853 141 3254 611 
Q 3656 1081 3656 2116 
Q 3656 3163 3250 3628 
Q 2844 4094 2288 4094 
Q 1713 4094 1314 3611 
Q 916 3128 916 2116 
z
M 191 2116 
Q 191 3141 834 3759 
Q 1425 4325 2288 4325 
Q 3153 4325 3744 3756 
Q 4384 3141 4384 2116 
Q 4384 1075 3722 459 
Q 3128 -91 2288 -91 
Q 1388 -91 794 519 
Q 191 1141 191 2116 
z
M 2288 4325 
L 2288 4325 
z
" transform="scale(0.015625)"/>
       <path id="Times-Roman-28" d="M 294 1606 
Q 294 2694 944 3516 
Q 1344 4019 1888 4325 
L 1947 4222 
Q 1444 3822 1228 3444 
Q 850 2784 850 1688 
Q 850 875 994 347 
Q 1247 -578 1947 -1038 
L 1866 -1141 
Q 1481 -956 1034 -419 
Q 294 472 294 1606 
z
" transform="scale(0.015625)"/>
       <path id="Times-Roman-6f" d="M 163 1450 
Q 163 2072 558 2501 
Q 953 2931 1575 2931 
Q 2194 2931 2600 2525 
Q 3006 2119 3006 1444 
Q 3006 822 2612 362 
Q 2219 -97 1594 -97 
Q 994 -97 578 343 
Q 163 784 163 1450 
z
M 1488 2744 
Q 1241 2744 1059 2581 
Q 747 2297 747 1600 
Q 747 1044 998 562 
Q 1250 81 1697 81 
Q 2047 81 2236 403 
Q 2425 725 2425 1247 
Q 2425 1788 2184 2266 
Q 1944 2744 1488 2744 
z
M 1603 2931 
L 1603 2931 
z
" transform="scale(0.015625)"/>
       <path id="Times-Roman-29" d="M 1822 1575 
Q 1822 1109 1700 693 
Q 1578 278 1344 -91 
Q 1097 -484 684 -825 
Q 413 -1050 228 -1141 
L 169 -1038 
Q 650 -672 872 -291 
Q 1266 384 1266 1494 
Q 1266 2391 1084 2959 
Q 831 3763 169 4222 
L 250 4325 
Q 744 4050 1169 3494 
Q 1822 2638 1822 1575 
z
" transform="scale(0.015625)"/>
      </defs>
      <use xlink:href="#Times-Roman-4f"/>
      <use xlink:href="#Times-Roman-76" x="72.216797"/>
      <use xlink:href="#Times-Roman-65" x="122.216797"/>
      <use xlink:href="#Times-Roman-72" x="166.601562"/>
      <use xlink:href="#Times-Roman-6c" x="199.902344"/>
      <use xlink:href="#Times-Roman-61" x="227.685547"/>
      <use xlink:href="#Times-Roman-70" x="272.070312"/>
      <use xlink:href="#Times-Roman-20" x="322.070312"/>
      <use xlink:href="#Times-Roman-28" x="347.070312"/>
      <use xlink:href="#Times-Roman-53" x="380.371094"/>
      <use xlink:href="#Times-Roman-75" x="435.986328"/>
      <use xlink:href="#Times-Roman-70" x="485.986328"/>
      <use xlink:href="#Times-Roman-70" x="535.986328"/>
      <use xlink:href="#Times-Roman-6f" x="585.986328"/>
      <use xlink:href="#Times-Roman-72" x="635.986328"/>
      <use xlink:href="#Times-Roman-74" x="669.287109"/>
      <use xlink:href="#Times-Roman-29" x="697.070312"/>
     </g>
    </g>
    <g id="line2d_101">
     <path d="M 115.8 36.63535 
L 123.8 36.63535 
L 131.8 36.63535 
" style="fill: none; stroke-dasharray: 3.7,1.6; stroke-dashoffset: 0; stroke: #000000; stroke-opacity: 0.7"/>
    </g>
    <g id="text_17">
     <!-- $\chi_\mathrm{F}$ ED Reference -->
     <g transform="translate(138.2 39.43535) scale(0.08 -0.08)">
      <defs>
       <path id="Times-Roman-45" d="M 72 116 
Q 425 153 529 242 
Q 634 331 634 694 
L 634 3541 
Q 634 3881 531 3986 
Q 428 4091 72 4116 
L 72 4234 
L 3472 4234 
L 3494 3316 
L 3331 3316 
Q 3250 3741 3087 3866 
Q 2925 3991 2363 3991 
L 1494 3991 
Q 1353 3991 1320 3945 
Q 1288 3900 1288 3775 
L 1288 2347 
L 2272 2347 
Q 2681 2347 2793 2469 
Q 2906 2591 2975 2963 
L 3125 2963 
L 3125 1481 
L 2975 1481 
Q 2903 1853 2790 1973 
Q 2678 2094 2272 2094 
L 1288 2094 
L 1288 509 
Q 1288 319 1408 284 
Q 1528 250 2128 250 
Q 2778 250 3087 392 
Q 3397 534 3644 1081 
L 3822 1081 
L 3531 0 
L 72 0 
L 72 116 
z
M 1959 4234 
L 1959 4234 
z
" transform="scale(0.015625)"/>
       <path id="Times-Roman-44" d="M 1316 494 
Q 1316 338 1392 288 
Q 1469 238 1709 238 
Q 2459 238 2944 534 
Q 3688 991 3688 2094 
Q 3688 3078 3075 3575 
Q 2550 4000 1684 4000 
Q 1469 4000 1392 3953 
Q 1316 3906 1316 3747 
L 1316 494 
z
M 103 116 
Q 453 153 559 242 
Q 666 331 666 694 
L 666 3541 
Q 666 3891 562 3991 
Q 459 4091 103 4116 
L 103 4234 
L 1828 4234 
Q 2700 4234 3303 3947 
Q 4391 3431 4391 2103 
Q 4391 1625 4195 1194 
Q 4000 763 3606 466 
Q 3356 278 3088 181 
Q 2597 0 1881 0 
L 103 0 
L 103 116 
z
" transform="scale(0.015625)"/>
       <path id="Times-Roman-52" d="M 1272 2191 
Q 1963 2216 2259 2334 
Q 2769 2544 2769 3122 
Q 2769 3678 2313 3881 
Q 2069 3991 1666 3991 
Q 1394 3991 1333 3952 
Q 1272 3913 1272 3769 
L 1272 2191 
z
M 72 116 
Q 441 150 531 259 
Q 622 369 622 769 
L 622 3541 
Q 622 3878 520 3983 
Q 419 4088 72 4116 
L 72 4234 
L 1844 4234 
Q 2397 4234 2766 4094 
Q 3466 3828 3466 3116 
Q 3466 2638 3155 2381 
Q 2844 2125 2309 2044 
L 3628 422 
Q 3750 272 3872 203 
Q 3994 134 4184 116 
L 4184 0 
L 3153 0 
L 1628 1969 
L 1272 1953 
L 1272 694 
Q 1272 338 1380 242 
Q 1488 147 1850 116 
L 1850 0 
L 72 0 
L 72 116 
z
" transform="scale(0.015625)"/>
       <path id="Times-Roman-66" d="M 125 88 
Q 456 103 561 211 
Q 666 319 666 666 
L 666 2672 
L 131 2672 
L 131 2881 
L 666 2881 
Q 666 3375 800 3716 
Q 1056 4369 1741 4369 
Q 2016 4369 2233 4259 
Q 2450 4150 2450 3966 
Q 2450 3863 2375 3781 
Q 2300 3700 2194 3700 
Q 2103 3700 2037 3754 
Q 1972 3809 1881 3947 
L 1828 4028 
Q 1784 4094 1725 4139 
Q 1666 4184 1559 4184 
Q 1322 4184 1238 3950 
Q 1191 3825 1191 3622 
L 1191 2881 
L 1975 2881 
L 1975 2672 
L 1197 2672 
L 1197 666 
Q 1197 313 1292 214 
Q 1388 116 1791 88 
L 1791 0 
L 125 0 
L 125 88 
z
" transform="scale(0.015625)"/>
      </defs>
      <use xlink:href="#Cmmi10-c2" transform="translate(0 0.734375)"/>
      <use xlink:href="#Cmr10-46" transform="translate(62.5 -16.271875) scale(0.7)"/>
      <use xlink:href="#Times-Roman-20" transform="translate(114.507227 0.734375)"/>
      <use xlink:href="#Times-Roman-45" transform="translate(139.507227 0.734375)"/>
      <use xlink:href="#Times-Roman-44" transform="translate(200.591211 0.734375)"/>
      <use xlink:href="#Times-Roman-20" transform="translate(272.808008 0.734375)"/>
      <use xlink:href="#Times-Roman-52" transform="translate(297.808008 0.734375)"/>
      <use xlink:href="#Times-Roman-65" transform="translate(364.507227 0.734375)"/>
      <use xlink:href="#Times-Roman-66" transform="translate(408.891992 0.734375)"/>
      <use xlink:href="#Times-Roman-65" transform="translate(442.192773 0.734375)"/>
      <use xlink:href="#Times-Roman-72" transform="translate(486.577539 0.734375)"/>
      <use xlink:href="#Times-Roman-65" transform="translate(519.87832 0.734375)"/>
      <use xlink:href="#Times-Roman-6e" transform="translate(564.263086 0.734375)"/>
      <use xlink:href="#Times-Roman-63" transform="translate(614.263086 0.734375)"/>
      <use xlink:href="#Times-Roman-65" transform="translate(658.647852 0.734375)"/>
     </g>
    </g>
    <g id="line2d_102">
     <g>
      <use xlink:href="#m935601a7c4" x="123.8" y="47.97785" style="fill: #ffffff; stroke: #de8f05; stroke-width: 1.2; stroke-linejoin: miter"/>
     </g>
    </g>
    <g id="text_18">
     <!-- $\chi_\mathrm{F}$ RBM Estimate -->
     <g transform="translate(138.2 50.77785) scale(0.08 -0.08)">
      <defs>
       <path id="Times-Roman-42" d="M 1903 231 
Q 2394 231 2725 422 
Q 3056 613 3056 1153 
Q 3056 1691 2668 1887 
Q 2281 2084 1681 2084 
Q 1534 2084 1495 2084 
Q 1456 2084 1375 2088 
L 1375 494 
Q 1375 328 1469 279 
Q 1563 231 1903 231 
z
M 109 116 
Q 497 138 611 236 
Q 725 334 725 694 
L 725 3541 
Q 725 3894 611 3995 
Q 497 4097 109 4116 
L 109 4234 
L 1903 4234 
Q 2672 4234 3123 3987 
Q 3575 3741 3575 3138 
Q 3575 2684 3259 2450 
Q 3081 2316 2725 2228 
Q 3166 2122 3478 1873 
Q 3791 1625 3791 1178 
Q 3791 428 3097 147 
Q 2731 0 2197 0 
L 109 0 
L 109 116 
z
M 1984 2341 
Q 2306 2347 2519 2444 
Q 2925 2631 2925 3116 
Q 2925 3688 2456 3888 
Q 2197 3997 1669 3997 
Q 1469 3997 1422 3962 
Q 1375 3928 1375 3775 
L 1375 2331 
L 1984 2341 
z
" transform="scale(0.015625)"/>
       <path id="Times-Roman-4d" d="M 72 116 
Q 469 156 581 295 
Q 694 434 694 941 
L 694 3541 
Q 694 3888 584 3992 
Q 475 4097 88 4116 
L 88 4234 
L 1353 4234 
L 2834 1006 
L 4250 4234 
L 5525 4234 
L 5525 4116 
Q 5169 4091 5066 3986 
Q 4963 3881 4963 3541 
L 4963 694 
Q 4963 344 5066 245 
Q 5169 147 5525 116 
L 5525 0 
L 3731 0 
L 3731 116 
Q 4119 147 4214 255 
Q 4309 363 4309 769 
L 4309 3644 
L 2672 0 
L 2584 0 
L 975 3494 
L 975 941 
Q 975 416 1128 256 
Q 1228 153 1575 116 
L 1575 0 
L 72 0 
L 72 116 
z
" transform="scale(0.015625)"/>
       <path id="Times-Roman-6d" d="M 103 81 
Q 347 103 428 163 
Q 553 253 553 525 
L 553 2141 
Q 553 2372 492 2444 
Q 431 2516 291 2516 
Q 225 2516 192 2509 
Q 159 2503 116 2488 
L 116 2597 
L 341 2672 
Q 463 2713 741 2819 
Q 1019 2925 1034 2925 
Q 1050 2925 1053 2909 
Q 1056 2894 1056 2850 
L 1056 2428 
Q 1366 2709 1591 2817 
Q 1816 2925 2053 2925 
Q 2375 2925 2566 2706 
Q 2666 2588 2731 2384 
Q 2963 2619 3134 2731 
Q 3431 2925 3741 2925 
Q 4244 2925 4413 2516 
Q 4509 2284 4509 1784 
L 4509 488 
Q 4509 266 4607 186 
Q 4706 106 4963 81 
L 4963 0 
L 3553 0 
L 3553 88 
Q 3825 113 3911 197 
Q 3997 281 3997 541 
L 3997 1888 
Q 3997 2191 3931 2334 
Q 3816 2591 3478 2591 
Q 3275 2591 3075 2456 
Q 2959 2378 2791 2206 
L 2791 606 
Q 2791 353 2880 222 
Q 2969 91 3256 81 
L 3256 0 
L 1822 0 
L 1822 81 
Q 2119 119 2200 225 
Q 2281 331 2281 747 
L 2281 1622 
Q 2281 2103 2219 2284 
Q 2116 2591 1781 2591 
Q 1591 2591 1406 2486 
Q 1222 2381 1081 2213 
L 1081 503 
Q 1081 266 1164 175 
Q 1247 84 1525 81 
L 1525 0 
L 103 0 
L 103 81 
z
" transform="scale(0.015625)"/>
      </defs>
      <use xlink:href="#Cmmi10-c2" transform="translate(0 0.828125)"/>
      <use xlink:href="#Cmr10-46" transform="translate(62.5 -16.178125) scale(0.7)"/>
      <use xlink:href="#Times-Roman-20" transform="translate(114.507227 0.828125)"/>
      <use xlink:href="#Times-Roman-52" transform="translate(139.507227 0.828125)"/>
      <use xlink:href="#Times-Roman-42" transform="translate(206.206445 0.828125)"/>
      <use xlink:href="#Times-Roman-4d" transform="translate(272.905664 0.828125)"/>
      <use xlink:href="#Times-Roman-20" transform="translate(361.82168 0.828125)"/>
      <use xlink:href="#Times-Roman-45" transform="translate(386.82168 0.828125)"/>
      <use xlink:href="#Times-Roman-73" transform="translate(447.905664 0.828125)"/>
      <use xlink:href="#Times-Roman-74" transform="translate(486.82168 0.828125)"/>
      <use xlink:href="#Times-Roman-69" transform="translate(514.604883 0.828125)"/>
      <use xlink:href="#Times-Roman-6d" transform="translate(542.388086 0.828125)"/>
      <use xlink:href="#Times-Roman-61" transform="translate(620.171289 0.828125)"/>
      <use xlink:href="#Times-Roman-74" transform="translate(664.556055 0.828125)"/>
      <use xlink:href="#Times-Roman-65" transform="translate(692.339258 0.828125)"/>
     </g>
    </g>
   </g>
   <g id="legend_2">
    <g id="line2d_103">
     <path d="M 35.58 139.26 
L 43.58 139.26 
L 51.58 139.26 
" style="fill: none; stroke-dasharray: 1.125,2.1; stroke-dashoffset: 0; stroke: #333333; stroke-width: 0.75"/>
    </g>
    <g id="text_19">
     <!-- Support $g$ -->
     <g transform="translate(57.98 142.06) scale(0.08 -0.08)">
      <use xlink:href="#Times-Roman-53" transform="translate(0 0.421875)"/>
      <use xlink:href="#Times-Roman-75" transform="translate(55.615234 0.421875)"/>
      <use xlink:href="#Times-Roman-70" transform="translate(105.615234 0.421875)"/>
      <use xlink:href="#Times-Roman-70" transform="translate(155.615234 0.421875)"/>
      <use xlink:href="#Times-Roman-6f" transform="translate(205.615234 0.421875)"/>
      <use xlink:href="#Times-Roman-72" transform="translate(255.615234 0.421875)"/>
      <use xlink:href="#Times-Roman-74" transform="translate(288.916016 0.421875)"/>
      <use xlink:href="#Times-Roman-20" transform="translate(316.699219 0.421875)"/>
      <use xlink:href="#Cmmi10-67" transform="translate(341.699219 0.421875)"/>
     </g>
    </g>
   </g>
  </g>
  <g id="axes_2">
   <g id="matplotlib.axis_3">
    <g id="ytick_28">
     <g id="line2d_104">
      <defs>
       <path id="m5195dda035" d="M 0 0 
L -3 0 
" style="stroke: #000000; stroke-width: 0.5"/>
      </defs>
      <g>
       <use xlink:href="#m5195dda035" x="204.36" y="151.02" style="stroke: #000000; stroke-width: 0.5"/>
      </g>
     </g>
     <g id="text_20">
      <!-- 0.95 -->
      <g transform="translate(207.86 153.7625) scale(0.08 -0.08)">
       <defs>
        <path id="Times-Roman-39" d="M 1597 1791 
Q 1809 1791 2036 1909 
Q 2263 2028 2294 2109 
Q 2306 2141 2315 2342 
Q 2325 2544 2325 2669 
Q 2325 3319 2106 3725 
Q 1888 4131 1466 4131 
Q 1159 4131 970 3853 
Q 781 3575 781 3022 
Q 781 2566 957 2178 
Q 1134 1791 1597 1791 
z
M 1509 4309 
Q 2197 4309 2572 3761 
Q 2947 3213 2947 2538 
Q 2947 2063 2769 1572 
Q 2591 1081 2250 697 
Q 1853 253 1244 38 
Q 903 -84 384 -150 
L 353 -25 
Q 678 50 894 134 
Q 1281 288 1516 509 
Q 1847 825 2045 1214 
Q 2244 1603 2294 1866 
L 2184 1784 
Q 1953 1609 1641 1544 
Q 1478 1506 1344 1506 
Q 813 1506 502 1882 
Q 191 2259 191 2781 
Q 191 3447 561 3878 
Q 931 4309 1509 4309 
z
" transform="scale(0.015625)"/>
       </defs>
       <use xlink:href="#Times-Roman-30"/>
       <use xlink:href="#Times-Roman-2e" x="50"/>
       <use xlink:href="#Times-Roman-39" x="75"/>
       <use xlink:href="#Times-Roman-35" x="125"/>
      </g>
     </g>
    </g>
    <g id="ytick_29">
     <g id="line2d_105">
      <g>
       <use xlink:href="#m5195dda035" x="204.36" y="122.67" style="stroke: #000000; stroke-width: 0.5"/>
      </g>
     </g>
     <g id="text_21">
      <!-- 0.96 -->
      <g transform="translate(207.86 125.4125) scale(0.08 -0.08)">
       <defs>
        <path id="Times-Roman-36" d="M 2994 1422 
Q 2994 850 2626 390 
Q 2259 -69 1672 -69 
Q 1122 -69 670 447 
Q 219 963 219 1819 
Q 219 2922 1094 3713 
Q 1875 4375 2850 4375 
L 2866 4272 
Q 2475 4200 2192 4076 
Q 1909 3953 1688 3731 
Q 1459 3506 1259 3159 
Q 1059 2813 984 2472 
Q 1178 2591 1319 2647 
Q 1569 2747 1822 2747 
Q 2319 2747 2656 2403 
Q 2994 2059 2994 1422 
z
M 2422 1181 
Q 2422 1597 2291 1919 
Q 2072 2456 1547 2456 
Q 1063 2456 903 2169 
Q 809 2000 809 1606 
Q 809 1097 1026 609 
Q 1244 122 1713 122 
Q 2084 122 2253 439 
Q 2422 756 2422 1181 
z
" transform="scale(0.015625)"/>
       </defs>
       <use xlink:href="#Times-Roman-30"/>
       <use xlink:href="#Times-Roman-2e" x="50"/>
       <use xlink:href="#Times-Roman-39" x="75"/>
       <use xlink:href="#Times-Roman-36" x="125"/>
      </g>
     </g>
    </g>
    <g id="ytick_30">
     <g id="line2d_106">
      <g>
       <use xlink:href="#m5195dda035" x="204.36" y="94.32" style="stroke: #000000; stroke-width: 0.5"/>
      </g>
     </g>
     <g id="text_22">
      <!-- 0.97 -->
      <g transform="translate(207.86 97.0625) scale(0.08 -0.08)">
       <defs>
        <path id="Times-Roman-37" d="M 2872 4234 
L 2872 4131 
L 1516 -59 
L 1103 -59 
L 2369 3763 
L 1006 3763 
Q 703 3763 570 3663 
Q 438 3563 234 3244 
L 125 3294 
Q 328 3794 376 3911 
Q 425 4028 503 4234 
L 2872 4234 
z
" transform="scale(0.015625)"/>
       </defs>
       <use xlink:href="#Times-Roman-30"/>
       <use xlink:href="#Times-Roman-2e" x="50"/>
       <use xlink:href="#Times-Roman-39" x="75"/>
       <use xlink:href="#Times-Roman-37" x="125"/>
      </g>
     </g>
    </g>
    <g id="ytick_31">
     <g id="line2d_107">
      <g>
       <use xlink:href="#m5195dda035" x="204.36" y="65.97" style="stroke: #000000; stroke-width: 0.5"/>
      </g>
     </g>
     <g id="text_23">
      <!-- 0.98 -->
      <g transform="translate(207.86 68.7125) scale(0.08 -0.08)">
       <defs>
        <path id="Times-Roman-38" d="M 1609 106 
Q 1969 106 2153 306 
Q 2338 506 2338 806 
Q 2338 1147 2142 1358 
Q 1947 1569 1341 1997 
Q 1072 1828 950 1559 
Q 828 1291 828 1041 
Q 828 613 1048 359 
Q 1269 106 1609 106 
z
M 1650 2494 
Q 1944 2700 2056 2841 
Q 2250 3081 2250 3422 
Q 2250 3719 2067 3926 
Q 1884 4134 1513 4134 
Q 1225 4134 1037 3953 
Q 850 3772 850 3513 
Q 850 3219 1070 2967 
Q 1291 2716 1650 2494 
z
M 1169 2131 
Q 756 2463 606 2659 
Q 375 2959 375 3322 
Q 375 3734 717 4021 
Q 1059 4309 1606 4309 
Q 2109 4309 2406 4037 
Q 2703 3766 2703 3406 
Q 2703 3041 2400 2750 
Q 2225 2584 1834 2369 
Q 2366 1975 2595 1683 
Q 2825 1391 2825 994 
Q 2825 544 2486 237 
Q 2147 -69 1578 -69 
Q 1069 -69 705 214 
Q 341 497 341 959 
Q 341 1356 594 1659 
Q 759 1856 1169 2131 
z
" transform="scale(0.015625)"/>
       </defs>
       <use xlink:href="#Times-Roman-30"/>
       <use xlink:href="#Times-Roman-2e" x="50"/>
       <use xlink:href="#Times-Roman-39" x="75"/>
       <use xlink:href="#Times-Roman-38" x="125"/>
      </g>
     </g>
    </g>
    <g id="ytick_32">
     <g id="line2d_108">
      <g>
       <use xlink:href="#m5195dda035" x="204.36" y="37.62" style="stroke: #000000; stroke-width: 0.5"/>
      </g>
     </g>
     <g id="text_24">
      <!-- 0.99 -->
      <g transform="translate(207.86 40.3625) scale(0.08 -0.08)">
       <use xlink:href="#Times-Roman-30"/>
       <use xlink:href="#Times-Roman-2e" x="50"/>
       <use xlink:href="#Times-Roman-39" x="75"/>
       <use xlink:href="#Times-Roman-39" x="125"/>
      </g>
     </g>
    </g>
    <g id="ytick_33">
     <g id="line2d_109">
      <g>
       <use xlink:href="#m5195dda035" x="204.36" y="9.27" style="stroke: #000000; stroke-width: 0.5"/>
      </g>
     </g>
     <g id="text_25">
      <!-- 1.00 -->
      <g transform="translate(207.86 12.0125) scale(0.08 -0.08)">
       <use xlink:href="#Times-Roman-31"/>
       <use xlink:href="#Times-Roman-2e" x="50"/>
       <use xlink:href="#Times-Roman-30" x="75"/>
       <use xlink:href="#Times-Roman-30" x="125"/>
      </g>
     </g>
    </g>
    <g id="ytick_34">
     <g id="line2d_110">
      <defs>
       <path id="m61efc4f844" d="M 0 0 
L -1.5 0 
" style="stroke: #000000; stroke-width: 0.5"/>
      </defs>
      <g>
       <use xlink:href="#m61efc4f844" x="204.36" y="145.35" style="stroke: #000000; stroke-width: 0.5"/>
      </g>
     </g>
    </g>
    <g id="ytick_35">
     <g id="line2d_111">
      <g>
       <use xlink:href="#m61efc4f844" x="204.36" y="139.68" style="stroke: #000000; stroke-width: 0.5"/>
      </g>
     </g>
    </g>
    <g id="ytick_36">
     <g id="line2d_112">
      <g>
       <use xlink:href="#m61efc4f844" x="204.36" y="134.01" style="stroke: #000000; stroke-width: 0.5"/>
      </g>
     </g>
    </g>
    <g id="ytick_37">
     <g id="line2d_113">
      <g>
       <use xlink:href="#m61efc4f844" x="204.36" y="128.34" style="stroke: #000000; stroke-width: 0.5"/>
      </g>
     </g>
    </g>
    <g id="ytick_38">
     <g id="line2d_114">
      <g>
       <use xlink:href="#m61efc4f844" x="204.36" y="117" style="stroke: #000000; stroke-width: 0.5"/>
      </g>
     </g>
    </g>
    <g id="ytick_39">
     <g id="line2d_115">
      <g>
       <use xlink:href="#m61efc4f844" x="204.36" y="111.33" style="stroke: #000000; stroke-width: 0.5"/>
      </g>
     </g>
    </g>
    <g id="ytick_40">
     <g id="line2d_116">
      <g>
       <use xlink:href="#m61efc4f844" x="204.36" y="105.66" style="stroke: #000000; stroke-width: 0.5"/>
      </g>
     </g>
    </g>
    <g id="ytick_41">
     <g id="line2d_117">
      <g>
       <use xlink:href="#m61efc4f844" x="204.36" y="99.99" style="stroke: #000000; stroke-width: 0.5"/>
      </g>
     </g>
    </g>
    <g id="ytick_42">
     <g id="line2d_118">
      <g>
       <use xlink:href="#m61efc4f844" x="204.36" y="88.65" style="stroke: #000000; stroke-width: 0.5"/>
      </g>
     </g>
    </g>
    <g id="ytick_43">
     <g id="line2d_119">
      <g>
       <use xlink:href="#m61efc4f844" x="204.36" y="82.98" style="stroke: #000000; stroke-width: 0.5"/>
      </g>
     </g>
    </g>
    <g id="ytick_44">
     <g id="line2d_120">
      <g>
       <use xlink:href="#m61efc4f844" x="204.36" y="77.31" style="stroke: #000000; stroke-width: 0.5"/>
      </g>
     </g>
    </g>
    <g id="ytick_45">
     <g id="line2d_121">
      <g>
       <use xlink:href="#m61efc4f844" x="204.36" y="71.64" style="stroke: #000000; stroke-width: 0.5"/>
      </g>
     </g>
    </g>
    <g id="ytick_46">
     <g id="line2d_122">
      <g>
       <use xlink:href="#m61efc4f844" x="204.36" y="60.3" style="stroke: #000000; stroke-width: 0.5"/>
      </g>
     </g>
    </g>
    <g id="ytick_47">
     <g id="line2d_123">
      <g>
       <use xlink:href="#m61efc4f844" x="204.36" y="54.63" style="stroke: #000000; stroke-width: 0.5"/>
      </g>
     </g>
    </g>
    <g id="ytick_48">
     <g id="line2d_124">
      <g>
       <use xlink:href="#m61efc4f844" x="204.36" y="48.96" style="stroke: #000000; stroke-width: 0.5"/>
      </g>
     </g>
    </g>
    <g id="ytick_49">
     <g id="line2d_125">
      <g>
       <use xlink:href="#m61efc4f844" x="204.36" y="43.29" style="stroke: #000000; stroke-width: 0.5"/>
      </g>
     </g>
    </g>
    <g id="ytick_50">
     <g id="line2d_126">
      <g>
       <use xlink:href="#m61efc4f844" x="204.36" y="31.95" style="stroke: #000000; stroke-width: 0.5"/>
      </g>
     </g>
    </g>
    <g id="ytick_51">
     <g id="line2d_127">
      <g>
       <use xlink:href="#m61efc4f844" x="204.36" y="26.28" style="stroke: #000000; stroke-width: 0.5"/>
      </g>
     </g>
    </g>
    <g id="ytick_52">
     <g id="line2d_128">
      <g>
       <use xlink:href="#m61efc4f844" x="204.36" y="20.61" style="stroke: #000000; stroke-width: 0.5"/>
      </g>
     </g>
    </g>
    <g id="ytick_53">
     <g id="line2d_129">
      <g>
       <use xlink:href="#m61efc4f844" x="204.36" y="14.94" style="stroke: #000000; stroke-width: 0.5"/>
      </g>
     </g>
    </g>
    <g id="text_26">
     <!-- Overlap $\left|\left\langle \Psi_\mathrm{ED}\mid \Psi_\mathrm{RBM}\right\rangle\right|$ -->
     <g transform="translate(231.86 116.83) rotate(-90) scale(0.08 -0.08)">
      <defs>
       <path id="Cmsy10-6a" d="M 763 -1484 
L 763 4684 
Q 763 4734 800 4767 
Q 838 4800 891 4800 
Q 938 4800 978 4767 
Q 1019 4734 1019 4684 
L 1019 -1484 
Q 1019 -1534 978 -1567 
Q 938 -1600 891 -1600 
Q 838 -1600 800 -1567 
Q 763 -1534 763 -1484 
z
" transform="scale(0.015625)"/>
       <path id="Cmex10-ad" d="M 2272 -7347 
L 641 -3634 
Q 628 -3616 628 -3584 
Q 628 -3553 641 -3541 
L 2272 178 
Q 2303 256 2388 256 
Q 2434 256 2475 215 
Q 2516 175 2516 128 
Q 2516 97 2509 84 
L 897 -3584 
L 2509 -7250 
Q 2516 -7263 2516 -7297 
Q 2516 -7344 2475 -7384 
Q 2434 -7425 2388 -7425 
Q 2306 -7425 2272 -7347 
z
" transform="scale(0.015625)"/>
       <path id="Cmr10-aa" d="M 1369 0 
L 1369 225 
Q 2188 225 2188 428 
L 2188 897 
Q 1831 944 1573 1083 
Q 1316 1222 1141 1447 
Q 966 1672 877 1970 
Q 788 2269 788 2613 
Q 788 3366 422 3366 
Q 406 3366 382 3386 
Q 359 3406 359 3425 
L 359 3475 
Q 359 3497 379 3514 
Q 400 3531 422 3531 
L 850 3531 
Q 1053 3531 1162 3386 
Q 1272 3241 1308 3044 
Q 1344 2847 1344 2638 
Q 1344 2069 1528 1639 
Q 1713 1209 2188 1081 
L 2188 3944 
Q 2188 4147 1369 4147 
L 1369 4372 
L 3566 4372 
L 3566 4147 
Q 2747 4147 2747 3944 
L 2747 1075 
Q 3081 1159 3278 1398 
Q 3475 1638 3551 1956 
Q 3628 2275 3628 2638 
Q 3628 2981 3731 3256 
Q 3834 3531 4122 3531 
L 4550 3531 
Q 4572 3531 4594 3514 
Q 4616 3497 4616 3475 
L 4616 3425 
Q 4616 3403 4591 3384 
Q 4566 3366 4550 3366 
Q 4184 3366 4184 2613 
Q 4184 2266 4093 1967 
Q 4003 1669 3820 1442 
Q 3638 1216 3373 1077 
Q 3109 938 2747 891 
L 2747 428 
Q 2747 225 3566 225 
L 3566 0 
L 1369 0 
z
" transform="scale(0.015625)"/>
       <path id="Cmr10-45" d="M 197 0 
L 197 225 
Q 856 225 856 428 
L 856 3944 
Q 856 4147 197 4147 
L 197 4372 
L 3816 4372 
L 3994 2906 
L 3809 2906 
Q 3741 3459 3617 3709 
Q 3494 3959 3222 4053 
Q 2950 4147 2406 4147 
L 1778 4147 
Q 1663 4147 1598 4137 
Q 1534 4128 1493 4083 
Q 1453 4038 1453 3944 
L 1453 2381 
L 1925 2381 
Q 2250 2381 2411 2436 
Q 2572 2491 2633 2645 
Q 2694 2800 2694 3128 
L 2881 3128 
L 2881 1409 
L 2694 1409 
Q 2694 1734 2633 1890 
Q 2572 2047 2411 2101 
Q 2250 2156 1925 2156 
L 1453 2156 
L 1453 428 
Q 1453 291 1531 258 
Q 1609 225 1778 225 
L 2456 225 
Q 2900 225 3173 295 
Q 3447 366 3598 530 
Q 3750 694 3833 955 
Q 3916 1216 3988 1678 
L 4172 1678 
L 3903 0 
L 197 0 
z
" transform="scale(0.015625)"/>
       <path id="Cmr10-44" d="M 213 0 
L 213 225 
Q 872 225 872 428 
L 872 3944 
Q 872 4147 213 4147 
L 213 4372 
L 2572 4372 
Q 3009 4372 3371 4183 
Q 3734 3994 3990 3678 
Q 4247 3363 4386 2963 
Q 4525 2563 4525 2144 
Q 4525 1738 4384 1355 
Q 4244 972 3980 664 
Q 3716 356 3355 178 
Q 2994 0 2572 0 
L 213 0 
z
M 1447 428 
Q 1447 291 1525 258 
Q 1603 225 1772 225 
L 2406 225 
Q 2734 225 3029 367 
Q 3325 509 3519 763 
Q 3722 1031 3790 1364 
Q 3859 1697 3859 2144 
Q 3859 2609 3790 2959 
Q 3722 3309 3519 3584 
Q 3328 3856 3034 4001 
Q 2741 4147 2406 4147 
L 1772 4147 
Q 1656 4147 1592 4137 
Q 1528 4128 1487 4083 
Q 1447 4038 1447 3944 
L 1447 428 
z
" transform="scale(0.015625)"/>
       <path id="Cmr10-52" d="M 213 0 
L 213 225 
Q 872 225 872 428 
L 872 3944 
Q 872 4147 213 4147 
L 213 4372 
L 2222 4372 
Q 2581 4372 2976 4242 
Q 3372 4113 3637 3847 
Q 3903 3581 3903 3213 
Q 3903 2944 3742 2733 
Q 3581 2522 3329 2380 
Q 3078 2238 2816 2175 
Q 3103 2075 3318 1856 
Q 3534 1638 3578 1356 
L 3669 788 
Q 3731 403 3800 214 
Q 3869 25 4103 25 
Q 4303 25 4401 211 
Q 4500 397 4500 616 
Q 4500 638 4520 655 
Q 4541 672 4563 672 
L 4622 672 
Q 4684 672 4684 588 
Q 4684 413 4615 245 
Q 4547 78 4417 -31 
Q 4288 -141 4109 -141 
Q 3647 -141 3314 89 
Q 2981 319 2981 763 
L 2981 1331 
Q 2981 1650 2759 1878 
Q 2538 2106 2216 2106 
L 1447 2106 
L 1447 428 
Q 1447 225 2106 225 
L 2106 0 
L 213 0 
z
M 1447 2272 
L 2131 2272 
Q 2663 2272 2941 2486 
Q 3219 2700 3219 3213 
Q 3219 3722 2944 3934 
Q 2669 4147 2131 4147 
L 1772 4147 
Q 1656 4147 1592 4137 
Q 1528 4128 1487 4083 
Q 1447 4038 1447 3944 
L 1447 2272 
z
" transform="scale(0.015625)"/>
       <path id="Cmr10-42" d="M 219 0 
L 219 225 
Q 878 225 878 428 
L 878 3944 
Q 878 4147 219 4147 
L 219 4372 
L 2572 4372 
Q 2897 4372 3228 4245 
Q 3559 4119 3776 3870 
Q 3994 3622 3994 3284 
Q 3994 2894 3673 2630 
Q 3353 2366 2925 2284 
Q 3203 2284 3497 2131 
Q 3791 1978 3978 1722 
Q 4166 1466 4166 1178 
Q 4166 828 3958 559 
Q 3750 291 3419 145 
Q 3088 0 2753 0 
L 219 0 
z
M 1434 428 
Q 1434 291 1512 258 
Q 1591 225 1759 225 
L 2572 225 
Q 2822 225 3036 356 
Q 3250 488 3375 708 
Q 3500 928 3500 1178 
Q 3500 1422 3397 1655 
Q 3294 1888 3101 2038 
Q 2909 2188 2663 2188 
L 1434 2188 
L 1434 428 
z
M 1434 2356 
L 2394 2356 
Q 2588 2356 2758 2426 
Q 2928 2497 3064 2630 
Q 3200 2763 3273 2930 
Q 3347 3097 3347 3284 
Q 3347 3450 3292 3603 
Q 3238 3756 3131 3881 
Q 3025 4006 2881 4076 
Q 2738 4147 2572 4147 
L 1759 4147 
Q 1644 4147 1580 4137 
Q 1516 4128 1475 4083 
Q 1434 4038 1434 3944 
L 1434 2356 
z
" transform="scale(0.015625)"/>
       <path id="Cmr10-4d" d="M 225 0 
L 225 225 
Q 884 225 884 603 
L 884 3944 
Q 884 4147 225 4147 
L 225 4372 
L 1434 4372 
Q 1513 4372 1538 4300 
L 2931 678 
L 4325 4300 
Q 4350 4372 4428 4372 
L 5638 4372 
L 5638 4147 
Q 4978 4147 4978 3944 
L 4978 428 
Q 4978 225 5638 225 
L 5638 0 
L 3775 0 
L 3775 225 
Q 4434 225 4434 428 
L 4434 4153 
L 2859 72 
Q 2831 0 2753 0 
Q 2672 0 2644 72 
L 1088 4103 
L 1088 603 
Q 1088 225 1747 225 
L 1747 0 
L 225 0 
z
" transform="scale(0.015625)"/>
       <path id="Cmex10-ae" d="M 500 -7297 
Q 500 -7263 513 -7250 
L 2119 -3584 
L 513 84 
Q 500 97 500 128 
Q 500 175 537 215 
Q 575 256 628 256 
Q 703 256 750 178 
L 2381 -3541 
Q 2388 -3553 2388 -3584 
Q 2388 -3616 2381 -3634 
L 750 -7347 
Q 700 -7425 628 -7425 
Q 575 -7425 537 -7384 
Q 500 -7344 500 -7297 
z
" transform="scale(0.015625)"/>
      </defs>
      <use xlink:href="#Times-Roman-4f"/>
      <use xlink:href="#Times-Roman-76" transform="translate(72.216797 0)"/>
      <use xlink:href="#Times-Roman-65" transform="translate(122.216797 0)"/>
      <use xlink:href="#Times-Roman-72" transform="translate(166.601562 0)"/>
      <use xlink:href="#Times-Roman-6c" transform="translate(199.902344 0)"/>
      <use xlink:href="#Times-Roman-61" transform="translate(227.685547 0)"/>
      <use xlink:href="#Times-Roman-70" transform="translate(272.070312 0)"/>
      <use xlink:href="#Times-Roman-20" transform="translate(322.070312 0)"/>
      <use xlink:href="#Cmsy10-6a" transform="translate(347.070312 0)"/>
      <use xlink:href="#Cmex10-ad" transform="translate(374.755859 71.65625) scale(0.833225)"/>
      <use xlink:href="#Cmr10-aa" transform="translate(414.093353 0)"/>
      <use xlink:href="#Cmr10-45" transform="translate(496.243041 -17.00625) scale(0.7)"/>
      <use xlink:href="#Cmr10-44" transform="translate(543.855345 -17.00625) scale(0.7)"/>
      <use xlink:href="#Cmsy10-6a" transform="translate(621.214135 0)"/>
      <use xlink:href="#Cmr10-aa" transform="translate(666.458275 0)"/>
      <use xlink:href="#Cmr10-52" transform="translate(748.607963 -17.00625) scale(0.7)"/>
      <use xlink:href="#Cmr10-42" transform="translate(800.116752 -17.00625) scale(0.7)"/>
      <use xlink:href="#Cmr10-4d" transform="translate(849.677299 -17.00625) scale(0.7)"/>
      <use xlink:href="#Cmex10-ae" transform="translate(920.175736 71.65625) scale(0.833225)"/>
      <use xlink:href="#Cmsy10-6a" transform="translate(959.51323 0)"/>
     </g>
    </g>
   </g>
   <g id="patch_7">
    <path d="M 28.38 151.02 
L 28.38 3.6 
" style="fill: none; stroke: #000000; stroke-width: 0.5; stroke-linejoin: miter; stroke-linecap: square"/>
   </g>
   <g id="patch_8">
    <path d="M 204.36 151.02 
L 204.36 3.6 
" style="fill: none; stroke: #000000; stroke-width: 0.5; stroke-linejoin: miter; stroke-linecap: square"/>
   </g>
   <g id="patch_9">
    <path d="M 28.38 151.02 
L 204.36 151.02 
" style="fill: none; stroke: #000000; stroke-width: 0.5; stroke-linejoin: miter; stroke-linecap: square"/>
   </g>
   <g id="patch_10">
    <path d="M 28.38 3.6 
L 204.36 3.6 
" style="fill: none; stroke: #000000; stroke-width: 0.5; stroke-linejoin: miter; stroke-linecap: square"/>
   </g>
   <g id="line2d_130">
    <path d="M 31.218387 9.627898 
L 53.925484 9.940002 
L 59.602258 10.184515 
L 87.986129 12.36536 
L 116.37 13.516784 
L 144.753871 12.321088 
L 173.137742 11.16696 
L 201.521613 10.930389 
" clip-path="url(#p077ef21699)" style="fill: none; stroke: #0173b2; stroke-linecap: square"/>
    <g clip-path="url(#p077ef21699)">
     <use xlink:href="#m39703595a8" x="31.218387" y="9.627898" style="fill: #0173b2"/>
     <use xlink:href="#m39703595a8" x="53.925484" y="9.940002" style="fill: #0173b2"/>
     <use xlink:href="#m39703595a8" x="59.602258" y="10.184515" style="fill: #0173b2"/>
     <use xlink:href="#m39703595a8" x="87.986129" y="12.36536" style="fill: #0173b2"/>
     <use xlink:href="#m39703595a8" x="116.37" y="13.516784" style="fill: #0173b2"/>
     <use xlink:href="#m39703595a8" x="144.753871" y="12.321088" style="fill: #0173b2"/>
     <use xlink:href="#m39703595a8" x="173.137742" y="11.16696" style="fill: #0173b2"/>
     <use xlink:href="#m39703595a8" x="201.521613" y="10.930389" style="fill: #0173b2"/>
    </g>
   </g>
  </g>
 </g>
 <defs>
  <clipPath id="p077ef21699">
   <rect x="28.38" y="3.6" width="175.98" height="147.42"/>
  </clipPath>
 </defs>
</svg>
