<?xml version="1.0" encoding="utf-8" standalone="no"?>
<!DOCTYPE svg PUBLIC "-//W3C//DTD SVG 1.1//EN"
  "http://www.w3.org/Graphics/SVG/1.1/DTD/svg11.dtd">
<svg xmlns:xlink="http://www.w3.org/1999/xlink" width="241.92pt" height="249.228pt" viewBox="0 0 241.92 249.228" xmlns="http://www.w3.org/2000/svg" version="1.1">
 <metadata>
  <rdf:RDF xmlns:dc="http://purl.org/dc/elements/1.1/" xmlns:cc="http://creativecommons.org/ns#" xmlns:rdf="http://www.w3.org/1999/02/22-rdf-syntax-ns#">
   <cc:Work>
    <dc:type rdf:resource="http://purl.org/dc/dcmitype/StillImage"/>
    <dc:date>2026-02-10T18:00:15.199684</dc:date>
    <dc:format>image/svg+xml</dc:format>
    <dc:creator>
     <cc:Agent>
      <dc:title>Matplotlib v3.7.1, https://matplotlib.org/</dc:title>
     </cc:Agent>
    </dc:creator>
   </cc:Work>
  </rdf:RDF>
 </metadata>
 <defs>
  <style type="text/css">*{stroke-linejoin: round; stroke-linecap: butt}</style>
 </defs>
 <g id="figure_1">
  <g id="patch_1">
   <path d="M 0 249.228 
L 241.92 249.228 
L 241.92 0 
L 0 0 
z
" style="fill: #ffffff"/>
  </g>
  <g id="patch_2">
   <path d="M 35.28 198.954 
L 241.92 198.954 
L 241.92 -7.686 
L 35.28 -7.686 
z
" style="fill: #ffffff"/>
  </g>
  <g id="pane3d_1">
   <g id="patch_3">
    <path d="M 46.370278 129.572741 
L 149.705794 86.218345 
L 149.705794 4.442636 
L 46.370278 47.797033 
" style="fill: #ffffff; stroke: #ffffff; stroke-linejoin: miter"/>
   </g>
  </g>
  <g id="pane3d_2">
   <g id="patch_4">
    <path d="M 149.705794 86.218345 
L 236.414587 137.886102 
L 236.414587 56.110394 
L 149.705794 4.442636 
" style="fill: #ffffff; stroke: #ffffff; stroke-linejoin: miter"/>
   </g>
  </g>
  <g id="pane3d_3">
   <g id="patch_5">
    <path d="M 46.370278 129.572741 
L 133.079071 181.240499 
L 236.414587 137.886102 
L 149.705794 86.218345 
" style="fill: #ffffff; stroke: #ffffff; stroke-linejoin: miter"/>
   </g>
  </g>
  <g id="axis3d_1">
   <g id="line2d_1">
    <path d="M 46.370278 129.572741 
L 133.079071 181.240499 
" style="fill: none; stroke: #000000; stroke-width: 0.5; stroke-linecap: square"/>
   </g>
   <g id="text_1">
    <!-- Transverse Field $g$ -->
    <g transform="translate(39.800307 164.538716) rotate(-329.210267) scale(0.09 -0.09)">
     <defs>
      <path id="Times-Roman-54" d="M 125 4234 
L 3741 4234 
L 3775 3147 
L 3622 3147 
Q 3509 3659 3336 3814 
Q 3163 3969 2606 3969 
L 2250 3969 
L 2250 694 
Q 2250 322 2365 233 
Q 2481 144 2872 116 
L 2872 0 
L 1006 0 
L 1006 116 
Q 1413 147 1513 250 
Q 1613 353 1613 769 
L 1613 3969 
L 1256 3969 
Q 725 3969 533 3816 
Q 341 3663 244 3147 
L 88 3147 
L 125 4234 
z
" transform="scale(0.015625)"/>
      <path id="Times-Roman-72" d="M 28 103 
Q 316 128 409 204 
Q 503 281 503 531 
L 503 1941 
Q 503 2250 445 2383 
Q 388 2516 234 2516 
Q 203 2516 151 2508 
Q 100 2500 44 2488 
L 44 2591 
Q 222 2653 409 2718 
Q 597 2784 669 2813 
Q 825 2872 991 2947 
Q 1013 2947 1017 2931 
Q 1022 2916 1022 2866 
L 1022 2353 
Q 1222 2631 1408 2787 
Q 1594 2944 1794 2944 
Q 1953 2944 2053 2848 
Q 2153 2753 2153 2609 
Q 2153 2481 2076 2393 
Q 2000 2306 1884 2306 
Q 1766 2306 1645 2415 
Q 1525 2525 1456 2525 
Q 1347 2525 1187 2348 
Q 1028 2172 1028 1984 
L 1028 575 
Q 1028 306 1153 201 
Q 1278 97 1569 103 
L 1569 0 
L 28 0 
L 28 103 
z
" transform="scale(0.015625)"/>
      <path id="Times-Roman-61" d="M 1834 1731 
Q 1475 1613 1241 1469 
Q 791 1191 791 838 
Q 791 553 978 419 
Q 1100 331 1250 331 
Q 1456 331 1645 447 
Q 1834 563 1834 741 
L 1834 1731 
z
M 234 622 
Q 234 1075 688 1378 
Q 975 1566 1834 1888 
L 1834 2153 
Q 1834 2472 1772 2597 
Q 1666 2806 1331 2806 
Q 1172 2806 1028 2725 
Q 884 2641 884 2494 
Q 884 2456 900 2367 
Q 916 2278 916 2253 
Q 916 2078 800 2009 
Q 734 1969 644 1969 
Q 503 1969 428 2061 
Q 353 2153 353 2266 
Q 353 2484 623 2723 
Q 894 2963 1416 2963 
Q 2022 2963 2238 2569 
Q 2353 2353 2353 1941 
L 2353 688 
Q 2353 506 2378 438 
Q 2419 316 2547 316 
Q 2619 316 2666 337 
Q 2713 359 2828 444 
L 2828 281 
Q 2728 159 2613 81 
Q 2438 -38 2256 -38 
Q 2044 -38 1948 100 
Q 1853 238 1844 428 
Q 1606 222 1438 122 
Q 1153 -47 897 -47 
Q 628 -47 431 142 
Q 234 331 234 622 
z
M 1425 2963 
L 1425 2963 
z
" transform="scale(0.015625)"/>
      <path id="Times-Roman-6e" d="M 116 88 
Q 338 116 427 198 
Q 516 281 516 569 
L 516 2153 
Q 516 2353 478 2434 
Q 419 2553 234 2553 
Q 206 2553 176 2550 
Q 147 2547 103 2541 
L 103 2650 
Q 231 2688 709 2844 
L 1003 2941 
Q 1025 2941 1029 2925 
Q 1034 2909 1034 2881 
L 1034 2422 
Q 1322 2691 1484 2791 
Q 1728 2944 1991 2944 
Q 2203 2944 2378 2822 
Q 2716 2584 2716 1975 
L 2716 516 
Q 2716 291 2806 191 
Q 2897 91 3109 88 
L 3109 0 
L 1775 0 
L 1775 88 
Q 2003 119 2093 214 
Q 2184 309 2184 628 
L 2184 1963 
Q 2184 2231 2084 2407 
Q 1984 2584 1716 2584 
Q 1531 2584 1341 2459 
Q 1234 2388 1066 2222 
L 1066 472 
Q 1066 247 1166 170 
Q 1266 94 1481 88 
L 1481 0 
L 116 0 
L 116 88 
z
M 1603 2944 
L 1603 2944 
z
" transform="scale(0.015625)"/>
      <path id="Times-Roman-73" d="M 331 984 
L 434 984 
Q 506 628 628 438 
Q 847 88 1269 88 
Q 1503 88 1639 217 
Q 1775 347 1775 553 
Q 1775 684 1697 806 
Q 1619 928 1422 1044 
L 1072 1244 
Q 688 1450 506 1659 
Q 325 1869 325 2153 
Q 325 2503 575 2728 
Q 825 2953 1203 2953 
Q 1369 2953 1567 2890 
Q 1766 2828 1791 2828 
Q 1847 2828 1872 2843 
Q 1897 2859 1916 2894 
L 1991 2894 
L 2013 2022 
L 1916 2022 
Q 1853 2325 1747 2494 
Q 1553 2806 1188 2806 
Q 969 2806 844 2672 
Q 719 2538 719 2356 
Q 719 2069 1150 1844 
L 1563 1622 
Q 2228 1259 2228 778 
Q 2228 409 1951 175 
Q 1675 -59 1228 -59 
Q 1041 -59 803 3 
Q 566 66 522 66 
Q 484 66 456 39 
Q 428 13 413 -25 
L 331 -25 
L 331 984 
z
M 1247 2953 
L 1247 2953 
z
" transform="scale(0.015625)"/>
      <path id="Times-Roman-76" d="M 1375 2903 
L 1375 2806 
Q 1213 2788 1145 2756 
Q 1078 2725 1078 2619 
Q 1078 2569 1092 2523 
Q 1106 2478 1141 2391 
L 1791 775 
L 2353 2206 
Q 2394 2309 2430 2421 
Q 2466 2534 2466 2594 
Q 2466 2716 2350 2769 
Q 2281 2797 2163 2806 
L 2163 2903 
L 3050 2903 
L 3050 2806 
Q 2897 2794 2830 2705 
Q 2763 2616 2634 2294 
L 1731 44 
Q 1706 -16 1690 -37 
Q 1675 -59 1647 -59 
Q 1616 -59 1594 -23 
Q 1572 13 1547 66 
L 591 2353 
Q 475 2631 344 2731 
Q 266 2788 116 2806 
L 116 2903 
L 1375 2903 
z
" transform="scale(0.015625)"/>
      <path id="Times-Roman-65" d="M 1466 2931 
Q 1906 2931 2237 2626 
Q 2569 2322 2569 1763 
L 584 1763 
Q 616 1038 912 706 
Q 1209 375 1616 375 
Q 1944 375 2169 547 
Q 2394 719 2584 1034 
L 2694 997 
Q 2566 600 2214 262 
Q 1863 -75 1353 -75 
Q 766 -75 445 369 
Q 125 813 125 1391 
Q 125 2019 497 2475 
Q 869 2931 1466 2931 
z
M 1284 2703 
Q 928 2703 741 2388 
Q 641 2219 597 1963 
L 1916 1963 
Q 1881 2275 1797 2428 
Q 1644 2703 1284 2703 
z
M 1425 2931 
L 1425 2931 
z
" transform="scale(0.015625)"/>
      <path id="Times-Roman-20" transform="scale(0.015625)"/>
      <path id="Times-Roman-46" d="M 72 116 
Q 450 156 542 254 
Q 634 353 634 769 
L 634 3541 
Q 634 3881 531 3986 
Q 428 4091 72 4116 
L 72 4234 
L 3481 4234 
L 3503 3316 
L 3325 3316 
Q 3259 3756 3078 3873 
Q 2897 3991 2363 3991 
L 1488 3991 
Q 1359 3991 1323 3947 
Q 1288 3903 1288 3775 
L 1288 2347 
L 2213 2347 
Q 2622 2347 2734 2469 
Q 2847 2591 2916 2963 
L 3066 2963 
L 3066 1481 
L 2916 1481 
Q 2844 1853 2731 1973 
Q 2619 2094 2213 2094 
L 1288 2094 
L 1288 694 
Q 1288 341 1395 242 
Q 1503 144 1866 116 
L 1866 0 
L 72 0 
L 72 116 
z
" transform="scale(0.015625)"/>
      <path id="Times-Roman-69" d="M 525 4034 
Q 525 4169 619 4266 
Q 713 4363 850 4363 
Q 984 4363 1079 4267 
Q 1175 4172 1175 4034 
Q 1175 3900 1079 3804 
Q 984 3709 850 3709 
Q 713 3709 619 3804 
Q 525 3900 525 4034 
z
M 125 88 
Q 459 119 546 201 
Q 634 284 634 650 
L 634 2141 
Q 634 2344 606 2422 
Q 559 2550 409 2550 
Q 375 2550 342 2544 
Q 309 2538 153 2494 
L 153 2591 
L 288 2634 
Q 834 2813 1050 2903 
Q 1138 2941 1163 2941 
Q 1169 2919 1169 2894 
L 1169 650 
Q 1169 294 1255 203 
Q 1341 113 1644 88 
L 1644 0 
L 125 0 
L 125 88 
z
" transform="scale(0.015625)"/>
      <path id="Times-Roman-6c" d="M 131 88 
Q 422 116 525 205 
Q 628 294 628 553 
L 628 3606 
Q 628 3813 594 3891 
Q 531 4022 341 4022 
Q 297 4022 245 4012 
Q 194 4003 116 3984 
L 116 4088 
Q 538 4200 1131 4388 
Q 1153 4388 1158 4369 
Q 1163 4350 1163 4288 
L 1163 541 
Q 1163 269 1256 189 
Q 1350 109 1644 88 
L 1644 0 
L 131 0 
L 131 88 
z
" transform="scale(0.015625)"/>
      <path id="Times-Roman-64" d="M 1516 2953 
Q 1744 2953 1934 2853 
Q 2059 2788 2175 2672 
L 2175 3666 
Q 2175 3856 2133 3928 
Q 2091 4000 1931 4000 
Q 1894 4000 1866 3997 
Q 1838 3994 1741 3984 
L 1741 4088 
L 1997 4153 
Q 2138 4191 2278 4231 
Q 2419 4272 2525 4309 
Q 2575 4325 2691 4369 
L 2709 4363 
L 2703 4034 
Q 2700 3856 2697 3667 
Q 2694 3478 2694 3294 
L 2688 741 
Q 2688 538 2738 456 
Q 2788 375 3003 375 
Q 3038 375 3072 376 
Q 3106 378 3141 384 
L 3141 281 
Q 3122 275 2688 125 
L 2197 -59 
L 2175 -31 
L 2175 353 
Q 2000 163 1872 81 
Q 1644 -59 1344 -59 
Q 813 -59 483 352 
Q 153 763 153 1303 
Q 153 1981 548 2467 
Q 944 2953 1516 2953 
z
M 1631 278 
Q 1875 278 2025 422 
Q 2175 566 2175 694 
L 2175 2034 
Q 2175 2441 1958 2608 
Q 1741 2775 1534 2775 
Q 1141 2775 922 2426 
Q 703 2078 703 1569 
Q 703 1066 936 672 
Q 1169 278 1631 278 
z
" transform="scale(0.015625)"/>
      <path id="Cmmi10-67" d="M 91 -916 
Q 91 -759 198 -642 
Q 306 -525 459 -525 
Q 563 -525 633 -589 
Q 703 -653 703 -756 
Q 703 -872 637 -964 
Q 572 -1056 469 -1094 
Q 641 -1147 1006 -1147 
Q 1300 -1147 1544 -920 
Q 1788 -694 1863 -397 
L 2047 353 
Q 1700 0 1325 0 
Q 1050 0 854 140 
Q 659 281 556 515 
Q 453 750 453 1013 
Q 453 1306 573 1628 
Q 694 1950 911 2225 
Q 1128 2500 1409 2664 
Q 1691 2828 2003 2828 
Q 2191 2828 2341 2725 
Q 2491 2622 2578 2450 
Q 2641 2700 2853 2700 
Q 2934 2700 2990 2651 
Q 3047 2603 3047 2522 
Q 3047 2503 3045 2493 
Q 3044 2484 3041 2472 
L 2309 -434 
Q 2259 -634 2125 -800 
Q 1991 -966 1809 -1077 
Q 1628 -1188 1412 -1250 
Q 1197 -1313 997 -1313 
Q 631 -1313 361 -1242 
Q 91 -1172 91 -916 
z
M 1338 166 
Q 1747 166 2144 728 
L 2497 2125 
Q 2453 2347 2322 2505 
Q 2191 2663 1991 2663 
Q 1778 2663 1589 2489 
Q 1400 2316 1275 2075 
Q 1156 1844 1045 1411 
Q 934 978 934 728 
Q 934 509 1034 337 
Q 1134 166 1338 166 
z
" transform="scale(0.015625)"/>
     </defs>
     <use xlink:href="#Times-Roman-54" transform="translate(0 0.4375)"/>
     <use xlink:href="#Times-Roman-72" transform="translate(61.083984 0.4375)"/>
     <use xlink:href="#Times-Roman-61" transform="translate(94.384766 0.4375)"/>
     <use xlink:href="#Times-Roman-6e" transform="translate(138.769531 0.4375)"/>
     <use xlink:href="#Times-Roman-73" transform="translate(188.769531 0.4375)"/>
     <use xlink:href="#Times-Roman-76" transform="translate(227.685547 0.4375)"/>
     <use xlink:href="#Times-Roman-65" transform="translate(277.685547 0.4375)"/>
     <use xlink:href="#Times-Roman-72" transform="translate(322.070312 0.4375)"/>
     <use xlink:href="#Times-Roman-73" transform="translate(355.371094 0.4375)"/>
     <use xlink:href="#Times-Roman-65" transform="translate(394.287109 0.4375)"/>
     <use xlink:href="#Times-Roman-20" transform="translate(438.671875 0.4375)"/>
     <use xlink:href="#Times-Roman-46" transform="translate(463.671875 0.4375)"/>
     <use xlink:href="#Times-Roman-69" transform="translate(519.287109 0.4375)"/>
     <use xlink:href="#Times-Roman-65" transform="translate(547.070312 0.4375)"/>
     <use xlink:href="#Times-Roman-6c" transform="translate(591.455078 0.4375)"/>
     <use xlink:href="#Times-Roman-64" transform="translate(619.238281 0.4375)"/>
     <use xlink:href="#Times-Roman-20" transform="translate(669.238281 0.4375)"/>
     <use xlink:href="#Cmmi10-67" transform="translate(694.238281 0.4375)"/>
    </g>
   </g>
   <g id="Line3DCollection_1">
    <path d="M 61.168777 138.390823 
L 164.504293 95.036427 
L 164.504293 13.260718 
" style="fill: none; stroke: #808080; stroke-width: 0.5"/>
    <path d="M 75.446726 146.898722 
L 178.782241 103.544325 
L 178.782241 21.768617 
" style="fill: none; stroke: #808080; stroke-width: 0.5"/>
    <path d="M 89.724675 155.40662 
L 193.06019 112.052224 
L 193.06019 30.276515 
" style="fill: none; stroke: #808080; stroke-width: 0.5"/>
    <path d="M 104.002623 163.914518 
L 207.338139 120.560122 
L 207.338139 38.784414 
" style="fill: none; stroke: #808080; stroke-width: 0.5"/>
    <path d="M 118.280572 172.422417 
L 221.616088 129.06802 
L 221.616088 47.292312 
" style="fill: none; stroke: #808080; stroke-width: 0.5"/>
   </g>
   <g id="xtick_1">
    <g id="line2d_2">
     <path d="M 61.995461 138.043988 
L 59.515409 139.084494 
" style="fill: none; stroke: #000000; stroke-width: 0.5; stroke-linecap: square"/>
    </g>
    <g id="text_2">
     <!-- 0.6 -->
     <g transform="translate(51.368056 149.689069) scale(0.08 -0.08)">
      <defs>
       <path id="Times-Roman-30" d="M 1531 116 
Q 1991 116 2162 619 
Q 2334 1122 2334 2075 
Q 2334 2834 2231 3288 
Q 2038 4131 1506 4131 
Q 975 4131 778 3263 
Q 675 2800 675 2044 
Q 675 1334 781 909 
Q 981 116 1531 116 
z
M 1522 4300 
Q 2241 4300 2638 3547 
Q 2953 2938 2953 2147 
Q 2953 1525 2759 975 
Q 2394 -59 1494 -59 
Q 878 -59 481 500 
Q 56 1097 56 2122 
Q 56 2928 341 3509 
Q 725 4300 1522 4300 
z
" transform="scale(0.015625)"/>
       <path id="Times-Roman-2e" d="M 1044 -75 
Q 894 -75 791 29 
Q 688 134 688 281 
Q 688 428 792 531 
Q 897 634 1044 634 
Q 1191 634 1294 531 
Q 1397 428 1397 281 
Q 1397 134 1295 29 
Q 1194 -75 1044 -75 
z
" transform="scale(0.015625)"/>
       <path id="Times-Roman-36" d="M 2994 1422 
Q 2994 850 2626 390 
Q 2259 -69 1672 -69 
Q 1122 -69 670 447 
Q 219 963 219 1819 
Q 219 2922 1094 3713 
Q 1875 4375 2850 4375 
L 2866 4272 
Q 2475 4200 2192 4076 
Q 1909 3953 1688 3731 
Q 1459 3506 1259 3159 
Q 1059 2813 984 2472 
Q 1178 2591 1319 2647 
Q 1569 2747 1822 2747 
Q 2319 2747 2656 2403 
Q 2994 2059 2994 1422 
z
M 2422 1181 
Q 2422 1597 2291 1919 
Q 2072 2456 1547 2456 
Q 1063 2456 903 2169 
Q 809 2000 809 1606 
Q 809 1097 1026 609 
Q 1244 122 1713 122 
Q 2084 122 2253 439 
Q 2422 756 2422 1181 
z
" transform="scale(0.015625)"/>
      </defs>
      <use xlink:href="#Times-Roman-30"/>
      <use xlink:href="#Times-Roman-2e" x="50"/>
      <use xlink:href="#Times-Roman-36" x="75"/>
     </g>
    </g>
   </g>
   <g id="xtick_2">
    <g id="line2d_3">
     <path d="M 76.27341 146.551886 
L 73.793358 147.592392 
" style="fill: none; stroke: #000000; stroke-width: 0.5; stroke-linecap: square"/>
    </g>
    <g id="text_3">
     <!-- 0.8 -->
     <g transform="translate(65.646005 158.196967) scale(0.08 -0.08)">
      <defs>
       <path id="Times-Roman-38" d="M 1609 106 
Q 1969 106 2153 306 
Q 2338 506 2338 806 
Q 2338 1147 2142 1358 
Q 1947 1569 1341 1997 
Q 1072 1828 950 1559 
Q 828 1291 828 1041 
Q 828 613 1048 359 
Q 1269 106 1609 106 
z
M 1650 2494 
Q 1944 2700 2056 2841 
Q 2250 3081 2250 3422 
Q 2250 3719 2067 3926 
Q 1884 4134 1513 4134 
Q 1225 4134 1037 3953 
Q 850 3772 850 3513 
Q 850 3219 1070 2967 
Q 1291 2716 1650 2494 
z
M 1169 2131 
Q 756 2463 606 2659 
Q 375 2959 375 3322 
Q 375 3734 717 4021 
Q 1059 4309 1606 4309 
Q 2109 4309 2406 4037 
Q 2703 3766 2703 3406 
Q 2703 3041 2400 2750 
Q 2225 2584 1834 2369 
Q 2366 1975 2595 1683 
Q 2825 1391 2825 994 
Q 2825 544 2486 237 
Q 2147 -69 1578 -69 
Q 1069 -69 705 214 
Q 341 497 341 959 
Q 341 1356 594 1659 
Q 759 1856 1169 2131 
z
" transform="scale(0.015625)"/>
      </defs>
      <use xlink:href="#Times-Roman-30"/>
      <use xlink:href="#Times-Roman-2e" x="50"/>
      <use xlink:href="#Times-Roman-38" x="75"/>
     </g>
    </g>
   </g>
   <g id="xtick_3">
    <g id="line2d_4">
     <path d="M 90.551359 155.059785 
L 88.071307 156.10029 
" style="fill: none; stroke: #000000; stroke-width: 0.5; stroke-linecap: square"/>
    </g>
    <g id="text_4">
     <!-- 1.0 -->
     <g transform="translate(79.923954 166.704865) scale(0.08 -0.08)">
      <defs>
       <path id="Times-Roman-31" d="M 1894 4294 
Q 1906 4278 1907 4270 
Q 1909 4263 1909 4234 
L 1909 472 
Q 1909 231 2037 165 
Q 2166 100 2516 88 
L 2516 0 
L 753 0 
L 753 94 
Q 1131 113 1247 197 
Q 1363 281 1363 563 
L 1363 3456 
Q 1363 3606 1325 3684 
Q 1288 3763 1163 3763 
Q 1081 3763 951 3717 
Q 822 3672 709 3622 
L 709 3709 
L 1856 4294 
L 1894 4294 
z
" transform="scale(0.015625)"/>
      </defs>
      <use xlink:href="#Times-Roman-31"/>
      <use xlink:href="#Times-Roman-2e" x="50"/>
      <use xlink:href="#Times-Roman-30" x="75"/>
     </g>
    </g>
   </g>
   <g id="xtick_4">
    <g id="line2d_5">
     <path d="M 104.829308 163.567683 
L 102.349255 164.608189 
" style="fill: none; stroke: #000000; stroke-width: 0.5; stroke-linecap: square"/>
    </g>
    <g id="text_5">
     <!-- 1.2 -->
     <g transform="translate(94.201903 175.212764) scale(0.08 -0.08)">
      <defs>
       <path id="Times-Roman-32" d="M 191 72 
Q 1334 1259 1743 1815 
Q 2153 2372 2153 2900 
Q 2153 3363 1903 3605 
Q 1653 3847 1306 3847 
Q 878 3847 613 3534 
Q 466 3363 331 3006 
L 197 3034 
Q 353 3753 726 4033 
Q 1100 4313 1528 4313 
Q 2056 4313 2382 3980 
Q 2709 3647 2709 3166 
Q 2709 2653 2356 2178 
Q 2003 1703 822 488 
L 2256 488 
Q 2556 488 2678 559 
Q 2800 631 2953 909 
L 3034 872 
L 2688 0 
L 191 0 
L 191 72 
z
" transform="scale(0.015625)"/>
      </defs>
      <use xlink:href="#Times-Roman-31"/>
      <use xlink:href="#Times-Roman-2e" x="50"/>
      <use xlink:href="#Times-Roman-32" x="75"/>
     </g>
    </g>
   </g>
   <g id="xtick_5">
    <g id="line2d_6">
     <path d="M 119.107256 172.075581 
L 116.627204 173.116087 
" style="fill: none; stroke: #000000; stroke-width: 0.5; stroke-linecap: square"/>
    </g>
    <g id="text_6">
     <!-- 1.4 -->
     <g transform="translate(108.479851 183.720662) scale(0.08 -0.08)">
      <defs>
       <path id="Times-Roman-34" d="M 1866 3650 
L 331 1481 
L 1866 1481 
L 1866 3650 
z
M 2072 4294 
L 2369 4294 
L 2369 1481 
L 3022 1481 
L 3022 1066 
L 2369 1066 
L 2369 0 
L 1872 0 
L 1872 1066 
L 72 1066 
L 72 1481 
L 2072 4294 
z
" transform="scale(0.015625)"/>
      </defs>
      <use xlink:href="#Times-Roman-31"/>
      <use xlink:href="#Times-Roman-2e" x="50"/>
      <use xlink:href="#Times-Roman-34" x="75"/>
     </g>
    </g>
   </g>
  </g>
  <g id="axis3d_2">
   <g id="line2d_7">
    <path d="M 236.414587 137.886102 
L 133.079071 181.240499 
" style="fill: none; stroke: #000000; stroke-width: 0.5; stroke-linecap: square"/>
   </g>
   <g id="text_7">
    <!-- Subsystem Size $\ell$ -->
    <g transform="translate(173.554576 199.786235) rotate(-22.760476) scale(0.09 -0.09)">
     <defs>
      <path id="Times-Roman-53" d="M 413 1288 
Q 575 856 794 600 
Q 1175 153 1741 153 
Q 2047 153 2270 347 
Q 2494 541 2494 888 
Q 2494 1200 2269 1431 
Q 2122 1578 1650 1872 
L 1103 2213 
Q 856 2369 709 2528 
Q 438 2831 438 3197 
Q 438 3681 759 4003 
Q 1081 4325 1613 4325 
Q 1831 4325 2139 4217 
Q 2447 4109 2491 4109 
Q 2609 4109 2654 4165 
Q 2700 4222 2725 4325 
L 2856 4325 
L 2997 2963 
L 2844 2963 
Q 2688 3578 2342 3822 
Q 1997 4066 1659 4066 
Q 1397 4066 1201 3911 
Q 1006 3756 1006 3481 
Q 1006 3234 1156 3059 
Q 1306 2881 1622 2688 
L 2184 2341 
Q 2713 2016 2928 1744 
Q 3141 1469 3141 1094 
Q 3141 591 2761 253 
Q 2381 -84 1791 -84 
Q 1494 -84 1170 28 
Q 847 141 800 141 
Q 688 141 648 72 
Q 609 3 597 -75 
L 456 -75 
L 266 1288 
L 413 1288 
z
M 1781 4325 
L 1781 4325 
z
" transform="scale(0.015625)"/>
      <path id="Times-Roman-75" d="M 991 2894 
L 991 894 
Q 991 681 1050 553 
Q 1166 316 1475 316 
Q 1688 316 1891 456 
Q 2006 534 2125 672 
L 2125 2384 
Q 2125 2625 2031 2700 
Q 1938 2775 1656 2791 
L 1656 2894 
L 2666 2894 
L 2666 694 
Q 2666 481 2742 401 
Q 2819 322 3066 331 
L 3066 244 
Q 2894 197 2812 173 
Q 2731 150 2541 88 
Q 2459 59 2184 -47 
Q 2169 -47 2166 -33 
Q 2163 -19 2163 0 
L 2163 503 
Q 1950 250 1775 128 
Q 1509 -59 1213 -59 
Q 941 -59 700 134 
Q 456 325 456 775 
L 456 2397 
Q 456 2647 350 2731 
Q 281 2784 56 2806 
L 56 2894 
L 991 2894 
z
M 1603 2931 
L 1603 2931 
z
" transform="scale(0.015625)"/>
      <path id="Times-Roman-62" d="M 22 3975 
L 22 4081 
Q 378 4163 662 4263 
Q 947 4363 969 4363 
Q 975 4344 975 4325 
L 975 2422 
Q 1056 2572 1219 2706 
Q 1506 2941 1881 2941 
Q 2341 2941 2666 2553 
Q 2991 2166 2991 1547 
Q 2991 884 2569 412 
Q 2147 -59 1459 -59 
Q 1113 -59 778 78 
Q 444 216 444 353 
L 444 3656 
Q 444 3838 394 3914 
Q 344 3991 163 3991 
L 22 3975 
z
M 963 456 
Q 991 294 1206 223 
Q 1422 153 1584 153 
Q 2022 153 2233 481 
Q 2444 809 2444 1275 
Q 2444 1741 2247 2136 
Q 2050 2531 1609 2531 
Q 1388 2531 1175 2395 
Q 963 2259 963 2050 
L 963 456 
z
" transform="scale(0.015625)"/>
      <path id="Times-Roman-79" d="M 88 2872 
L 1406 2872 
L 1406 2775 
Q 1250 2772 1175 2747 
Q 1031 2706 1031 2588 
Q 1031 2544 1047 2498 
Q 1063 2453 1103 2363 
L 1834 741 
L 2422 2375 
Q 2431 2400 2451 2487 
Q 2472 2575 2472 2606 
Q 2472 2688 2415 2725 
Q 2359 2763 2272 2769 
L 2175 2775 
L 2175 2872 
L 3034 2872 
L 3034 2775 
Q 2906 2759 2842 2687 
Q 2778 2616 2731 2488 
L 1747 -119 
Q 1491 -794 1256 -1097 
Q 1022 -1400 663 -1400 
Q 488 -1400 334 -1312 
Q 181 -1225 181 -1034 
Q 181 -909 273 -829 
Q 366 -750 506 -750 
Q 588 -750 748 -809 
Q 909 -869 978 -869 
Q 1153 -869 1347 -462 
Q 1541 -56 1541 81 
Q 1541 109 1531 150 
Q 1522 191 1509 222 
L 509 2384 
Q 403 2616 323 2689 
Q 244 2763 88 2784 
L 88 2872 
z
M 1575 2931 
L 1575 2931 
z
" transform="scale(0.015625)"/>
      <path id="Times-Roman-74" d="M 1628 2881 
L 1628 2656 
L 991 2656 
L 984 856 
Q 984 619 1025 497 
Q 1100 281 1319 281 
Q 1431 281 1514 334 
Q 1597 388 1703 503 
L 1784 434 
L 1716 341 
Q 1553 122 1372 31 
Q 1191 -59 1022 -59 
Q 653 -59 522 269 
Q 450 447 450 763 
L 450 2656 
L 109 2656 
Q 94 2666 86 2675 
Q 78 2684 78 2700 
Q 78 2731 92 2748 
Q 106 2766 181 2828 
Q 397 3006 492 3117 
Q 588 3228 941 3703 
Q 981 3703 989 3697 
Q 997 3691 997 3650 
L 997 2881 
L 1628 2881 
z
" transform="scale(0.015625)"/>
      <path id="Times-Roman-6d" d="M 103 81 
Q 347 103 428 163 
Q 553 253 553 525 
L 553 2141 
Q 553 2372 492 2444 
Q 431 2516 291 2516 
Q 225 2516 192 2509 
Q 159 2503 116 2488 
L 116 2597 
L 341 2672 
Q 463 2713 741 2819 
Q 1019 2925 1034 2925 
Q 1050 2925 1053 2909 
Q 1056 2894 1056 2850 
L 1056 2428 
Q 1366 2709 1591 2817 
Q 1816 2925 2053 2925 
Q 2375 2925 2566 2706 
Q 2666 2588 2731 2384 
Q 2963 2619 3134 2731 
Q 3431 2925 3741 2925 
Q 4244 2925 4413 2516 
Q 4509 2284 4509 1784 
L 4509 488 
Q 4509 266 4607 186 
Q 4706 106 4963 81 
L 4963 0 
L 3553 0 
L 3553 88 
Q 3825 113 3911 197 
Q 3997 281 3997 541 
L 3997 1888 
Q 3997 2191 3931 2334 
Q 3816 2591 3478 2591 
Q 3275 2591 3075 2456 
Q 2959 2378 2791 2206 
L 2791 606 
Q 2791 353 2880 222 
Q 2969 91 3256 81 
L 3256 0 
L 1822 0 
L 1822 81 
Q 2119 119 2200 225 
Q 2281 331 2281 747 
L 2281 1622 
Q 2281 2103 2219 2284 
Q 2116 2591 1781 2591 
Q 1591 2591 1406 2486 
Q 1222 2381 1081 2213 
L 1081 503 
Q 1081 266 1164 175 
Q 1247 84 1525 81 
L 1525 0 
L 103 0 
L 103 81 
z
" transform="scale(0.015625)"/>
      <path id="Times-Roman-7a" d="M 2591 2872 
L 2591 2797 
L 856 197 
L 1741 197 
Q 2200 197 2322 314 
Q 2444 431 2563 888 
L 2672 866 
L 2584 0 
L 163 0 
L 163 72 
L 1872 2681 
L 1034 2681 
Q 697 2681 594 2565 
Q 491 2450 450 2116 
L 341 2116 
L 353 2872 
L 2591 2872 
z
M 1425 2931 
L 1425 2931 
z
" transform="scale(0.015625)"/>
      <path id="Cmmi10-60" d="M 153 475 
Q 125 475 94 509 
Q 63 544 63 575 
Q 63 628 594 1113 
Q 594 1141 592 1159 
Q 591 1178 588 1197 
Q 588 1472 631 1758 
Q 675 2044 751 2328 
Q 828 2613 943 2922 
Q 1059 3231 1178 3463 
Q 1384 3884 1628 4198 
Q 1872 4513 2169 4513 
Q 2372 4513 2459 4373 
Q 2547 4234 2547 4025 
Q 2547 2853 991 1269 
Q 966 994 966 878 
Q 966 78 1331 78 
Q 1488 78 1642 161 
Q 1797 244 1908 341 
Q 2019 438 2216 628 
Q 2228 641 2253 641 
Q 2288 641 2319 603 
Q 2350 566 2350 531 
Q 2350 509 2322 488 
Q 2038 209 1809 56 
Q 1581 -97 1319 -97 
Q 981 -97 817 193 
Q 653 484 609 884 
Q 438 713 191 488 
Q 184 475 153 475 
z
M 1044 1575 
Q 1384 1938 1681 2338 
Q 1978 2738 2176 3180 
Q 2375 3622 2375 4044 
Q 2375 4347 2163 4347 
Q 1934 4347 1696 3801 
Q 1459 3256 1290 2622 
Q 1122 1988 1044 1575 
z
" transform="scale(0.015625)"/>
     </defs>
     <use xlink:href="#Times-Roman-53" transform="translate(0 0.484375)"/>
     <use xlink:href="#Times-Roman-75" transform="translate(55.615234 0.484375)"/>
     <use xlink:href="#Times-Roman-62" transform="translate(105.615234 0.484375)"/>
     <use xlink:href="#Times-Roman-73" transform="translate(155.615234 0.484375)"/>
     <use xlink:href="#Times-Roman-79" transform="translate(194.53125 0.484375)"/>
     <use xlink:href="#Times-Roman-73" transform="translate(244.53125 0.484375)"/>
     <use xlink:href="#Times-Roman-74" transform="translate(283.447266 0.484375)"/>
     <use xlink:href="#Times-Roman-65" transform="translate(311.230469 0.484375)"/>
     <use xlink:href="#Times-Roman-6d" transform="translate(355.615234 0.484375)"/>
     <use xlink:href="#Times-Roman-20" transform="translate(433.398438 0.484375)"/>
     <use xlink:href="#Times-Roman-53" transform="translate(458.398438 0.484375)"/>
     <use xlink:href="#Times-Roman-69" transform="translate(514.013672 0.484375)"/>
     <use xlink:href="#Times-Roman-7a" transform="translate(541.796875 0.484375)"/>
     <use xlink:href="#Times-Roman-65" transform="translate(586.181641 0.484375)"/>
     <use xlink:href="#Times-Roman-20" transform="translate(630.566406 0.484375)"/>
     <use xlink:href="#Cmmi10-60" transform="translate(655.566406 0.484375)"/>
    </g>
   </g>
   <g id="Line3DCollection_2">
    <path d="M 52.946175 45.038117 
L 52.946175 126.813825 
L 139.654968 178.481583 
" style="fill: none; stroke: #808080; stroke-width: 0.5"/>
    <path d="M 65.829564 39.632893 
L 65.829564 121.408602 
L 152.538357 173.076359 
" style="fill: none; stroke: #808080; stroke-width: 0.5"/>
    <path d="M 78.712953 34.22767 
L 78.712953 116.003378 
L 165.421745 167.671136 
" style="fill: none; stroke: #808080; stroke-width: 0.5"/>
    <path d="M 91.596342 28.822446 
L 91.596342 110.598155 
L 178.305134 162.265912 
" style="fill: none; stroke: #808080; stroke-width: 0.5"/>
    <path d="M 104.47973 23.417223 
L 104.47973 105.192931 
L 191.188523 156.860689 
" style="fill: none; stroke: #808080; stroke-width: 0.5"/>
    <path d="M 117.363119 18.011999 
L 117.363119 99.787708 
L 204.071912 151.455465 
" style="fill: none; stroke: #808080; stroke-width: 0.5"/>
    <path d="M 130.246508 12.606776 
L 130.246508 94.382484 
L 216.955301 146.050242 
" style="fill: none; stroke: #808080; stroke-width: 0.5"/>
    <path d="M 143.129897 7.201552 
L 143.129897 88.977261 
L 229.83869 140.645019 
" style="fill: none; stroke: #808080; stroke-width: 0.5"/>
   </g>
   <g id="xtick_6">
    <g id="line2d_8">
     <path d="M 138.961297 178.068241 
L 141.042308 179.308267 
" style="fill: none; stroke: #000000; stroke-width: 0.5; stroke-linecap: square"/>
    </g>
    <g id="text_8">
     <!-- 1 -->
     <g transform="translate(141.683251 190.166047) scale(0.08 -0.08)">
      <use xlink:href="#Times-Roman-31"/>
     </g>
    </g>
   </g>
   <g id="xtick_7">
    <g id="line2d_9">
     <path d="M 151.844686 172.663017 
L 153.925697 173.903043 
" style="fill: none; stroke: #000000; stroke-width: 0.5; stroke-linecap: square"/>
    </g>
    <g id="text_9">
     <!-- 2 -->
     <g transform="translate(154.56664 184.760823) scale(0.08 -0.08)">
      <use xlink:href="#Times-Roman-32"/>
     </g>
    </g>
   </g>
   <g id="xtick_8">
    <g id="line2d_10">
     <path d="M 164.728075 167.257794 
L 166.809086 168.49782 
" style="fill: none; stroke: #000000; stroke-width: 0.5; stroke-linecap: square"/>
    </g>
    <g id="text_10">
     <!-- 3 -->
     <g transform="translate(167.450029 179.3556) scale(0.08 -0.08)">
      <defs>
       <path id="Times-Roman-33" d="M 497 544 
Q 669 544 951 366 
Q 1234 188 1431 188 
Q 1869 188 2081 483 
Q 2294 778 2294 1125 
Q 2294 1459 2122 1713 
Q 1831 2141 1141 2141 
Q 1100 2141 1062 2139 
Q 1025 2138 975 2131 
L 969 2213 
Q 1469 2394 1756 2628 
Q 2044 2863 2044 3247 
Q 2044 3588 1817 3766 
Q 1591 3944 1300 3944 
Q 956 3944 694 3691 
Q 550 3553 384 3266 
L 288 3288 
Q 413 3763 753 4047 
Q 1094 4331 1541 4331 
Q 2019 4331 2280 4068 
Q 2541 3806 2541 3463 
Q 2541 3159 2325 2906 
Q 2203 2763 1947 2584 
Q 2247 2456 2428 2284 
Q 2769 1956 2769 1453 
Q 2769 859 2301 406 
Q 1834 -47 972 -47 
Q 588 -47 433 67 
Q 278 181 278 313 
Q 278 394 329 469 
Q 381 544 497 544 
z
" transform="scale(0.015625)"/>
      </defs>
      <use xlink:href="#Times-Roman-33"/>
     </g>
    </g>
   </g>
   <g id="xtick_9">
    <g id="line2d_11">
     <path d="M 177.611464 161.85257 
L 179.692475 163.092596 
" style="fill: none; stroke: #000000; stroke-width: 0.5; stroke-linecap: square"/>
    </g>
    <g id="text_11">
     <!-- 4 -->
     <g transform="translate(180.333417 173.950376) scale(0.08 -0.08)">
      <use xlink:href="#Times-Roman-34"/>
     </g>
    </g>
   </g>
   <g id="xtick_10">
    <g id="line2d_12">
     <path d="M 190.494853 156.447347 
L 192.575864 157.687373 
" style="fill: none; stroke: #000000; stroke-width: 0.5; stroke-linecap: square"/>
    </g>
    <g id="text_12">
     <!-- 5 -->
     <g transform="translate(193.216806 168.545153) scale(0.08 -0.08)">
      <defs>
       <path id="Times-Roman-35" d="M 478 572 
Q 656 572 945 370 
Q 1234 169 1391 169 
Q 1750 169 2019 486 
Q 2288 803 2288 1266 
Q 2288 2075 1425 2431 
Q 947 2628 534 2628 
Q 466 2628 448 2633 
Q 431 2638 406 2666 
Q 413 2691 417 2708 
Q 422 2725 428 2741 
L 1109 4234 
L 2450 4234 
Q 2550 4234 2604 4268 
Q 2659 4303 2747 4397 
L 2797 4353 
L 2553 3775 
Q 2541 3747 2484 3739 
Q 2428 3731 2363 3731 
L 1153 3731 
L 888 3184 
Q 1400 3097 1638 3019 
Q 2028 2888 2291 2631 
Q 2516 2409 2631 2132 
Q 2747 1856 2747 1547 
Q 2747 856 2255 393 
Q 1763 -69 1009 -69 
Q 703 -69 516 -9 
Q 203 88 203 338 
Q 203 431 270 501 
Q 338 572 478 572 
z
" transform="scale(0.015625)"/>
      </defs>
      <use xlink:href="#Times-Roman-35"/>
     </g>
    </g>
   </g>
   <g id="xtick_11">
    <g id="line2d_13">
     <path d="M 203.378242 151.042123 
L 205.459253 152.28215 
" style="fill: none; stroke: #000000; stroke-width: 0.5; stroke-linecap: square"/>
    </g>
    <g id="text_13">
     <!-- 6 -->
     <g transform="translate(206.100195 163.13993) scale(0.08 -0.08)">
      <use xlink:href="#Times-Roman-36"/>
     </g>
    </g>
   </g>
   <g id="xtick_12">
    <g id="line2d_14">
     <path d="M 216.261631 145.6369 
L 218.342642 146.876926 
" style="fill: none; stroke: #000000; stroke-width: 0.5; stroke-linecap: square"/>
    </g>
    <g id="text_14">
     <!-- 7 -->
     <g transform="translate(218.983584 157.734706) scale(0.08 -0.08)">
      <defs>
       <path id="Times-Roman-37" d="M 2872 4234 
L 2872 4131 
L 1516 -59 
L 1103 -59 
L 2369 3763 
L 1006 3763 
Q 703 3763 570 3663 
Q 438 3563 234 3244 
L 125 3294 
Q 328 3794 376 3911 
Q 425 4028 503 4234 
L 2872 4234 
z
" transform="scale(0.015625)"/>
      </defs>
      <use xlink:href="#Times-Roman-37"/>
     </g>
    </g>
   </g>
   <g id="xtick_13">
    <g id="line2d_15">
     <path d="M 229.14502 140.231676 
L 231.226031 141.471703 
" style="fill: none; stroke: #000000; stroke-width: 0.5; stroke-linecap: square"/>
    </g>
    <g id="text_15">
     <!-- 8 -->
     <g transform="translate(231.866973 152.329483) scale(0.08 -0.08)">
      <use xlink:href="#Times-Roman-38"/>
     </g>
    </g>
   </g>
  </g>
  <g id="axis3d_3">
   <g id="line2d_16">
    <path d="M 46.370278 129.572741 
L 133.079071 181.240499 
" style="fill: none; stroke: #000000; stroke-width: 0.5; stroke-linecap: square"/>
   </g>
   <g id="Line3DCollection_3">
    <path d="M 236.414587 122.143089 
L 149.705794 70.475332 
L 46.370278 113.829728 
" style="fill: none; stroke: #808080; stroke-width: 0.5"/>
    <path d="M 236.414587 100.886804 
L 149.705794 49.219046 
L 46.370278 92.573443 
" style="fill: none; stroke: #808080; stroke-width: 0.5"/>
    <path d="M 236.414587 79.630519 
L 149.705794 27.962761 
L 46.370278 71.317157 
" style="fill: none; stroke: #808080; stroke-width: 0.5"/>
    <path d="M 236.414587 58.374233 
L 149.705794 6.706476 
L 46.370278 50.060872 
" style="fill: none; stroke: #808080; stroke-width: 0.5"/>
   </g>
   <g id="xtick_14">
    <g id="line2d_17">
     <path d="M 45.676608 113.416386 
L 47.757619 114.656412 
" style="fill: none; stroke: #000000; stroke-width: 0.5; stroke-linecap: square"/>
    </g>
    <g id="text_16">
     <!-- 0.2 -->
     <g transform="translate(32.541274 118.928509) scale(0.08 -0.08)">
      <use xlink:href="#Times-Roman-30"/>
      <use xlink:href="#Times-Roman-2e" x="50"/>
      <use xlink:href="#Times-Roman-32" x="75"/>
     </g>
    </g>
   </g>
   <g id="xtick_15">
    <g id="line2d_18">
     <path d="M 45.676608 92.160101 
L 47.757619 93.400127 
" style="fill: none; stroke: #000000; stroke-width: 0.5; stroke-linecap: square"/>
    </g>
    <g id="text_17">
     <!-- 0.4 -->
     <g transform="translate(32.541274 97.672224) scale(0.08 -0.08)">
      <use xlink:href="#Times-Roman-30"/>
      <use xlink:href="#Times-Roman-2e" x="50"/>
      <use xlink:href="#Times-Roman-34" x="75"/>
     </g>
    </g>
   </g>
   <g id="xtick_16">
    <g id="line2d_19">
     <path d="M 45.676608 70.903815 
L 47.757619 72.143842 
" style="fill: none; stroke: #000000; stroke-width: 0.5; stroke-linecap: square"/>
    </g>
    <g id="text_18">
     <!-- 0.6 -->
     <g transform="translate(32.541274 76.415939) scale(0.08 -0.08)">
      <use xlink:href="#Times-Roman-30"/>
      <use xlink:href="#Times-Roman-2e" x="50"/>
      <use xlink:href="#Times-Roman-36" x="75"/>
     </g>
    </g>
   </g>
   <g id="xtick_17">
    <g id="line2d_20">
     <path d="M 45.676608 49.64753 
L 47.757619 50.887556 
" style="fill: none; stroke: #000000; stroke-width: 0.5; stroke-linecap: square"/>
    </g>
    <g id="text_19">
     <!-- 0.8 -->
     <g transform="translate(32.541274 55.159653) scale(0.08 -0.08)">
      <use xlink:href="#Times-Roman-30"/>
      <use xlink:href="#Times-Roman-2e" x="50"/>
      <use xlink:href="#Times-Roman-38" x="75"/>
     </g>
    </g>
   </g>
  </g>
  <g id="axes_1">
   <g id="Poly3DCollection_1">
    <path d="M 135.764341 28.82129 
L 137.906033 30.097475 
L 150.789422 24.690934 
L 148.64773 23.414749 
z
" clip-path="url(#pd3e04bc1d6)" style="fill: #abae13"/>
    <path d="M 137.906033 30.097475 
L 141.47552 32.9378 
L 154.358909 27.569562 
L 150.789422 24.690934 
z
" clip-path="url(#pd3e04bc1d6)" style="fill: #a4a712"/>
    <path d="M 141.47552 32.9378 
L 145.045007 34.421187 
L 157.928396 29.036763 
L 154.358909 27.569562 
z
" clip-path="url(#pd3e04bc1d6)" style="fill: #9ab11c"/>
    <path d="M 122.880952 34.280079 
L 125.022644 35.556264 
L 137.906033 30.097475 
L 135.764341 28.82129 
z
" clip-path="url(#pd3e04bc1d6)" style="fill: #abae13"/>
    <path d="M 145.045007 34.421187 
L 148.614494 36.756133 
L 161.497883 31.367054 
L 157.928396 29.036763 
z
" clip-path="url(#pd3e04bc1d6)" style="fill: #7da629"/>
    <path d="M 125.022644 35.556264 
L 128.592131 38.387247 
L 141.47552 32.9378 
L 137.906033 30.097475 
z
" clip-path="url(#pd3e04bc1d6)" style="fill: #a4a712"/>
    <path d="M 148.614494 36.756133 
L 152.183982 38.226448 
L 165.067371 32.751621 
L 161.497883 31.367054 
z
" clip-path="url(#pd3e04bc1d6)" style="fill: #6da939"/>
    <path d="M 128.592131 38.387247 
L 132.161618 39.839685 
L 145.045007 34.421187 
L 141.47552 32.9378 
z
" clip-path="url(#pd3e04bc1d6)" style="fill: #9bb21c"/>
    <path d="M 152.183982 38.226448 
L 155.753469 40.103417 
L 168.636858 34.664215 
L 165.067371 32.751621 
z
" clip-path="url(#pd3e04bc1d6)" style="fill: #55a045"/>
    <path d="M 109.997563 39.609386 
L 112.139255 40.885571 
L 125.022644 35.556264 
L 122.880952 34.280079 
z
" clip-path="url(#pd3e04bc1d6)" style="fill: #abae13"/>
    <path d="M 132.161618 39.839685 
L 135.731106 42.2269 
L 148.614494 36.756133 
L 145.045007 34.421187 
z
" clip-path="url(#pd3e04bc1d6)" style="fill: #7da528"/>
    <path d="M 112.139255 40.885571 
L 115.708742 43.759119 
L 128.592131 38.387247 
L 125.022644 35.556264 
z
" clip-path="url(#pd3e04bc1d6)" style="fill: #a4a712"/>
    <path d="M 155.753469 40.103417 
L 159.322956 42.622038 
L 172.206345 37.220971 
L 168.636858 34.664215 
z
" clip-path="url(#pd3e04bc1d6)" style="fill: #40944d"/>
    <path d="M 135.731106 42.2269 
L 139.300593 43.64502 
L 152.183982 38.226448 
L 148.614494 36.756133 
z
" clip-path="url(#pd3e04bc1d6)" style="fill: #6daa39"/>
    <path d="M 115.708742 43.759119 
L 119.278229 45.26219 
L 132.161618 39.839685 
L 128.592131 38.387247 
z
" clip-path="url(#pd3e04bc1d6)" style="fill: #9ab11c"/>
    <path d="M 159.322956 42.622038 
L 162.892443 44.814812 
L 175.775832 38.923893 
L 172.206345 37.220971 
z
" clip-path="url(#pd3e04bc1d6)" style="fill: #319157"/>
    <path d="M 184.309366 95.013994 
L 187.878853 104.465938 
L 200.762242 99.073745 
L 197.192755 89.256639 
z
" clip-path="url(#pd3e04bc1d6)" style="fill: #163f4b"/>
    <path d="M 139.300593 43.64502 
L 142.87008 45.78037 
L 155.753469 40.103417 
L 152.183982 38.226448 
z
" clip-path="url(#pd3e04bc1d6)" style="fill: #549e44"/>
    <path d="M 187.878853 104.465938 
L 191.448341 109.593099 
L 204.33173 104.667088 
L 200.762242 99.073745 
z
" clip-path="url(#pd3e04bc1d6)" style="fill: #1e455a"/>
    <path d="M 180.739879 85.394424 
L 184.309366 95.013994 
L 197.192755 89.256639 
L 193.623268 79.401092 
z
" clip-path="url(#pd3e04bc1d6)" style="fill: #14444b"/>
    <path d="M 97.114174 45.104258 
L 99.255866 46.380443 
L 112.139255 40.885571 
L 109.997563 39.609386 
z
" clip-path="url(#pd3e04bc1d6)" style="fill: #abae13"/>
    <path d="M 177.170392 75.491942 
L 180.739879 85.394424 
L 193.623268 79.401092 
L 190.053781 70.647226 
z
" clip-path="url(#pd3e04bc1d6)" style="fill: #12494a"/>
    <path d="M 162.892443 44.814812 
L 166.46193 47.719713 
L 179.345319 42.505467 
L 175.775832 38.923893 
z
" clip-path="url(#pd3e04bc1d6)" style="fill: #24845a"/>
    <path d="M 119.278229 45.26219 
L 122.847717 47.748279 
L 135.731106 42.2269 
L 132.161618 39.839685 
z
" clip-path="url(#pd3e04bc1d6)" style="fill: #7ca428"/>
    <path d="M 191.448341 109.593099 
L 195.017828 115.52277 
L 207.901217 110.078307 
L 204.33173 104.667088 
z
" clip-path="url(#pd3e04bc1d6)" style="fill: #1f3c56"/>
    <path d="M 173.600905 63.679106 
L 177.170392 75.491942 
L 190.053781 70.647226 
L 186.484294 57.13209 
z
" clip-path="url(#pd3e04bc1d6)" style="fill: #104b46"/>
    <path d="M 166.46193 47.719713 
L 170.031418 54.99276 
L 182.914806 49.425266 
L 179.345319 42.505467 
z
" clip-path="url(#pd3e04bc1d6)" style="fill: #15624b"/>
    <path d="M 99.255866 46.380443 
L 102.825353 49.167478 
L 115.708742 43.759119 
L 112.139255 40.885571 
z
" clip-path="url(#pd3e04bc1d6)" style="fill: #a5a712"/>
    <path d="M 142.87008 45.78037 
L 146.439567 48.204794 
L 159.322956 42.622038 
L 155.753469 40.103417 
z
" clip-path="url(#pd3e04bc1d6)" style="fill: #41954d"/>
    <path d="M 170.031418 54.99276 
L 173.600905 63.679106 
L 186.484294 57.13209 
L 182.914806 49.425266 
z
" clip-path="url(#pd3e04bc1d6)" style="fill: #11574a"/>
    <path d="M 195.017828 115.52277 
L 198.587315 120.244616 
L 211.470704 115.070321 
L 207.901217 110.078307 
z
" clip-path="url(#pd3e04bc1d6)" style="fill: #25395b"/>
    <path d="M 122.847717 47.748279 
L 126.417204 49.214969 
L 139.300593 43.64502 
L 135.731106 42.2269 
z
" clip-path="url(#pd3e04bc1d6)" style="fill: #6da939"/>
    <path d="M 198.587315 120.244616 
L 202.156802 124.011906 
L 215.040191 119.010361 
L 211.470704 115.070321 
z
" clip-path="url(#pd3e04bc1d6)" style="fill: #2b345f"/>
    <path d="M 146.439567 48.204794 
L 150.009054 50.707261 
L 162.892443 44.814812 
L 159.322956 42.622038 
z
" clip-path="url(#pd3e04bc1d6)" style="fill: #308e56"/>
    <path d="M 102.825353 49.167478 
L 106.394841 50.781974 
L 119.278229 45.26219 
L 115.708742 43.759119 
z
" clip-path="url(#pd3e04bc1d6)" style="fill: #99b01c"/>
    <path d="M 171.425977 100.944046 
L 174.995465 109.908466 
L 187.878853 104.465938 
L 184.309366 95.013994 
z
" clip-path="url(#pd3e04bc1d6)" style="fill: #17404c"/>
    <path d="M 126.417204 49.214969 
L 129.986691 51.653264 
L 142.87008 45.78037 
L 139.300593 43.64502 
z
" clip-path="url(#pd3e04bc1d6)" style="fill: #539b43"/>
    <path d="M 202.156802 124.011906 
L 205.726289 127.801611 
L 218.609678 122.495729 
L 215.040191 119.010361 
z
" clip-path="url(#pd3e04bc1d6)" style="fill: #2e2c5c"/>
    <path d="M 167.85649 91.786661 
L 171.425977 100.944046 
L 184.309366 95.013994 
L 180.739879 85.394424 
z
" clip-path="url(#pd3e04bc1d6)" style="fill: #14454c"/>
    <path d="M 174.995465 109.908466 
L 178.564952 115.236318 
L 191.448341 109.593099 
L 187.878853 104.465938 
z
" clip-path="url(#pd3e04bc1d6)" style="fill: #1d445a"/>
    <path d="M 84.230785 50.55277 
L 86.372477 51.828954 
L 99.255866 46.380443 
L 97.114174 45.104258 
z
" clip-path="url(#pd3e04bc1d6)" style="fill: #abae13"/>
    <path d="M 164.287003 81.78993 
L 167.85649 91.786661 
L 180.739879 85.394424 
L 177.170392 75.491942 
z
" clip-path="url(#pd3e04bc1d6)" style="fill: #12494a"/>
    <path d="M 150.009054 50.707261 
L 153.578541 54.505331 
L 166.46193 47.719713 
L 162.892443 44.814812 
z
" clip-path="url(#pd3e04bc1d6)" style="fill: #227d55"/>
    <path d="M 106.394841 50.781974 
L 109.964328 53.411479 
L 122.847717 47.748279 
L 119.278229 45.26219 
z
" clip-path="url(#pd3e04bc1d6)" style="fill: #7ba328"/>
    <path d="M 160.717516 70.162735 
L 164.287003 81.78993 
L 177.170392 75.491942 
L 173.600905 63.679106 
z
" clip-path="url(#pd3e04bc1d6)" style="fill: #104c46"/>
    <path d="M 178.564952 115.236318 
L 182.134439 120.920734 
L 195.017828 115.52277 
L 191.448341 109.593099 
z
" clip-path="url(#pd3e04bc1d6)" style="fill: #1f3d57"/>
    <path d="M 205.726289 127.801611 
L 209.295777 131.76007 
L 222.179166 126.171692 
L 218.609678 122.495729 
z
" clip-path="url(#pd3e04bc1d6)" style="fill: #302257"/>
    <path d="M 153.578541 54.505331 
L 157.148029 61.21346 
L 170.031418 54.99276 
L 166.46193 47.719713 
z
" clip-path="url(#pd3e04bc1d6)" style="fill: #15644d"/>
    <path d="M 157.148029 61.21346 
L 160.717516 70.162735 
L 173.600905 63.679106 
L 170.031418 54.99276 
z
" clip-path="url(#pd3e04bc1d6)" style="fill: #115749"/>
    <path d="M 129.986691 51.653264 
L 133.556178 54.159886 
L 146.439567 48.204794 
L 142.87008 45.78037 
z
" clip-path="url(#pd3e04bc1d6)" style="fill: #40954d"/>
    <path d="M 86.372477 51.828954 
L 89.941964 54.958864 
L 102.825353 49.167478 
L 99.255866 46.380443 
z
" clip-path="url(#pd3e04bc1d6)" style="fill: #a1a412"/>
    <path d="M 182.134439 120.920734 
L 185.703926 125.833218 
L 198.587315 120.244616 
L 195.017828 115.52277 
z
" clip-path="url(#pd3e04bc1d6)" style="fill: #24385a"/>
    <path d="M 209.295777 131.76007 
L 211.437469 133.036255 
L 224.320858 127.447877 
L 222.179166 126.171692 
z
" clip-path="url(#pd3e04bc1d6)" style="fill: #371c59"/>
    <path d="M 109.964328 53.411479 
L 113.533815 54.892996 
L 126.417204 49.214969 
L 122.847717 47.748279 
z
" clip-path="url(#pd3e04bc1d6)" style="fill: #6da939"/>
    <path d="M 185.703926 125.833218 
L 189.273413 129.527864 
L 202.156802 124.011906 
L 198.587315 120.244616 
z
" clip-path="url(#pd3e04bc1d6)" style="fill: #2b3560"/>
    <path d="M 133.556178 54.159886 
L 137.125665 57.066297 
L 150.009054 50.707261 
L 146.439567 48.204794 
z
" clip-path="url(#pd3e04bc1d6)" style="fill: #2f8b54"/>
    <path d="M 89.941964 54.958864 
L 93.511452 56.797625 
L 106.394841 50.781974 
L 102.825353 49.167478 
z
" clip-path="url(#pd3e04bc1d6)" style="fill: #98ae1b"/>
    <path d="M 158.542588 107.34739 
L 162.112076 115.160134 
L 174.995465 109.908466 
L 171.425977 100.944046 
z
" clip-path="url(#pd3e04bc1d6)" style="fill: #184350"/>
    <path d="M 113.533815 54.892996 
L 117.103302 57.336381 
L 129.986691 51.653264 
L 126.417204 49.214969 
z
" clip-path="url(#pd3e04bc1d6)" style="fill: #539b43"/>
    <path d="M 154.973101 98.03831 
L 158.542588 107.34739 
L 171.425977 100.944046 
L 167.85649 91.786661 
z
" clip-path="url(#pd3e04bc1d6)" style="fill: #14454c"/>
    <path d="M 189.273413 129.527864 
L 192.8429 133.38611 
L 205.726289 127.801611 
L 202.156802 124.011906 
z
" clip-path="url(#pd3e04bc1d6)" style="fill: #2e2b5c"/>
    <path d="M 151.403614 88.423958 
L 154.973101 98.03831 
L 167.85649 91.786661 
L 164.287003 81.78993 
z
" clip-path="url(#pd3e04bc1d6)" style="fill: #124a4b"/>
    <path d="M 137.125665 57.066297 
L 140.695153 61.246363 
L 153.578541 54.505331 
L 150.009054 50.707261 
z
" clip-path="url(#pd3e04bc1d6)" style="fill: #217a53"/>
    <path d="M 162.112076 115.160134 
L 165.681563 121.192229 
L 178.564952 115.236318 
L 174.995465 109.908466 
z
" clip-path="url(#pd3e04bc1d6)" style="fill: #1c4256"/>
    <path d="M 71.347396 56.547844 
L 73.489088 57.824029 
L 86.372477 51.828954 
L 84.230785 50.55277 
z
" clip-path="url(#pd3e04bc1d6)" style="fill: #acaf13"/>
    <path d="M 93.511452 56.797625 
L 97.080939 59.548929 
L 109.964328 53.411479 
L 106.394841 50.781974 
z
" clip-path="url(#pd3e04bc1d6)" style="fill: #7aa228"/>
    <path d="M 147.834127 76.808879 
L 151.403614 88.423958 
L 164.287003 81.78993 
L 160.717516 70.162735 
z
" clip-path="url(#pd3e04bc1d6)" style="fill: #104c46"/>
    <path d="M 140.695153 61.246363 
L 144.26464 68.545597 
L 157.148029 61.21346 
L 153.578541 54.505331 
z
" clip-path="url(#pd3e04bc1d6)" style="fill: #15624b"/>
    <path d="M 165.681563 121.192229 
L 169.25105 126.288143 
L 182.134439 120.920734 
L 178.564952 115.236318 
z
" clip-path="url(#pd3e04bc1d6)" style="fill: #203f5a"/>
    <path d="M 144.26464 68.545597 
L 147.834127 76.808879 
L 160.717516 70.162735 
L 157.148029 61.21346 
z
" clip-path="url(#pd3e04bc1d6)" style="fill: #11594b"/>
    <path d="M 192.8429 133.38611 
L 196.412388 137.29975 
L 209.295777 131.76007 
L 205.726289 127.801611 
z
" clip-path="url(#pd3e04bc1d6)" style="fill: #302257"/>
    <path d="M 117.103302 57.336381 
L 120.672789 60.403798 
L 133.556178 54.159886 
L 129.986691 51.653264 
z
" clip-path="url(#pd3e04bc1d6)" style="fill: #3e904a"/>
    <path d="M 73.489088 57.824029 
L 77.058575 61.628996 
L 89.941964 54.958864 
L 86.372477 51.828954 
z
" clip-path="url(#pd3e04bc1d6)" style="fill: #9b9e11"/>
    <path d="M 169.25105 126.288143 
L 172.820537 131.180273 
L 185.703926 125.833218 
L 182.134439 120.920734 
z
" clip-path="url(#pd3e04bc1d6)" style="fill: #24395a"/>
    <path d="M 97.080939 59.548929 
L 100.650426 61.624474 
L 113.533815 54.892996 
L 109.964328 53.411479 
z
" clip-path="url(#pd3e04bc1d6)" style="fill: #69a437"/>
    <path d="M 196.412388 137.29975 
L 198.55408 138.575935 
L 211.437469 133.036255 
L 209.295777 131.76007 
z
" clip-path="url(#pd3e04bc1d6)" style="fill: #371c59"/>
    <path d="M 120.672789 60.403798 
L 124.242276 63.671586 
L 137.125665 57.066297 
L 133.556178 54.159886 
z
" clip-path="url(#pd3e04bc1d6)" style="fill: #2e8852"/>
    <path d="M 77.058575 61.628996 
L 80.628063 64.268779 
L 93.511452 56.797625 
L 89.941964 54.958864 
z
" clip-path="url(#pd3e04bc1d6)" style="fill: #91a71a"/>
    <path d="M 172.820537 131.180273 
L 176.390024 134.759966 
L 189.273413 129.527864 
L 185.703926 125.833218 
z
" clip-path="url(#pd3e04bc1d6)" style="fill: #2b3560"/>
    <path d="M 58.464007 68.20401 
L 60.605699 69.480195 
L 73.489088 57.824029 
L 71.347396 56.547844 
z
" clip-path="url(#pd3e04bc1d6)" style="fill: #aeb113"/>
    <path d="M 142.089712 105.223418 
L 145.6592 114.206161 
L 158.542588 107.34739 
L 154.973101 98.03831 
z
" clip-path="url(#pd3e04bc1d6)" style="fill: #14464d"/>
    <path d="M 145.6592 114.206161 
L 149.228687 121.956443 
L 162.112076 115.160134 
L 158.542588 107.34739 
z
" clip-path="url(#pd3e04bc1d6)" style="fill: #184350"/>
    <path d="M 100.650426 61.624474 
L 104.219913 64.38276 
L 117.103302 57.336381 
L 113.533815 54.892996 
z
" clip-path="url(#pd3e04bc1d6)" style="fill: #529942"/>
    <path d="M 138.520225 95.468806 
L 142.089712 105.223418 
L 154.973101 98.03831 
L 151.403614 88.423958 
z
" clip-path="url(#pd3e04bc1d6)" style="fill: #124a4a"/>
    <path d="M 124.242276 63.671586 
L 127.811764 68.214944 
L 140.695153 61.246363 
L 137.125665 57.066297 
z
" clip-path="url(#pd3e04bc1d6)" style="fill: #207852"/>
    <path d="M 176.390024 134.759966 
L 179.959512 138.353996 
L 192.8429 133.38611 
L 189.273413 129.527864 
z
" clip-path="url(#pd3e04bc1d6)" style="fill: #2e2c5d"/>
    <path d="M 149.228687 121.956443 
L 152.798174 127.772808 
L 165.681563 121.192229 
L 162.112076 115.160134 
z
" clip-path="url(#pd3e04bc1d6)" style="fill: #1d4357"/>
    <path d="M 80.628063 64.268779 
L 84.19755 66.863136 
L 97.080939 59.548929 
L 93.511452 56.797625 
z
" clip-path="url(#pd3e04bc1d6)" style="fill: #7ca428"/>
    <path d="M 134.950738 85.491715 
L 138.520225 95.468806 
L 151.403614 88.423958 
L 147.834127 76.808879 
z
" clip-path="url(#pd3e04bc1d6)" style="fill: #104f49"/>
    <path d="M 60.605699 69.480195 
L 64.175187 73.390561 
L 77.058575 61.628996 
L 73.489088 57.824029 
z
" clip-path="url(#pd3e04bc1d6)" style="fill: #9c9f11"/>
    <path d="M 127.811764 68.214944 
L 131.381251 76.691638 
L 144.26464 68.545597 
L 140.695153 61.246363 
z
" clip-path="url(#pd3e04bc1d6)" style="fill: #145e48"/>
    <path d="M 131.381251 76.691638 
L 134.950738 85.491715 
L 147.834127 76.808879 
L 144.26464 68.545597 
z
" clip-path="url(#pd3e04bc1d6)" style="fill: #11574a"/>
    <path d="M 152.798174 127.772808 
L 156.367661 132.402008 
L 169.25105 126.288143 
L 165.681563 121.192229 
z
" clip-path="url(#pd3e04bc1d6)" style="fill: #21415d"/>
    <path d="M 104.219913 64.38276 
L 107.7894 68.062708 
L 120.672789 60.403798 
L 117.103302 57.336381 
z
" clip-path="url(#pd3e04bc1d6)" style="fill: #3c8b48"/>
    <path d="M 179.959512 138.353996 
L 183.528999 142.733914 
L 196.412388 137.29975 
L 192.8429 133.38611 
z
" clip-path="url(#pd3e04bc1d6)" style="fill: #2f2154"/>
    <path d="M 64.175187 73.390561 
L 67.744674 77.283221 
L 80.628063 64.268779 
L 77.058575 61.628996 
z
" clip-path="url(#pd3e04bc1d6)" style="fill: #899d19"/>
    <path d="M 84.19755 66.863136 
L 87.767037 69.503174 
L 100.650426 61.624474 
L 97.080939 59.548929 
z
" clip-path="url(#pd3e04bc1d6)" style="fill: #66a036"/>
    <path d="M 156.367661 132.402008 
L 159.937148 137.076814 
L 172.820537 131.180273 
L 169.25105 126.288143 
z
" clip-path="url(#pd3e04bc1d6)" style="fill: #25395c"/>
    <path d="M 183.528999 142.733914 
L 185.670691 144.010099 
L 198.55408 138.575935 
L 196.412388 137.29975 
z
" clip-path="url(#pd3e04bc1d6)" style="fill: #371c59"/>
    <path d="M 107.7894 68.062708 
L 111.358887 71.866931 
L 124.242276 63.671586 
L 120.672789 60.403798 
z
" clip-path="url(#pd3e04bc1d6)" style="fill: #2d8450"/>
    <path d="M 159.937148 137.076814 
L 163.506635 140.622869 
L 176.390024 134.759966 
L 172.820537 131.180273 
z
" clip-path="url(#pd3e04bc1d6)" style="fill: #2b3561"/>
    <path d="M 67.744674 77.283221 
L 71.314161 80.786742 
L 84.19755 66.863136 
L 80.628063 64.268779 
z
" clip-path="url(#pd3e04bc1d6)" style="fill: #779e27"/>
    <path d="M 87.767037 69.503174 
L 91.336524 73.383229 
L 104.219913 64.38276 
L 100.650426 61.624474 
z
" clip-path="url(#pd3e04bc1d6)" style="fill: #4c8f3d"/>
    <path d="M 129.206323 112.548754 
L 132.775811 121.051817 
L 145.6592 114.206161 
L 142.089712 105.223418 
z
" clip-path="url(#pd3e04bc1d6)" style="fill: #15474e"/>
    <path d="M 125.636836 104.977704 
L 129.206323 112.548754 
L 142.089712 105.223418 
L 138.520225 95.468806 
z
" clip-path="url(#pd3e04bc1d6)" style="fill: #134f50"/>
    <path d="M 111.358887 71.866931 
L 114.928375 77.893828 
L 127.811764 68.214944 
L 124.242276 63.671586 
z
" clip-path="url(#pd3e04bc1d6)" style="fill: #1e6f4b"/>
    <path d="M 132.775811 121.051817 
L 136.345298 128.172116 
L 149.228687 121.956443 
L 145.6592 114.206161 
z
" clip-path="url(#pd3e04bc1d6)" style="fill: #184552"/>
    <path d="M 122.067349 94.333368 
L 125.636836 104.977704 
L 138.520225 95.468806 
L 134.950738 85.491715 
z
" clip-path="url(#pd3e04bc1d6)" style="fill: #104e48"/>
    <path d="M 114.928375 77.893828 
L 118.497862 85.124926 
L 131.381251 76.691638 
L 127.811764 68.214944 
z
" clip-path="url(#pd3e04bc1d6)" style="fill: #15634b"/>
    <path d="M 118.497862 85.124926 
L 122.067349 94.333368 
L 134.950738 85.491715 
L 131.381251 76.691638 
z
" clip-path="url(#pd3e04bc1d6)" style="fill: #115649"/>
    <path d="M 136.345298 128.172116 
L 139.914785 133.537964 
L 152.798174 127.772808 
L 149.228687 121.956443 
z
" clip-path="url(#pd3e04bc1d6)" style="fill: #1d4459"/>
    <path d="M 163.506635 140.622869 
L 167.076123 143.799394 
L 179.959512 138.353996 
L 176.390024 134.759966 
z
" clip-path="url(#pd3e04bc1d6)" style="fill: #302d60"/>
    <path d="M 91.336524 73.383229 
L 94.906011 78.430721 
L 107.7894 68.062708 
L 104.219913 64.38276 
z
" clip-path="url(#pd3e04bc1d6)" style="fill: #388143"/>
    <path d="M 71.314161 80.786742 
L 74.883648 84.790604 
L 87.767037 69.503174 
L 84.19755 66.863136 
z
" clip-path="url(#pd3e04bc1d6)" style="fill: #609633"/>
    <path d="M 139.914785 133.537964 
L 143.484272 138.202673 
L 156.367661 132.402008 
L 152.798174 127.772808 
z
" clip-path="url(#pd3e04bc1d6)" style="fill: #21415d"/>
    <path d="M 167.076123 143.799394 
L 170.64561 148.567877 
L 183.528999 142.733914 
L 179.959512 138.353996 
z
" clip-path="url(#pd3e04bc1d6)" style="fill: #2e2052"/>
    <path d="M 94.906011 78.430721 
L 98.475499 82.827825 
L 111.358887 71.866931 
L 107.7894 68.062708 
z
" clip-path="url(#pd3e04bc1d6)" style="fill: #2c804d"/>
    <path d="M 74.883648 84.790604 
L 78.453135 89.253464 
L 91.336524 73.383229 
L 87.767037 69.503174 
z
" clip-path="url(#pd3e04bc1d6)" style="fill: #4b8d3c"/>
    <path d="M 143.484272 138.202673 
L 147.053759 142.45907 
L 159.937148 137.076814 
L 156.367661 132.402008 
z
" clip-path="url(#pd3e04bc1d6)" style="fill: #263b5e"/>
    <path d="M 170.64561 148.567877 
L 172.787302 149.844061 
L 185.670691 144.010099 
L 183.528999 142.733914 
z
" clip-path="url(#pd3e04bc1d6)" style="fill: #371c5a"/>
    <path d="M 98.475499 82.827825 
L 102.044986 88.64437 
L 114.928375 77.893828 
L 111.358887 71.866931 
z
" clip-path="url(#pd3e04bc1d6)" style="fill: #1e704d"/>
    <path d="M 78.453135 89.253464 
L 82.022622 95.774176 
L 94.906011 78.430721 
L 91.336524 73.383229 
z
" clip-path="url(#pd3e04bc1d6)" style="fill: #34793f"/>
    <path d="M 112.753447 113.725255 
L 116.322934 122.730966 
L 129.206323 112.548754 
L 125.636836 104.977704 
z
" clip-path="url(#pd3e04bc1d6)" style="fill: #134c4d"/>
    <path d="M 116.322934 122.730966 
L 119.892422 129.655686 
L 132.775811 121.051817 
L 129.206323 112.548754 
z
" clip-path="url(#pd3e04bc1d6)" style="fill: #164c53"/>
    <path d="M 109.18396 104.358432 
L 112.753447 113.725255 
L 125.636836 104.977704 
L 122.067349 94.333368 
z
" clip-path="url(#pd3e04bc1d6)" style="fill: #11504a"/>
    <path d="M 102.044986 88.64437 
L 105.614473 96.117651 
L 118.497862 85.124926 
L 114.928375 77.893828 
z
" clip-path="url(#pd3e04bc1d6)" style="fill: #15624b"/>
    <path d="M 147.053759 142.45907 
L 150.623247 146.416551 
L 163.506635 140.622869 
L 159.937148 137.076814 
z
" clip-path="url(#pd3e04bc1d6)" style="fill: #2a345e"/>
    <path d="M 105.614473 96.117651 
L 109.18396 104.358432 
L 122.067349 94.333368 
L 118.497862 85.124926 
z
" clip-path="url(#pd3e04bc1d6)" style="fill: #11594c"/>
    <path d="M 119.892422 129.655686 
L 123.461909 133.755382 
L 136.345298 128.172116 
L 132.775811 121.051817 
z
" clip-path="url(#pd3e04bc1d6)" style="fill: #1d5161"/>
    <path d="M 82.022622 95.774176 
L 85.59211 100.157654 
L 98.475499 82.827825 
L 94.906011 78.430721 
z
" clip-path="url(#pd3e04bc1d6)" style="fill: #2d834f"/>
    <path d="M 123.461909 133.755382 
L 127.031396 141.053713 
L 139.914785 133.537964 
L 136.345298 128.172116 
z
" clip-path="url(#pd3e04bc1d6)" style="fill: #1b3e52"/>
    <path d="M 150.623247 146.416551 
L 154.192734 149.801675 
L 167.076123 143.799394 
L 163.506635 140.622869 
z
" clip-path="url(#pd3e04bc1d6)" style="fill: #2f2d5f"/>
    <path d="M 85.59211 100.157654 
L 89.161597 106.80075 
L 102.044986 88.64437 
L 98.475499 82.827825 
z
" clip-path="url(#pd3e04bc1d6)" style="fill: #1e6e4b"/>
    <path d="M 127.031396 141.053713 
L 130.600883 145.247266 
L 143.484272 138.202673 
L 139.914785 133.537964 
z
" clip-path="url(#pd3e04bc1d6)" style="fill: #224360"/>
    <path d="M 89.161597 106.80075 
L 92.731084 114.373532 
L 105.614473 96.117651 
L 102.044986 88.64437 
z
" clip-path="url(#pd3e04bc1d6)" style="fill: #15644c"/>
    <path d="M 92.731084 114.373532 
L 96.300571 120.900206 
L 109.18396 104.358432 
L 105.614473 96.117651 
z
" clip-path="url(#pd3e04bc1d6)" style="fill: #136253"/>
    <path d="M 96.300571 120.900206 
L 99.870058 127.964219 
L 112.753447 113.725255 
L 109.18396 104.358432 
z
" clip-path="url(#pd3e04bc1d6)" style="fill: #125952"/>
    <path d="M 99.870058 127.964219 
L 103.439546 135.099993 
L 116.322934 122.730966 
L 112.753447 113.725255 
z
" clip-path="url(#pd3e04bc1d6)" style="fill: #145253"/>
    <path d="M 154.192734 149.801675 
L 157.762221 153.638622 
L 170.64561 148.567877 
L 167.076123 143.799394 
z
" clip-path="url(#pd3e04bc1d6)" style="fill: #302257"/>
    <path d="M 103.439546 135.099993 
L 107.009033 140.983654 
L 119.892422 129.655686 
L 116.322934 122.730966 
z
" clip-path="url(#pd3e04bc1d6)" style="fill: #185058"/>
    <path d="M 130.600883 145.247266 
L 134.17037 149.058961 
L 147.053759 142.45907 
L 143.484272 138.202673 
z
" clip-path="url(#pd3e04bc1d6)" style="fill: #273d61"/>
    <path d="M 107.009033 140.983654 
L 110.57852 145.236757 
L 123.461909 133.755382 
L 119.892422 129.655686 
z
" clip-path="url(#pd3e04bc1d6)" style="fill: #1d5261"/>
    <path d="M 157.762221 153.638622 
L 159.903913 154.914807 
L 172.787302 149.844061 
L 170.64561 148.567877 
z
" clip-path="url(#pd3e04bc1d6)" style="fill: #371c59"/>
    <path d="M 134.17037 149.058961 
L 137.739858 152.212146 
L 150.623247 146.416551 
L 147.053759 142.45907 
z
" clip-path="url(#pd3e04bc1d6)" style="fill: #2c3763"/>
    <path d="M 110.57852 145.236757 
L 114.148007 150.354704 
L 127.031396 141.053713 
L 123.461909 133.755382 
z
" clip-path="url(#pd3e04bc1d6)" style="fill: #1e465c"/>
    <path d="M 114.148007 150.354704 
L 117.717494 153.876675 
L 130.600883 145.247266 
L 127.031396 141.053713 
z
" clip-path="url(#pd3e04bc1d6)" style="fill: #244664"/>
    <path d="M 137.739858 152.212146 
L 141.309345 156.005263 
L 154.192734 149.801675 
L 150.623247 146.416551 
z
" clip-path="url(#pd3e04bc1d6)" style="fill: #2e2c5c"/>
    <path d="M 117.717494 153.876675 
L 121.286981 157.587827 
L 134.17037 149.058961 
L 130.600883 145.247266 
z
" clip-path="url(#pd3e04bc1d6)" style="fill: #273d62"/>
    <path d="M 141.309345 156.005263 
L 144.878832 159.130401 
L 157.762221 153.638622 
L 154.192734 149.801675 
z
" clip-path="url(#pd3e04bc1d6)" style="fill: #33245b"/>
    <path d="M 144.878832 159.130401 
L 147.020524 160.406586 
L 159.903913 154.914807 
L 157.762221 153.638622 
z
" clip-path="url(#pd3e04bc1d6)" style="fill: #371c59"/>
    <path d="M 121.286981 157.587827 
L 124.856469 160.063777 
L 137.739858 152.212146 
L 134.17037 149.058961 
z
" clip-path="url(#pd3e04bc1d6)" style="fill: #2f3968"/>
    <path d="M 124.856469 160.063777 
L 128.425956 163.313445 
L 141.309345 156.005263 
L 137.739858 152.212146 
z
" clip-path="url(#pd3e04bc1d6)" style="fill: #302d60"/>
    <path d="M 128.425956 163.313445 
L 131.995443 166.967864 
L 144.878832 159.130401 
L 141.309345 156.005263 
z
" clip-path="url(#pd3e04bc1d6)" style="fill: #312359"/>
    <path d="M 131.995443 166.967864 
L 134.137135 168.244049 
L 147.020524 160.406586 
L 144.878832 159.130401 
z
" clip-path="url(#pd3e04bc1d6)" style="fill: #381c5a"/>
   </g>
   <g id="text_20">
    <!-- Rnyi Entropy $S_2$ -->
    <g transform="translate(25.0344 117.432) rotate(-90) scale(0.09 -0.09)">
     <defs>
      <path id="Times-Roman-52" d="M 1272 2191 
Q 1963 2216 2259 2334 
Q 2769 2544 2769 3122 
Q 2769 3678 2313 3881 
Q 2069 3991 1666 3991 
Q 1394 3991 1333 3952 
Q 1272 3913 1272 3769 
L 1272 2191 
z
M 72 116 
Q 441 150 531 259 
Q 622 369 622 769 
L 622 3541 
Q 622 3878 520 3983 
Q 419 4088 72 4116 
L 72 4234 
L 1844 4234 
Q 2397 4234 2766 4094 
Q 3466 3828 3466 3116 
Q 3466 2638 3155 2381 
Q 2844 2125 2309 2044 
L 3628 422 
Q 3750 272 3872 203 
Q 3994 134 4184 116 
L 4184 0 
L 3153 0 
L 1628 1969 
L 1272 1953 
L 1272 694 
Q 1272 338 1380 242 
Q 1488 147 1850 116 
L 1850 0 
L 72 0 
L 72 116 
z
" transform="scale(0.015625)"/>
      <path id="Times-Roman-e9" d="M 1466 2931 
Q 1906 2931 2237 2626 
Q 2569 2322 2569 1763 
L 584 1763 
Q 616 1038 912 706 
Q 1209 375 1616 375 
Q 1944 375 2169 547 
Q 2394 719 2584 1034 
L 2694 997 
Q 2566 600 2214 262 
Q 1863 -75 1353 -75 
Q 766 -75 445 369 
Q 125 813 125 1391 
Q 125 2019 497 2475 
Q 869 2931 1466 2931 
z
M 1284 2703 
Q 928 2703 741 2388 
Q 641 2219 597 1963 
L 1916 1963 
Q 1881 2275 1797 2428 
Q 1644 2703 1284 2703 
z
M 1425 2931 
L 1425 2931 
z
M 2413 4138 
Q 2413 4047 2363 3987 
Q 2313 3928 2216 3866 
L 1231 3244 
L 972 3244 
L 1913 4191 
Q 1963 4241 2038 4294 
Q 2113 4347 2197 4347 
Q 2278 4347 2345 4289 
Q 2413 4231 2413 4138 
z
M 1425 2931 
L 1425 2931 
z
" transform="scale(0.015625)"/>
      <path id="Times-Roman-45" d="M 72 116 
Q 425 153 529 242 
Q 634 331 634 694 
L 634 3541 
Q 634 3881 531 3986 
Q 428 4091 72 4116 
L 72 4234 
L 3472 4234 
L 3494 3316 
L 3331 3316 
Q 3250 3741 3087 3866 
Q 2925 3991 2363 3991 
L 1494 3991 
Q 1353 3991 1320 3945 
Q 1288 3900 1288 3775 
L 1288 2347 
L 2272 2347 
Q 2681 2347 2793 2469 
Q 2906 2591 2975 2963 
L 3125 2963 
L 3125 1481 
L 2975 1481 
Q 2903 1853 2790 1973 
Q 2678 2094 2272 2094 
L 1288 2094 
L 1288 509 
Q 1288 319 1408 284 
Q 1528 250 2128 250 
Q 2778 250 3087 392 
Q 3397 534 3644 1081 
L 3822 1081 
L 3531 0 
L 72 0 
L 72 116 
z
M 1959 4234 
L 1959 4234 
z
" transform="scale(0.015625)"/>
      <path id="Times-Roman-6f" d="M 163 1450 
Q 163 2072 558 2501 
Q 953 2931 1575 2931 
Q 2194 2931 2600 2525 
Q 3006 2119 3006 1444 
Q 3006 822 2612 362 
Q 2219 -97 1594 -97 
Q 994 -97 578 343 
Q 163 784 163 1450 
z
M 1488 2744 
Q 1241 2744 1059 2581 
Q 747 2297 747 1600 
Q 747 1044 998 562 
Q 1250 81 1697 81 
Q 2047 81 2236 403 
Q 2425 725 2425 1247 
Q 2425 1788 2184 2266 
Q 1944 2744 1488 2744 
z
M 1603 2931 
L 1603 2931 
z
" transform="scale(0.015625)"/>
      <path id="Times-Roman-70" d="M 1022 575 
Q 1103 363 1264 258 
Q 1425 153 1644 153 
Q 1981 153 2220 489 
Q 2459 825 2459 1425 
Q 2459 2000 2211 2284 
Q 1963 2569 1634 2569 
Q 1403 2569 1212 2426 
Q 1022 2284 1022 2147 
L 1022 575 
z
M 28 -1291 
Q 322 -1272 401 -1165 
Q 481 -1059 481 -831 
L 481 2169 
Q 481 2406 423 2473 
Q 366 2541 206 2541 
Q 172 2541 142 2537 
Q 113 2534 56 2525 
L 56 2628 
L 353 2725 
Q 369 2728 981 2941 
Q 997 2941 1005 2927 
Q 1013 2913 1013 2894 
L 1013 2472 
Q 1219 2678 1375 2778 
Q 1656 2953 1953 2953 
Q 2384 2953 2695 2586 
Q 3006 2219 3006 1581 
Q 3006 956 2632 446 
Q 2259 -63 1694 -63 
Q 1519 -63 1391 -19 
Q 1191 47 1022 222 
L 1022 -800 
Q 1022 -1116 1125 -1187 
Q 1228 -1259 1575 -1284 
L 1575 -1394 
L 28 -1394 
L 28 -1291 
z
" transform="scale(0.015625)"/>
      <path id="Cmmi10-53" d="M 391 -141 
Q 372 -141 356 -119 
Q 341 -97 341 -78 
L 709 1416 
Q 722 1453 763 1453 
L 838 1453 
Q 863 1453 877 1434 
Q 891 1416 891 1388 
Q 838 1169 838 997 
Q 838 534 1156 309 
Q 1475 84 1959 84 
Q 2169 84 2372 187 
Q 2575 291 2726 456 
Q 2878 622 2968 826 
Q 3059 1031 3059 1241 
Q 3059 1466 2940 1642 
Q 2822 1819 2613 1869 
L 1831 2075 
Q 1516 2159 1328 2414 
Q 1141 2669 1141 2988 
Q 1141 3372 1369 3728 
Q 1597 4084 1964 4298 
Q 2331 4513 2713 4513 
Q 3006 4513 3251 4405 
Q 3497 4297 3628 4063 
L 3994 4494 
Q 4031 4513 4038 4513 
L 4078 4513 
Q 4103 4513 4118 4491 
Q 4134 4469 4134 4447 
L 3763 2963 
Q 3753 2919 3713 2919 
L 3634 2919 
Q 3578 2919 3578 2988 
Q 3609 3191 3609 3341 
Q 3609 3638 3507 3858 
Q 3406 4078 3201 4192 
Q 2997 4306 2694 4306 
Q 2438 4306 2184 4159 
Q 1931 4013 1775 3769 
Q 1619 3525 1619 3263 
Q 1619 3056 1739 2897 
Q 1859 2738 2059 2681 
L 2841 2478 
Q 3053 2422 3211 2280 
Q 3369 2138 3450 1942 
Q 3531 1747 3531 1516 
Q 3531 1213 3403 917 
Q 3275 622 3045 378 
Q 2816 134 2525 -3 
Q 2234 -141 1931 -141 
Q 1169 -141 838 306 
L 481 -122 
Q 444 -141 434 -141 
L 391 -141 
z
" transform="scale(0.015625)"/>
      <path id="Cmr10-32" d="M 319 0 
L 319 172 
Q 319 188 331 206 
L 1325 1306 
Q 1550 1550 1690 1715 
Q 1831 1881 1968 2097 
Q 2106 2313 2186 2536 
Q 2266 2759 2266 3009 
Q 2266 3272 2169 3511 
Q 2072 3750 1880 3894 
Q 1688 4038 1416 4038 
Q 1138 4038 916 3870 
Q 694 3703 603 3438 
Q 628 3444 672 3444 
Q 816 3444 917 3347 
Q 1019 3250 1019 3097 
Q 1019 2950 917 2848 
Q 816 2747 672 2747 
Q 522 2747 420 2851 
Q 319 2956 319 3097 
Q 319 3338 409 3548 
Q 500 3759 670 3923 
Q 841 4088 1055 4175 
Q 1269 4263 1509 4263 
Q 1875 4263 2190 4108 
Q 2506 3953 2690 3670 
Q 2875 3388 2875 3009 
Q 2875 2731 2753 2481 
Q 2631 2231 2440 2026 
Q 2250 1822 1953 1562 
Q 1656 1303 1563 1216 
L 838 519 
L 1453 519 
Q 1906 519 2211 526 
Q 2516 534 2534 550 
Q 2609 631 2688 1141 
L 2875 1141 
L 2694 0 
L 319 0 
z
" transform="scale(0.015625)"/>
     </defs>
     <use xlink:href="#Times-Roman-52" transform="translate(0 0.484375)"/>
     <use xlink:href="#Times-Roman-e9" transform="translate(66.699219 0.484375)"/>
     <use xlink:href="#Times-Roman-6e" transform="translate(111.083984 0.484375)"/>
     <use xlink:href="#Times-Roman-79" transform="translate(161.083984 0.484375)"/>
     <use xlink:href="#Times-Roman-69" transform="translate(211.083984 0.484375)"/>
     <use xlink:href="#Times-Roman-20" transform="translate(238.867188 0.484375)"/>
     <use xlink:href="#Times-Roman-45" transform="translate(263.867188 0.484375)"/>
     <use xlink:href="#Times-Roman-6e" transform="translate(324.951172 0.484375)"/>
     <use xlink:href="#Times-Roman-74" transform="translate(374.951172 0.484375)"/>
     <use xlink:href="#Times-Roman-72" transform="translate(402.734375 0.484375)"/>
     <use xlink:href="#Times-Roman-6f" transform="translate(436.035156 0.484375)"/>
     <use xlink:href="#Times-Roman-70" transform="translate(486.035156 0.484375)"/>
     <use xlink:href="#Times-Roman-79" transform="translate(536.035156 0.484375)"/>
     <use xlink:href="#Times-Roman-20" transform="translate(586.035156 0.484375)"/>
     <use xlink:href="#Cmmi10-53" transform="translate(611.035156 0.484375)"/>
     <use xlink:href="#Cmr10-32" transform="translate(672.314453 -16.521875) scale(0.7)"/>
    </g>
   </g>
   <g id="line2d_21">
    <path d="M 60.605699 69.469567 
L 73.489088 57.813401 
L 86.372477 51.818326 
L 99.255866 46.369814 
L 112.139255 40.874943 
L 125.022644 35.545636 
L 137.906033 30.086847 
L 150.789422 24.680305 
" clip-path="url(#pd3e04bc1d6)" style="fill: none; stroke-dasharray: 1.5,0.75; stroke-dashoffset: 0; stroke: #ffffff; stroke-opacity: 0.95; stroke-width: 1.5"/>
   </g>
   <g id="line2d_22">
    <path d="M 82.022622 95.763548 
L 94.906011 78.420093 
L 107.7894 68.05208 
L 120.672789 60.393169 
L 133.556178 54.149258 
L 146.439567 48.194166 
L 159.322956 42.61141 
L 172.206345 37.210342 
" clip-path="url(#pd3e04bc1d6)" style="fill: none; stroke-dasharray: 1.5,0.75; stroke-dashoffset: 0; stroke: #ffffff; stroke-opacity: 0.95; stroke-width: 1.5"/>
   </g>
   <g id="line2d_23">
    <path d="M 92.731084 114.362903 
L 105.614473 96.107023 
L 118.497862 85.114298 
L 131.381251 76.68101 
L 144.26464 68.534969 
L 157.148029 61.202832 
L 170.031418 54.982132 
L 182.914806 49.414638 
" clip-path="url(#pd3e04bc1d6)" style="fill: none; stroke-dasharray: 1.5,0.75; stroke-dashoffset: 0; stroke: #ffffff; stroke-opacity: 0.95; stroke-width: 1.5"/>
   </g>
   <g id="line2d_24">
    <path d="M 96.300571 120.889578 
L 109.18396 104.347804 
L 122.067349 94.32274 
L 134.950738 85.481087 
L 147.834127 76.798251 
L 160.717516 70.152107 
L 173.600905 63.668477 
L 186.484294 57.121462 
" clip-path="url(#pd3e04bc1d6)" style="fill: none; stroke-dasharray: 1.5,0.75; stroke-dashoffset: 0; stroke: #ffffff; stroke-opacity: 0.95; stroke-width: 1.5"/>
   </g>
   <g id="line2d_25">
    <path d="M 99.870058 127.953591 
L 112.753447 113.714627 
L 125.636836 104.967076 
L 138.520225 95.458178 
L 151.403614 88.41333 
L 164.287003 81.779302 
L 177.170392 75.481314 
L 190.053781 70.636598 
" clip-path="url(#pd3e04bc1d6)" style="fill: none; stroke-dasharray: 1.5,0.75; stroke-dashoffset: 0; stroke: #ffffff; stroke-opacity: 0.95; stroke-width: 1.5"/>
   </g>
   <g id="line2d_26">
    <path d="M 110.57852 145.226129 
L 123.461909 133.744754 
L 136.345298 128.161488 
L 149.228687 121.945815 
L 162.112076 115.149506 
L 174.995465 109.897838 
L 187.878853 104.45531 
L 200.762242 99.063116 
" clip-path="url(#pd3e04bc1d6)" style="fill: none; stroke-dasharray: 1.5,0.75; stroke-dashoffset: 0; stroke: #ffffff; stroke-opacity: 0.95; stroke-width: 1.5"/>
   </g>
   <g id="line2d_27">
    <path d="M 131.995443 166.957236 
L 144.878832 159.119773 
L 157.762221 153.627994 
L 170.64561 148.557249 
L 183.528999 142.723286 
L 196.412388 137.289122 
L 209.295777 131.749442 
L 222.179166 126.161064 
" clip-path="url(#pd3e04bc1d6)" style="fill: none; stroke-dasharray: 1.5,0.75; stroke-dashoffset: 0; stroke: #ffffff; stroke-opacity: 0.95; stroke-width: 1.5"/>
   </g>
  </g>
  <g id="legend_1">
   <g id="line2d_28">
    <path d="M 12.24 231.672 
L 20.24 231.672 
L 28.24 231.672 
" style="fill: none; stroke-dasharray: 1.5,0.75; stroke-dashoffset: 0; stroke: #ffffff; stroke-opacity: 0.95; stroke-width: 1.5"/>
   </g>
   <g id="text_21">
    <!-- Support $g$ -->
    <g transform="translate(34.64 234.472) scale(0.08 -0.08)">
     <use xlink:href="#Times-Roman-53" transform="translate(0 0.421875)"/>
     <use xlink:href="#Times-Roman-75" transform="translate(55.615234 0.421875)"/>
     <use xlink:href="#Times-Roman-70" transform="translate(105.615234 0.421875)"/>
     <use xlink:href="#Times-Roman-70" transform="translate(155.615234 0.421875)"/>
     <use xlink:href="#Times-Roman-6f" transform="translate(205.615234 0.421875)"/>
     <use xlink:href="#Times-Roman-72" transform="translate(255.615234 0.421875)"/>
     <use xlink:href="#Times-Roman-74" transform="translate(288.916016 0.421875)"/>
     <use xlink:href="#Times-Roman-20" transform="translate(316.699219 0.421875)"/>
     <use xlink:href="#Cmmi10-67" transform="translate(341.699219 0.421875)"/>
    </g>
   </g>
  </g>
 </g>
 <defs>
  <clipPath id="pd3e04bc1d6">
   <rect x="35.28" y="-7.686" width="206.64" height="206.64"/>
  </clipPath>
 </defs>
</svg>
